<svg width="60" height="60" viewBox="0 0 60 60" fill="none" xmlns="http://www.w3.org/2000/svg">
<rect width="60" height="60" rx="30" fill="url(#paint0_linear_463_753)" fill-opacity="0.141"/>
<rect x="1" y="1" width="58" height="58" rx="29" stroke="url(#paint1_linear_463_753)" stroke-opacity="0.9" stroke-width="2"/>
<path d="M39.8049 28.5983C39.7608 24.1648 43.4203 22.0384 43.5839 21.931C41.5272 18.9239 38.323 18.5113 37.1826 18.4643C34.458 18.1876 31.8635 20.0692 30.4812 20.0692C29.1018 20.0692 26.9661 18.5049 24.7067 18.5447C21.7344 18.5888 18.9948 20.2734 17.4653 22.9341C14.3785 28.2888 16.6756 36.2246 19.6835 40.5706C21.1539 42.6948 22.9076 45.0852 25.2082 44.9977C27.4257 44.9102 28.2623 43.5635 30.9429 43.5635C33.6235 43.5635 34.3761 44.9977 36.7217 44.9528C39.1063 44.9094 40.618 42.788 42.0764 40.6552C43.7646 38.1874 44.4596 35.7977 44.5009 35.6768C44.449 35.6526 39.8526 33.8919 39.8049 28.5983Z" fill="#969696"/>
<path d="M35.3978 15.5881C36.6179 14.107 37.4445 12.0489 37.2197 10C35.459 10.0711 33.3276 11.1703 32.0634 12.65C30.9309 13.9632 29.9406 16.0541 30.2059 18.0659C32.1701 18.2182 34.1735 17.0664 35.3978 15.5881Z" fill="#969696"/>
<defs>
<linearGradient id="paint0_linear_463_753" x1="0" y1="30" x2="60" y2="30" gradientUnits="userSpaceOnUse">
<stop stop-color="white"/>
<stop offset="1" stop-color="#CCCCCC" stop-opacity="0.5"/>
</linearGradient>
<linearGradient id="paint1_linear_463_753" x1="60" y1="30" x2="7" y2="30" gradientUnits="userSpaceOnUse">
<stop stop-color="#3D444D"/>
<stop offset="1" stop-color="white" stop-opacity="0"/>
</linearGradient>
</defs>
</svg>
