<svg width="25" height="25" viewBox="0 0 25 25" fill="none" xmlns="http://www.w3.org/2000/svg">
<path fill-rule="evenodd" clip-rule="evenodd" d="M0.5 12.0737C0.5 5.75221 5.552 0.0556641 12.524 0.0556641C19.34 0.0556641 24.5 5.64405 24.5 12.0376C24.5 19.4528 18.452 24.0557 12.5 24.0557C10.532 24.0557 8.348 23.5269 6.596 22.4933C5.984 22.1208 5.468 21.8444 4.808 22.0607L2.384 22.7818C1.772 22.974 1.22 22.4933 1.4 21.8444L2.204 19.1523C2.336 18.7798 2.312 18.3832 2.12 18.0707C1.088 16.1718 0.5 14.0927 0.5 12.0737ZM10.9396 12.0731C10.9396 12.9264 11.6236 13.6114 12.4756 13.6234C13.3276 13.6234 14.0116 12.9264 14.0116 12.0851C14.0116 11.2318 13.3276 10.5468 12.4756 10.5468C11.6356 10.5348 10.9396 11.2318 10.9396 12.0731ZM16.4727 12.0849C16.4727 12.9262 17.1567 13.6233 18.0087 13.6233C18.8607 13.6233 19.5447 12.9262 19.5447 12.0849C19.5447 11.2317 18.8607 10.5466 18.0087 10.5466C17.1567 10.5466 16.4727 11.2317 16.4727 12.0849ZM6.9442 13.624C6.1042 13.624 5.4082 12.9269 5.4082 12.0857C5.4082 11.2324 6.0922 10.5474 6.9442 10.5474C7.7962 10.5474 8.4802 11.2324 8.4802 12.0857C8.4802 12.9269 7.7962 13.612 6.9442 13.624Z" fill="#9198A1"/>
</svg>
