<svg width="26" height="26" viewBox="0 0 26 26" fill="none" xmlns="http://www.w3.org/2000/svg">
<path d="M23.9396 0.280355C23.7024 0.443891 18.203 5.87029 11.7549 12.3522C0.533638 23.5916 0 24.1565 0 24.662C0 25.5689 0.919043 26.2379 1.68985 25.8811C1.86773 25.8067 4.50627 23.2794 7.54505 20.2614L13.0593 14.8053L18.6477 20.3952C22.7241 24.4687 24.3398 26 24.577 26C25.5257 26 26.2372 25.0783 25.9259 24.2457C25.8518 24.0227 23.3318 21.3913 20.3375 18.3733L14.8974 12.9172L20.4265 7.37184C25.6739 2.10898 25.9407 1.81164 25.9407 1.2913C25.9407 0.875029 25.837 0.666893 25.4812 0.369556C24.9327 -0.0913158 24.5325 -0.12105 23.9396 0.280355Z" fill="#C3C3C3"/>
<path d="M0.978423 0.59227C0.681957 0.815273 0.593018 1.02341 0.593018 1.43968C0.593018 1.96002 0.83019 2.22762 5.45505 6.86608C9.85756 11.2815 10.3467 11.7275 10.7914 11.7275C11.4733 11.7275 12.0069 11.1626 12.0069 10.4341C12.0069 9.89892 11.8142 9.67591 7.21902 5.08206C2.72757 0.562537 2.40146 0.280066 1.91229 0.280066C1.58618 0.280066 1.21559 0.413868 0.978423 0.59227Z" fill="#C3C3C3"/>
</svg>
