<svg width="31" height="31" viewBox="0 0 31 31" fill="none" xmlns="http://www.w3.org/2000/svg">
<path d="M11.75 5.5H6.75C6.05964 5.5 5.5 6.05964 5.5 6.75V11.75C5.5 12.4404 6.05964 13 6.75 13H11.75C12.4404 13 13 12.4404 13 11.75V6.75C13 6.05964 12.4404 5.5 11.75 5.5Z" fill="#9198A1"/>
<path d="M11.75 18H6.75C6.05964 18 5.5 18.5596 5.5 19.25V24.25C5.5 24.9404 6.05964 25.5 6.75 25.5H11.75C12.4404 25.5 13 24.9404 13 24.25V19.25C13 18.5596 12.4404 18 11.75 18Z" fill="#9198A1"/>
<path d="M24.25 18H19.25C18.5596 18 18 18.5596 18 19.25V24.25C18 24.9404 18.5596 25.5 19.25 25.5H24.25C24.9404 25.5 25.5 24.9404 25.5 24.25V19.25C25.5 18.5596 24.9404 18 24.25 18Z" fill="#9198A1"/>
<path d="M24.25 5.5H19.25C18.5596 5.5 18 6.05964 18 6.75V11.75C18 12.4404 18.5596 13 19.25 13H24.25C24.9404 13 25.5 12.4404 25.5 11.75V6.75C25.5 6.05964 24.9404 5.5 24.25 5.5Z" fill="#9198A1"/>

</svg>
