<svg width="21" height="24" viewBox="0 0 21 24" fill="none" xmlns="http://www.w3.org/2000/svg">
<path fill-rule="evenodd" clip-rule="evenodd" d="M5.66986 0H15.3313C18.8922 0 20.875 2.05194 20.875 5.56792V17.4761C20.875 21.0497 18.8922 23.0556 15.3313 23.0556H5.66986C2.16542 23.0556 0.125 21.0497 0.125 17.4761V5.56792C0.125 2.05194 2.16542 0 5.66986 0ZM5.97975 5.37181V5.36028H9.42541C9.92225 5.36028 10.3257 5.76375 10.3257 6.25829C10.3257 6.76667 9.92225 7.17014 9.42541 7.17014H5.97975C5.48291 7.17014 5.08059 6.76667 5.08059 6.27097C5.08059 5.77528 5.48291 5.37181 5.97975 5.37181ZM5.97975 12.3807H15.0175C15.5132 12.3807 15.9167 11.9773 15.9167 11.4816C15.9167 10.9859 15.5132 10.5813 15.0175 10.5813H5.97975C5.48291 10.5813 5.08059 10.9859 5.08059 11.4816C5.08059 11.9773 5.48291 12.3807 5.97975 12.3807ZM5.97985 17.649H15.0176C15.4776 17.6029 15.8246 17.2098 15.8246 16.7498C15.8246 16.2772 15.4776 15.8852 15.0176 15.8391H5.97985C5.63402 15.8045 5.29971 15.9659 5.11527 16.2657C4.93082 16.5539 4.93082 16.9343 5.11527 17.234C5.29971 17.5222 5.63402 17.6951 5.97985 17.649Z" fill="#9198A1"/>
</svg>
