<svg width="28" height="40" viewBox="0 0 28 40" fill="none" xmlns="http://www.w3.org/2000/svg">
<path fill-rule="evenodd" clip-rule="evenodd" d="M20.9402 2.11496L13.8684 1.00371C7.6957 0.0337083 4.60931 -0.451304 2.59627 1.27009C0.583252 2.99149 0.583252 6.11575 0.583252 12.3643V18.0835H11.9288L6.75325 11.6142L9.74659 9.21951L17.4133 18.8028L18.3711 20.0002L17.4133 21.1975L9.74659 30.7808L6.75325 28.3862L11.9288 21.9168H0.583252V27.6344C0.583252 33.883 0.583252 37.0073 2.59627 38.7287C4.60931 40.45 7.6957 39.9651 13.8684 38.9951L20.9402 37.8838C24.0312 37.3979 25.5766 37.1551 26.4966 36.0793C27.4166 35.0036 27.4166 33.4391 27.4166 30.3101V9.68869C27.4166 6.55969 27.4166 4.99519 26.4966 3.91939C25.5766 2.84358 24.0312 2.6007 20.9402 2.11496Z" fill="#9198A1"/>
</svg>
