<svg width="17" height="16" viewBox="0 0 17 16" fill="none" xmlns="http://www.w3.org/2000/svg">
<path d="M10.599 15.9809C10.5723 15.995 10.5415 16.0016 10.5106 15.9997C10.4797 15.9978 10.4502 15.9875 10.426 15.9702C9.94641 15.6989 7.53663 14.2562 5.90561 12.4448C4.91082 11.3268 8.71405 9.66279 8.71405 9.88213C8.71776 11.0701 9.08524 14.1935 10.6465 15.7135C10.6775 15.7473 10.6937 15.7901 10.6919 15.8339C10.6901 15.8776 10.6705 15.9192 10.6368 15.9509L10.599 15.9742M9.59823 8.72144L13.057 7.30876C13.494 7.15525 13.8888 6.91873 14.2146 6.61541C14.5403 6.31209 14.7892 5.94914 14.9441 5.5514L15.3755 4.46206C15.381 4.44753 15.3833 4.43215 15.3823 4.41681C15.3812 4.40148 15.3767 4.38649 15.3691 4.37272C15.3615 4.35895 15.3509 4.34667 15.338 4.3366C15.3251 4.32653 15.31 4.31887 15.2938 4.31406C15.264 4.30354 15.2308 4.30354 15.201 4.31406L8.59601 6.82809L8.62051 6.73342C8.63748 6.64667 8.67547 6.56432 8.73178 6.49221C8.7881 6.42009 8.86137 6.35996 8.94641 6.31608C10.0637 5.69807 14.0711 3.85872 14.0711 3.85872C14.6993 3.59465 15.2578 3.21367 15.7096 2.74106C16.1614 2.26844 16.4962 1.71497 16.6917 1.11735L16.9953 0.186669C17.0053 0.149497 16.9991 0.110301 16.978 0.0770923C16.9569 0.0438832 16.9225 0.0191686 16.8817 0.0080001C16.8471 -0.0026667 16.8095 -0.0026667 16.7748 0.0080001C16.7748 0.0080001 10.7445 2.11203 8.8061 2.95804C6.86626 3.80472 4.88112 4.8934 4.19368 8.09477C3.91454 9.39145 4.42604 10.4895 5.38669 11.7348C5.38223 10.5108 8.82912 9.05478 9.59823 8.72144ZM1.09497 3.24004C0.547834 2.86604 0.0823592 2.83337 0.00143943 2.86604C-0.0349373 2.75004 0.629496 2.46803 0.711158 2.3947C0.9799 2.16403 1.1306 1.85869 1.44463 1.66269C2.08531 1.25535 2.87743 1.38002 3.54112 1.70536C3.87891 1.87202 4.80985 2.41936 4.82396 2.4467C5.33078 2.78747 5.80192 3.16905 6.23152 3.58671C6.25938 3.61585 6.27469 3.65298 6.27469 3.69138C6.27469 3.72978 6.25938 3.76691 6.23152 3.79605C6.07488 3.93138 5.9212 4.02805 5.73041 4.17272C4.46613 5.12607 3.7037 7.6661 3.69183 7.9801V8.0001C3.69183 8.0001 2.95019 4.41339 1.09497 3.24004Z" fill="url(#paint0_linear_881_3118)"/>
<defs>
<linearGradient id="paint0_linear_881_3118" x1="8.5" y1="0" x2="8.5" y2="16" gradientUnits="userSpaceOnUse">
<stop stop-color="#F9A315"/>
<stop offset="1" stop-color="#FAB823"/>
</linearGradient>
</defs>
</svg>
