<svg width="19" height="17" viewBox="0 0 19 17" fill="none" xmlns="http://www.w3.org/2000/svg">
<path d="M17.4648 2.05033C16.8237 1.41056 15.9551 1.05125 15.0494 1.05125C14.1437 1.05125 13.275 1.41056 12.6339 2.05033L11.9542 2.73002C11.5686 3.11565 11.2699 3.57939 11.0784 4.09006C10.887 4.60074 10.807 5.14649 10.8441 5.69062L10.8673 6.03047C10.8784 6.19721 10.8499 6.36421 10.784 6.51779C10.7181 6.67137 10.6168 6.80717 10.4884 6.91406L9.39182 7.84467L8.72516 7.27826C8.55599 7.13708 8.42264 6.95786 8.33601 6.75526C8.24938 6.55267 8.21193 6.33244 8.22672 6.1126L8.24994 5.77275C8.2837 5.27701 8.21088 4.77978 8.03638 4.31453C7.86189 3.84929 7.58977 3.42681 7.23834 3.07553L4.90305 0.740234L3.95488 1.6884L5.49891 3.23186L4.7773 3.95402L3.23385 2.41057L2.25113 3.39158L3.79006 4.93107L3.06902 5.65211L1.5301 4.11262L0.550781 5.09193L2.88607 7.42723C3.23735 7.77866 3.65983 8.05078 4.12508 8.22527C4.59033 8.39976 5.08755 8.47258 5.5833 8.43883L5.92314 8.41561C6.14299 8.40081 6.36321 8.43826 6.56581 8.52489C6.76841 8.61153 6.94763 8.74487 7.08881 8.91404L7.52437 9.42721L4.0693 12.3606C3.72361 12.6494 3.47523 13.0375 3.35793 13.4724C3.24063 13.9073 3.2601 14.3677 3.4137 14.7911C3.56729 15.2145 3.84756 15.5804 4.21639 15.8389C4.58522 16.0974 5.02471 16.236 5.47512 16.236C5.50797 16.236 5.54082 16.236 5.57367 16.236C5.87749 16.2218 6.17505 16.1447 6.44748 16.0094C6.71991 15.8742 6.96126 15.6838 7.15621 15.4504L9.89478 12.219L12.5382 15.3343C12.7033 15.5315 12.9076 15.6923 13.138 15.8065C13.3685 15.9207 13.6202 15.9857 13.8772 15.9975C13.9049 15.9975 13.9338 15.9975 13.9599 15.9975C14.3407 15.998 14.7123 15.881 15.0243 15.6627C15.3363 15.4444 15.5734 15.1352 15.7034 14.7773C15.8334 14.4194 15.85 14.0301 15.7508 13.6624C15.6517 13.2948 15.4417 12.9666 15.1493 12.7226L11.8421 9.92338L12.6028 9.02563C12.7096 8.89784 12.8451 8.79711 12.9983 8.73165C13.1514 8.66619 13.3179 8.63786 13.4841 8.64896L13.8239 8.67162C14.3683 8.70882 14.9143 8.62887 15.4251 8.43717C15.9359 8.24547 16.3997 7.94647 16.7851 7.56033L17.4648 6.88064C18.1044 6.23961 18.4636 5.37104 18.4636 4.46549C18.4636 3.55994 18.1044 2.69137 17.4648 2.05033ZM16.7443 6.16018L16.0646 6.83986C15.782 7.12265 15.442 7.34161 15.0676 7.48201C14.6932 7.6224 14.2931 7.68098 13.8942 7.65379L13.5543 7.63057C13.2281 7.60817 12.9012 7.6632 12.6003 7.79116C12.2994 7.91913 12.033 8.1164 11.8228 8.36689L6.3757 14.7945C6.27137 14.9201 6.14196 15.0225 5.99575 15.0953C5.84955 15.168 5.68977 15.2094 5.52664 15.2168C5.36352 15.2242 5.20064 15.1975 5.04844 15.1383C4.89624 15.0792 4.75806 14.9889 4.64275 14.8733C4.52745 14.7577 4.43755 14.6192 4.37882 14.4669C4.32009 14.3145 4.29381 14.1516 4.30168 13.9885C4.30955 13.8254 4.35138 13.6657 4.4245 13.5197C4.49763 13.3737 4.60043 13.2446 4.72633 13.1406L11.1431 7.69344C11.3944 7.48297 11.5924 7.21612 11.7209 6.91463C11.8494 6.61314 11.9049 6.28554 11.8829 5.95854L11.8596 5.61869C11.8325 5.21977 11.8911 4.81967 12.0315 4.44528C12.1719 4.0709 12.3908 3.73092 12.6736 3.44822L13.3533 2.76854C13.5758 2.54599 13.84 2.36945 14.1308 2.24901C14.4216 2.12856 14.7332 2.06657 15.0479 2.06657C15.3627 2.06657 15.6743 2.12856 15.9651 2.24901C16.2559 2.36945 16.5201 2.54599 16.7426 2.76854C16.9652 2.99108 17.1417 3.25529 17.2622 3.54606C17.3826 3.83684 17.4446 4.14849 17.4446 4.46322C17.4446 4.77796 17.3826 5.08961 17.2622 5.38038C17.1417 5.67116 16.9652 5.93536 16.7426 6.15791L16.7443 6.16018Z" fill="#9198A1"/>
</svg>
