<svg width="26" height="26" viewBox="0 0 26 26" fill="none" xmlns="http://www.w3.org/2000/svg">
<path fill-rule="evenodd" clip-rule="evenodd" d="M13.0007 0C5.82129 0 0 5.96639 0 13.3315C0 19.2224 3.72609 24.2138 8.89154 25.9782C9.54158 26.1 9.77953 25.688 9.77953 25.3339C9.77953 25.0147 9.76793 24.179 9.76212 23.0646C6.14631 23.8713 5.38019 21.277 5.38019 21.277C4.7882 19.739 3.93503 19.3269 3.93503 19.3269C2.75684 18.497 4.02209 18.5144 4.02209 18.5144C5.32796 18.6072 6.01282 19.8899 6.01282 19.8899C7.17359 21.9271 9.05405 21.3409 9.79695 20.9984C9.91302 20.1395 10.2496 19.5475 10.6211 19.2166C7.73657 18.88 4.70114 17.7367 4.70114 12.6292C4.70114 11.1725 5.20608 9.98267 6.03603 9.05405C5.90254 8.71742 5.45565 7.35932 6.16372 5.52529C6.16372 5.52529 7.25485 5.16545 9.73891 6.8892C10.7778 6.5932 11.8863 6.44811 12.9949 6.4423C14.0976 6.44811 15.212 6.5932 16.2509 6.8892C18.7349 5.16545 19.8202 5.52529 19.8202 5.52529C20.5283 7.35932 20.0814 8.71742 19.9479 9.05405C20.7779 9.98847 21.2828 11.1783 21.2828 12.6292C21.2828 17.7483 18.2416 18.8742 15.3455 19.205C15.8098 19.6171 16.2276 20.4296 16.2276 21.6717C16.2276 23.4535 16.2102 24.8928 16.2102 25.3281C16.2102 25.6822 16.4424 26.1 17.104 25.9665C22.2811 24.208 26.0014 19.2166 26.0014 13.3315C26.0014 5.96639 20.1801 0 13.0007 0Z" fill="white"/>
</svg>
