<svg width="450" height="286" viewBox="0 0 450 286" fill="none" xmlns="http://www.w3.org/2000/svg">
<rect x="26.2" width="426" height="242.022" rx="16" transform="rotate(6 26.2 0)" fill="url(#paint0_linear_685_4064)"/>
<rect x="26.2" width="426" height="242.022" rx="16" transform="rotate(6 26.2 0)" stroke="#737B8B"/>
<path d="M35.7828 176.802L37.2308 176.955L36.3913 184.943C36.3556 185.282 36.2906 185.645 36.1963 186.032C36.102 186.419 35.9309 186.771 35.6831 187.088C35.447 187.396 35.105 187.639 34.6573 187.817C34.2107 187.985 33.6214 188.03 32.8894 187.953C31.871 187.846 31.1306 187.543 30.6683 187.044C30.2059 186.545 30.007 185.886 30.0717 185.067L31.456 185.212C31.4382 185.382 31.4441 185.581 31.4737 185.809C31.5151 186.028 31.5894 186.24 31.6966 186.444C31.8144 186.65 31.978 186.828 32.1874 186.978C32.4074 187.13 32.6925 187.225 33.0425 187.261C33.4457 187.304 33.7622 187.251 33.9922 187.104C34.2339 186.947 34.4212 186.747 34.5541 186.503C34.688 186.249 34.7759 185.974 34.8178 185.678C34.8713 185.373 34.9115 185.093 34.9382 184.838L35.7828 176.802ZM43.0324 180.605C43.8068 180.686 44.3945 180.861 44.7954 181.128C45.1974 181.385 45.4755 181.698 45.6297 182.069C45.7944 182.44 45.8687 182.855 45.8526 183.315C45.8365 183.774 45.8034 184.243 45.7532 184.72L45.2966 189.064L44.0077 188.929L44.0897 188.149C43.7508 188.414 43.3332 188.611 42.8369 188.741C42.3417 188.861 41.8554 188.895 41.378 188.845C40.9219 188.797 40.5271 188.675 40.1938 188.479C39.8604 188.284 39.5904 188.046 39.3838 187.767C39.1772 187.488 39.0323 187.183 38.949 186.852C38.8658 186.522 38.8414 186.192 38.876 185.863C38.9117 185.524 39.011 185.191 39.174 184.865C39.337 184.539 39.5597 184.257 39.8422 184.018C40.1257 183.769 40.4621 183.579 40.8512 183.449C41.2404 183.318 41.6736 183.278 42.151 183.328C42.6283 183.378 43.0692 183.521 43.4734 183.756C43.8894 183.982 44.2175 184.28 44.4576 184.648L44.5295 183.964C44.6209 183.094 44.5564 182.433 44.3357 181.981C44.1257 181.53 43.676 181.268 42.9864 181.196C42.6894 181.164 42.4256 181.174 42.195 181.225C41.9645 181.276 41.7517 181.361 41.5569 181.48C41.3738 181.589 41.1974 181.737 41.0277 181.923C40.8591 182.098 40.6877 182.3 40.5136 182.528L39.7731 181.614C39.9383 181.47 40.1089 181.327 40.2847 181.185C40.4712 181.044 40.6878 180.922 40.9346 180.819C41.1919 180.717 41.4889 180.647 41.8256 180.607C42.1634 180.557 42.5657 180.556 43.0324 180.605ZM44.3389 185.778C44.2992 185.645 44.2352 185.488 44.147 185.307C44.0694 185.128 43.9593 184.95 43.8169 184.774C43.6745 184.598 43.4975 184.445 43.2859 184.316C43.0754 184.176 42.8163 184.09 42.5087 184.057C42.2011 184.025 41.9132 184.059 41.6453 184.16C41.3784 184.249 41.1442 184.386 40.9427 184.568C40.7529 184.741 40.5963 184.956 40.473 185.211C40.3496 185.466 40.2729 185.737 40.2428 186.023C40.2071 186.363 40.2342 186.666 40.3242 186.933C40.4258 187.19 40.5626 187.419 40.7346 187.619C40.9077 187.809 41.1065 187.959 41.331 188.068C41.5555 188.178 41.7738 188.243 41.9859 188.266C42.1875 188.287 42.3929 188.271 42.6023 188.218C42.8223 188.166 43.0291 188.086 43.2228 187.977C43.4283 187.86 43.6147 187.718 43.7822 187.554C43.9497 187.389 44.0923 187.205 44.2101 187.003L44.3389 185.778ZM54.4946 190.031L53.142 189.889L53.6923 184.654C53.7034 184.547 53.7106 184.377 53.714 184.141C53.7173 183.905 53.6728 183.665 53.5807 183.419C53.4991 183.175 53.3453 182.955 53.1191 182.759C52.8941 182.553 52.5588 182.427 52.1133 182.38C51.8374 182.351 51.5619 182.37 51.2867 182.438C51.022 182.507 50.7784 182.631 50.5556 182.812C50.3329 182.992 50.1475 183.224 49.9996 183.509C49.8517 183.794 49.756 184.143 49.7125 184.557L49.1958 189.474L47.8432 189.332L48.6794 181.376L50.032 181.518L49.9249 182.536L49.9886 182.543L50.27 182.315C50.6803 181.983 51.0831 181.773 51.4783 181.686C51.8747 181.588 52.2262 181.561 52.5327 181.604C53.2329 181.677 53.761 181.856 54.1173 182.14C54.4747 182.414 54.7209 182.724 54.8561 183.07C55.003 183.408 55.0745 183.748 55.0707 184.091C55.0679 184.423 55.0565 184.684 55.0364 184.875L54.4946 190.031ZM64.5356 187.418L58.4889 186.783C58.4208 187.43 58.4606 187.97 58.608 188.404C58.7555 188.838 58.9602 189.186 59.2221 189.45C59.484 189.713 59.7743 189.91 60.0931 190.04C60.4237 190.161 60.7375 190.237 61.0345 190.268C61.2997 190.296 61.5412 190.294 61.7589 190.263C61.9884 190.223 62.2095 190.161 62.4222 190.076C62.6349 189.991 62.8451 189.879 63.0527 189.74C63.271 189.602 63.5016 189.449 63.7444 189.282L64.2001 189.844C63.7289 190.245 63.1941 190.538 62.5956 190.721C61.9983 190.895 61.3601 190.945 60.6812 190.874C59.981 190.801 59.3833 190.62 58.8881 190.332C58.4045 190.034 58.0136 189.671 57.7154 189.243C57.4289 188.806 57.227 188.328 57.1097 187.812C57.0041 187.286 56.9792 186.758 57.0349 186.228C57.1018 185.591 57.2569 185.034 57.5003 184.555C57.7448 184.066 58.0551 183.664 58.4314 183.35C58.8087 183.025 59.235 182.796 59.7101 182.664C60.1863 182.521 60.6949 182.478 61.236 182.534C61.7452 182.588 62.2189 182.724 62.6572 182.941C63.0955 183.159 63.4666 183.455 63.7704 183.83C64.0848 184.207 64.3154 184.665 64.4623 185.206C64.6093 185.747 64.6454 186.373 64.5707 187.084L64.5356 187.418ZM58.5558 186.146L63.2181 186.636C63.3262 185.607 63.1988 184.779 62.8358 184.151C62.4845 183.513 61.9323 183.155 61.1791 183.075C60.7866 183.034 60.4371 183.094 60.1306 183.255C59.8252 183.405 59.5609 183.624 59.3376 183.912C59.1249 184.2 58.9497 184.541 58.8118 184.934C58.6857 185.318 58.6004 185.722 58.5558 186.146ZM72.585 191.932L73.7558 180.794L77.4156 181.178C78.2961 181.271 79.0873 181.499 79.7891 181.862C80.4921 182.215 81.0773 182.668 81.5447 183.221C82.0238 183.765 82.3709 184.391 82.586 185.1C82.8116 185.81 82.8832 186.558 82.8007 187.343C82.7149 188.16 82.4819 188.897 82.1018 189.554C81.7334 190.202 81.2578 190.747 80.675 191.19C80.1028 191.634 79.4521 191.957 78.723 192.159C77.9938 192.361 77.2315 192.421 76.4358 192.337L72.585 191.932ZM74.1067 191.384L75.857 191.568C76.7269 191.66 77.4792 191.594 78.114 191.371C78.7605 191.139 79.3045 190.81 79.7461 190.384C80.1876 189.959 80.5287 189.469 80.7692 188.915C81.0109 188.351 81.1618 187.782 81.2221 187.209C81.289 186.573 81.247 185.952 81.0961 185.346C80.9464 184.729 80.6881 184.177 80.3212 183.688C79.966 183.189 79.5001 182.776 78.9233 182.447C78.3465 182.118 77.6656 181.912 76.8806 181.83L75.1302 181.646L74.1067 191.384ZM92.1384 189.981C92.0805 190.533 91.9292 191.053 91.6848 191.543C91.4414 192.021 91.1193 192.432 90.7185 192.776C90.3283 193.121 89.8669 193.379 89.3343 193.548C88.8123 193.718 88.2384 193.771 87.6125 193.705C86.976 193.638 86.4095 193.466 85.9131 193.188C85.4285 192.901 85.0259 192.548 84.7053 192.128C84.3954 191.71 84.1659 191.24 84.0167 190.721C83.8793 190.191 83.839 189.656 83.8959 189.115C83.9538 188.563 84.1045 188.048 84.3478 187.57C84.6029 187.082 84.9256 186.665 85.3158 186.32C85.7166 185.976 86.1833 185.72 86.7159 185.55C87.2603 185.372 87.8507 185.316 88.4872 185.383C89.113 185.448 89.663 185.624 90.1371 185.91C90.6229 186.186 91.0207 186.534 91.3306 186.952C91.6512 187.372 91.8802 187.847 92.0176 188.376C92.1561 188.895 92.1964 189.43 92.1384 189.981ZM90.6268 189.823C90.7048 189.08 90.6883 188.472 90.5771 187.999C90.467 187.516 90.2981 187.133 90.0702 186.852C89.8424 186.571 89.5791 186.371 89.2804 186.254C88.9828 186.126 88.6908 186.047 88.4043 186.017C88.1179 185.987 87.8159 186.004 87.4982 186.067C87.1816 186.119 86.8774 186.259 86.5854 186.486C86.3041 186.714 86.054 187.052 85.8352 187.501C85.6281 187.94 85.4856 188.531 85.4075 189.274C85.3306 190.006 85.3472 190.614 85.4572 191.097C85.579 191.571 85.7538 191.949 85.9817 192.23C86.2201 192.513 86.4881 192.718 86.7857 192.846C87.0845 192.963 87.377 193.036 87.6635 193.067C87.9499 193.097 88.2514 193.085 88.5679 193.033C88.8856 192.97 89.1851 192.824 89.4665 192.596C89.7478 192.369 89.992 192.035 90.1991 191.596C90.4073 191.146 90.5498 190.555 90.6268 189.823ZM101.24 191.276L95.1929 190.64C95.1249 191.287 95.1646 191.828 95.3121 192.262C95.4596 192.695 95.6643 193.044 95.9261 193.308C96.188 193.571 96.4784 193.768 96.7972 193.898C97.1278 194.018 97.4415 194.094 97.7386 194.125C98.0038 194.153 98.2453 194.152 98.463 194.121C98.6925 194.081 98.9135 194.018 99.1263 193.933C99.339 193.849 99.5491 193.737 99.7568 193.598C99.9751 193.46 100.206 193.307 100.449 193.139L100.904 193.702C100.433 194.103 99.8982 194.395 99.2997 194.579C98.7023 194.752 98.0642 194.803 97.3853 194.732C96.6851 194.658 96.0874 194.477 95.5921 194.189C95.1086 193.892 94.7177 193.529 94.4195 193.101C94.133 192.663 93.9311 192.186 93.8138 191.67C93.7082 191.144 93.6832 190.616 93.739 190.085C93.8059 189.449 93.961 188.891 94.2044 188.413C94.4488 187.924 94.7592 187.522 95.1354 187.208C95.5128 186.882 95.9391 186.654 96.4142 186.521C96.8904 186.378 97.399 186.335 97.94 186.392C98.4492 186.446 98.923 186.581 99.3613 186.799C99.7996 187.017 100.171 187.313 100.474 187.688C100.789 188.064 101.019 188.523 101.166 189.064C101.313 189.605 101.349 190.231 101.275 190.942L101.24 191.276ZM95.2598 190.004L99.9222 190.494C100.03 189.465 99.9029 188.636 99.5399 188.008C99.1886 187.371 98.6364 187.012 97.8832 186.933C97.4907 186.892 97.1412 186.952 96.8347 187.113C96.5293 187.263 96.265 187.482 96.0417 187.769C95.829 188.058 95.6538 188.399 95.5159 188.792C95.3898 189.176 95.3044 189.579 95.2598 190.004Z" fill="#FCFCFC"/>
<path d="M28.6928 210.124L30.3558 208.384L28.0016 208.281L28.1187 207.167L30.4411 207.572L29.1778 205.509L30.341 205.004L31.1864 207.216L32.4733 205.228L33.506 205.964L31.8414 207.719L34.1972 207.806L34.0801 208.92L31.7561 208.531L33.021 210.578L31.8561 211.1L31.0108 208.887L29.7239 210.875L28.6928 210.124ZM39.8035 211.291L41.4665 209.552L39.1123 209.449L39.2294 208.335L41.5517 208.74L40.2885 206.677L41.4517 206.172L42.297 208.384L43.5839 206.396L44.6167 207.132L42.952 208.887L45.3079 208.974L45.1908 210.088L42.8667 209.699L44.1317 211.746L42.9668 212.267L42.1214 210.055L40.8345 212.043L39.8035 211.291ZM50.9142 212.459L52.5771 210.719L50.223 210.617L50.34 209.503L52.6624 209.908L51.3992 207.845L52.5624 207.339L53.4077 209.552L54.6946 207.563L55.7273 208.299L54.0627 210.055L56.4186 210.142L56.3015 211.256L53.9774 210.867L55.2423 212.914L54.0775 213.435L53.2321 211.223L51.9452 213.211L50.9142 212.459ZM62.0248 213.627L63.6878 211.887L61.3336 211.785L61.4507 210.671L63.7731 211.076L62.5099 209.012L63.673 208.507L64.5184 210.72L65.8053 208.731L66.838 209.467L65.1734 211.223L67.5292 211.31L67.4122 212.423L65.0881 212.034L66.353 214.082L65.1882 214.603L64.3428 212.39L63.0559 214.379L62.0248 213.627Z" fill="#FCFCFC"/>
<path d="M83.3916 215.873L85.0545 214.133L82.7003 214.03L82.8174 212.916L85.1398 213.321L83.8766 211.258L85.0397 210.753L85.8851 212.965L87.172 210.977L88.2047 211.713L86.5401 213.469L88.8959 213.555L88.7789 214.669L86.4548 214.28L87.7197 216.327L86.5549 216.849L85.7095 214.636L84.4226 216.624L83.3916 215.873ZM94.5022 217.04L96.1652 215.301L93.811 215.198L93.9281 214.084L96.2505 214.489L94.9872 212.426L96.1504 211.921L96.9958 214.133L98.2827 212.145L99.3154 212.881L97.6508 214.636L100.007 214.723L99.8895 215.837L97.5655 215.448L98.8304 217.495L97.6655 218.016L96.8202 215.804L95.5333 217.792L94.5022 217.04ZM105.613 218.208L107.276 216.468L104.922 216.366L105.039 215.252L107.361 215.657L106.098 213.594L107.261 213.088L108.106 215.301L109.393 213.312L110.426 214.048L108.761 215.804L111.117 215.891L111 217.005L108.676 216.616L109.941 218.663L108.776 219.184L107.931 216.972L106.644 218.96L105.613 218.208ZM116.724 219.376L118.387 217.636L116.032 217.534L116.149 216.42L118.472 216.825L117.209 214.761L118.372 214.256L119.217 216.469L120.504 214.48L121.537 215.216L119.872 216.972L122.228 217.059L122.111 218.172L119.787 217.783L121.052 219.831L119.887 220.352L119.042 218.139L117.755 220.128L116.724 219.376Z" fill="#FCFCFC"/>
<path d="M138.09 221.622L139.753 219.882L137.399 219.779L137.516 218.665L139.839 219.07L138.575 217.007L139.738 216.502L140.584 218.714L141.871 216.726L142.903 217.462L141.239 219.218L143.595 219.304L143.478 220.418L141.154 220.029L142.418 222.076L141.254 222.598L140.408 220.385L139.121 222.373L138.09 221.622ZM149.201 222.789L150.864 221.05L148.51 220.947L148.627 219.833L150.949 220.238L149.686 218.175L150.849 217.67L151.695 219.882L152.981 217.894L154.014 218.63L152.349 220.385L154.705 220.472L154.588 221.586L152.264 221.197L153.529 223.244L152.364 223.765L151.519 221.553L150.232 223.541L149.201 222.789ZM160.312 223.957L161.975 222.217L159.62 222.115L159.737 221.001L162.06 221.406L160.797 219.343L161.96 218.837L162.805 221.05L164.092 219.061L165.125 219.797L163.46 221.553L165.816 221.64L165.699 222.754L163.375 222.365L164.64 224.412L163.475 224.933L162.63 222.721L161.343 224.709L160.312 223.957ZM171.422 225.125L173.085 223.385L170.731 223.283L170.848 222.169L173.171 222.574L171.907 220.51L173.07 220.005L173.916 222.218L175.203 220.229L176.235 220.965L174.571 222.721L176.927 222.808L176.81 223.921L174.486 223.532L175.75 225.58L174.586 226.101L173.74 223.888L172.453 225.877L171.422 225.125Z" fill="#FCFCFC"/>
<path d="M192.771 224.409C192.807 224.063 192.873 223.666 192.968 223.217C193.077 222.758 193.216 222.296 193.385 221.831C193.568 221.356 193.785 220.896 194.037 220.452C194.301 220.009 194.607 219.625 194.955 219.299C195.304 218.962 195.705 218.703 196.159 218.521C196.612 218.339 197.125 218.279 197.698 218.339C198.271 218.399 198.76 218.565 199.166 218.837C199.584 219.11 199.928 219.448 200.2 219.851C200.484 220.243 200.71 220.682 200.875 221.171C201.041 221.659 201.158 222.153 201.226 222.655C201.307 223.146 201.347 223.627 201.346 224.098C201.358 224.558 201.346 224.96 201.31 225.307C201.231 226.058 201.067 226.807 200.82 227.554C200.574 228.288 200.239 228.947 199.816 229.53C199.405 230.114 198.904 230.574 198.313 230.91C197.736 231.235 197.078 231.359 196.338 231.282C195.598 231.204 194.979 230.946 194.483 230.507C193.999 230.058 193.616 229.505 193.336 228.848C193.055 228.191 192.87 227.478 192.782 226.709C192.695 225.928 192.692 225.161 192.771 224.409ZM194.561 224.597C194.497 225.206 194.454 225.847 194.431 226.52C194.408 227.194 194.452 227.813 194.561 228.38C194.683 228.948 194.886 229.428 195.17 229.82C195.455 230.211 195.872 230.436 196.421 230.494C196.981 230.553 197.448 230.421 197.82 230.098C198.191 229.775 198.49 229.348 198.714 228.816C198.951 228.286 199.128 227.69 199.246 227.026C199.364 226.363 199.455 225.727 199.519 225.118C199.585 224.498 199.629 223.845 199.653 223.16C199.677 222.474 199.628 221.848 199.507 221.28C199.398 220.702 199.196 220.216 198.9 219.823C198.604 219.417 198.176 219.185 197.615 219.127C197.066 219.069 196.611 219.208 196.25 219.544C195.89 219.868 195.591 220.301 195.353 220.843C195.129 221.375 194.957 221.978 194.837 222.653C194.718 223.329 194.626 223.977 194.561 224.597ZM207.329 225.414C206.917 225.323 206.565 225.165 206.275 224.942C205.997 224.719 205.764 224.466 205.577 224.18C205.403 223.885 205.278 223.576 205.204 223.254C205.141 222.934 205.126 222.619 205.158 222.308C205.193 221.974 205.296 221.629 205.466 221.273C205.636 220.917 205.887 220.599 206.218 220.32C206.549 220.041 206.964 219.826 207.462 219.673C207.961 219.52 208.562 219.481 209.267 219.555C209.959 219.628 210.533 219.79 210.989 220.043C211.457 220.298 211.824 220.596 212.09 220.937C212.355 221.279 212.534 221.642 212.627 222.026C212.731 222.411 212.766 222.77 212.731 223.104C212.698 223.415 212.612 223.719 212.472 224.018C212.344 224.318 212.158 224.595 211.914 224.846C211.683 225.088 211.403 225.287 211.073 225.446C210.754 225.605 210.39 225.688 209.979 225.693L209.969 225.782C210.409 225.853 210.79 226.007 211.115 226.247C211.453 226.475 211.725 226.757 211.931 227.093C212.151 227.417 212.306 227.772 212.399 228.155C212.491 228.539 212.518 228.916 212.479 229.286C212.433 229.727 212.297 230.16 212.071 230.582C211.859 230.994 211.562 231.355 211.179 231.665C210.797 231.975 210.332 232.209 209.784 232.369C209.236 232.529 208.61 232.571 207.906 232.497C207.202 232.423 206.599 232.251 206.096 231.981C205.606 231.713 205.206 231.387 204.896 231.005C204.598 230.623 204.388 230.209 204.266 229.762C204.146 229.303 204.108 228.853 204.155 228.411C204.194 228.041 204.298 227.678 204.468 227.322C204.639 226.966 204.859 226.651 205.129 226.378C205.4 226.092 205.719 225.873 206.085 225.718C206.464 225.553 206.876 225.481 207.32 225.504L207.329 225.414ZM208.659 225.337C208.957 225.368 209.249 225.351 209.533 225.284C209.831 225.207 210.098 225.078 210.334 224.898C210.583 224.707 210.789 224.469 210.952 224.184C211.116 223.888 211.22 223.531 211.264 223.113C211.316 222.612 211.276 222.191 211.143 221.851C211.023 221.501 210.853 221.224 210.633 221.02C210.414 220.804 210.172 220.645 209.905 220.545C209.651 220.434 209.411 220.366 209.184 220.342C208.957 220.319 208.708 220.335 208.437 220.391C208.167 220.435 207.902 220.54 207.643 220.705C207.398 220.861 207.18 221.097 206.99 221.415C206.801 221.721 206.68 222.124 206.627 222.626C206.583 223.043 206.611 223.414 206.709 223.738C206.809 224.051 206.955 224.325 207.148 224.563C207.341 224.788 207.569 224.969 207.833 225.105C208.097 225.23 208.372 225.307 208.659 225.337ZM208.593 225.963C208.235 225.926 207.899 225.963 207.586 226.075C207.274 226.175 206.997 226.339 206.756 226.567C206.528 226.784 206.337 227.054 206.182 227.375C206.041 227.686 205.95 228.033 205.91 228.414C205.812 229.345 205.949 230.108 206.321 230.702C206.705 231.297 207.261 231.633 207.989 231.71C208.741 231.789 209.366 231.577 209.866 231.074C210.365 230.572 210.664 229.855 210.761 228.924C210.802 228.542 210.779 228.184 210.693 227.849C210.621 227.504 210.49 227.201 210.3 226.939C210.112 226.666 209.869 226.448 209.573 226.284C209.29 226.109 208.963 226.002 208.593 225.963ZM218.796 226.62C218.383 226.528 218.031 226.37 217.741 226.147C217.463 225.924 217.23 225.671 217.043 225.386C216.869 225.09 216.745 224.781 216.67 224.459C216.607 224.139 216.592 223.824 216.624 223.514C216.66 223.179 216.762 222.834 216.932 222.478C217.102 222.122 217.353 221.804 217.684 221.525C218.015 221.246 218.43 221.031 218.929 220.878C219.427 220.725 220.029 220.686 220.733 220.76C221.425 220.833 221.999 220.996 222.455 221.249C222.923 221.503 223.29 221.801 223.556 222.143C223.821 222.484 224 222.847 224.093 223.231C224.197 223.616 224.232 223.975 224.197 224.309C224.164 224.62 224.078 224.924 223.938 225.223C223.81 225.524 223.624 225.8 223.38 226.052C223.15 226.293 222.869 226.493 222.539 226.651C222.22 226.811 221.856 226.893 221.445 226.898L221.436 226.987C221.875 227.058 222.257 227.213 222.581 227.452C222.919 227.68 223.191 227.962 223.397 228.298C223.617 228.622 223.772 228.977 223.865 229.36C223.957 229.744 223.984 230.121 223.945 230.491C223.899 230.933 223.763 231.365 223.537 231.787C223.325 232.2 223.028 232.56 222.645 232.87C222.263 233.18 221.798 233.415 221.25 233.574C220.702 233.734 220.077 233.777 219.372 233.703C218.668 233.629 218.065 233.457 217.562 233.187C217.072 232.918 216.672 232.592 216.362 232.21C216.064 231.829 215.854 231.414 215.732 230.967C215.612 230.508 215.575 230.058 215.621 229.616C215.66 229.246 215.764 228.883 215.935 228.527C216.105 228.171 216.325 227.856 216.595 227.583C216.866 227.298 217.185 227.078 217.551 226.923C217.93 226.758 218.342 226.686 218.786 226.709L218.796 226.62ZM220.125 226.542C220.423 226.573 220.715 226.556 220.999 226.489C221.297 226.412 221.564 226.283 221.8 226.103C222.049 225.912 222.255 225.674 222.418 225.389C222.582 225.093 222.686 224.736 222.73 224.318C222.782 223.817 222.742 223.396 222.609 223.057C222.489 222.706 222.319 222.429 222.099 222.225C221.88 222.009 221.638 221.85 221.371 221.75C221.117 221.639 220.877 221.571 220.65 221.548C220.423 221.524 220.174 221.54 219.903 221.596C219.633 221.64 219.368 221.745 219.11 221.911C218.864 222.066 218.646 222.302 218.456 222.62C218.267 222.926 218.146 223.33 218.093 223.831C218.049 224.249 218.077 224.619 218.175 224.944C218.275 225.256 218.421 225.53 218.614 225.768C218.807 225.993 219.035 226.174 219.299 226.31C219.563 226.435 219.839 226.512 220.125 226.542ZM220.059 227.169C219.701 227.131 219.365 227.168 219.052 227.28C218.74 227.38 218.463 227.544 218.222 227.772C217.994 227.989 217.803 228.259 217.648 228.58C217.507 228.891 217.416 229.238 217.376 229.62C217.278 230.55 217.415 231.313 217.787 231.907C218.171 232.502 218.727 232.838 219.455 232.915C220.207 232.994 220.833 232.782 221.332 232.28C221.831 231.777 222.13 231.06 222.228 230.129C222.268 229.748 222.245 229.389 222.16 229.054C222.087 228.709 221.956 228.406 221.767 228.144C221.578 227.871 221.336 227.653 221.039 227.489C220.756 227.314 220.429 227.207 220.059 227.169ZM235.539 224.452L234.036 224.294C234.008 223.869 233.845 223.526 233.546 223.265C233.249 222.992 232.874 222.832 232.42 222.785C231.824 222.722 231.32 222.808 230.909 223.042C230.498 223.276 230.159 223.633 229.892 224.112C229.626 224.578 229.414 225.153 229.258 225.837C229.114 226.522 228.998 227.282 228.91 228.117L228.981 228.124L229.239 227.735C229.485 227.351 229.844 227.033 230.317 226.781C230.802 226.53 231.414 226.444 232.154 226.521C232.596 226.568 233.029 226.698 233.453 226.911C233.89 227.114 234.27 227.401 234.593 227.773C234.916 228.145 235.164 228.599 235.336 229.136C235.509 229.673 235.558 230.3 235.483 231.016C235.42 231.613 235.26 232.163 235.002 232.667C234.744 233.17 234.415 233.6 234.015 233.957C233.616 234.313 233.154 234.578 232.629 234.752C232.104 234.926 231.537 234.981 230.928 234.917C230.045 234.824 229.344 234.552 228.824 234.099C228.316 233.647 227.94 233.095 227.695 232.442C227.462 231.79 227.332 231.076 227.305 230.301C227.279 229.514 227.306 228.739 227.386 227.975C227.472 227.163 227.633 226.378 227.869 225.618C228.118 224.86 228.453 224.202 228.873 223.643C229.307 223.073 229.829 222.639 230.44 222.341C231.052 222.031 231.769 221.92 232.593 222.006C232.987 222.048 233.358 222.129 233.707 222.25C234.057 222.371 234.366 222.531 234.634 222.728C234.903 222.925 235.119 223.171 235.281 223.465C235.444 223.748 235.53 224.077 235.539 224.452ZM228.846 230.445C228.782 231.054 228.805 231.581 228.915 232.027C229.025 232.473 229.184 232.852 229.393 233.163C229.603 233.463 229.85 233.694 230.135 233.856C230.432 234.008 230.724 234.099 231.011 234.129C231.238 234.153 231.493 234.138 231.776 234.083C232.071 234.03 232.357 233.891 232.634 233.667C232.911 233.442 233.156 233.118 233.37 232.694C233.585 232.258 233.73 231.682 233.805 230.966C233.874 230.31 233.854 229.753 233.745 229.295C233.648 228.838 233.494 228.466 233.283 228.178C233.072 227.891 232.829 227.678 232.554 227.541C232.279 227.403 232.01 227.321 231.747 227.293C231.449 227.262 231.144 227.296 230.832 227.396C230.521 227.484 230.226 227.652 229.946 227.9C229.68 228.138 229.446 228.469 229.244 228.894C229.044 229.307 228.911 229.824 228.846 230.445Z" fill="#FCFCFC"/>
<path d="M362.867 218.803C362.9 218.496 362.958 218.142 363.043 217.744C363.139 217.336 363.263 216.925 363.414 216.512C363.576 216.089 363.769 215.68 363.993 215.286C364.228 214.892 364.499 214.551 364.809 214.261C365.119 213.961 365.476 213.731 365.879 213.569C366.282 213.408 366.738 213.354 367.247 213.408C367.756 213.461 368.191 213.609 368.552 213.85C368.923 214.093 369.23 214.393 369.471 214.751C369.724 215.1 369.924 215.491 370.072 215.925C370.219 216.358 370.323 216.798 370.383 217.244C370.455 217.681 370.491 218.108 370.49 218.527C370.501 218.935 370.49 219.293 370.457 219.601C370.387 220.269 370.242 220.935 370.022 221.598C369.804 222.251 369.506 222.837 369.13 223.355C368.764 223.874 368.319 224.283 367.794 224.582C367.281 224.871 366.696 224.981 366.038 224.912C365.38 224.843 364.831 224.614 364.389 224.224C363.959 223.825 363.619 223.333 363.37 222.749C363.12 222.165 362.956 221.531 362.878 220.848C362.8 220.153 362.797 219.472 362.867 218.803ZM364.458 218.971C364.402 219.512 364.363 220.081 364.343 220.68C364.323 221.278 364.362 221.829 364.459 222.333C364.567 222.838 364.747 223.264 365 223.613C365.253 223.961 365.624 224.161 366.112 224.212C366.61 224.264 367.025 224.147 367.355 223.86C367.686 223.573 367.951 223.193 368.151 222.721C368.361 222.25 368.519 221.719 368.624 221.13C368.728 220.54 368.809 219.975 368.866 219.434C368.924 218.882 368.964 218.302 368.985 217.693C369.006 217.084 368.963 216.527 368.855 216.022C368.759 215.508 368.579 215.076 368.315 214.726C368.053 214.366 367.672 214.16 367.174 214.108C366.686 214.056 366.281 214.18 365.96 214.479C365.64 214.767 365.375 215.152 365.163 215.634C364.963 216.106 364.81 216.643 364.704 217.243C364.598 217.843 364.516 218.419 364.458 218.971ZM375.319 219.372C375.542 219.395 375.799 219.401 376.089 219.389C376.392 219.367 376.678 219.295 376.949 219.173C377.231 219.042 377.471 218.842 377.671 218.573C377.882 218.306 378.011 217.939 378.061 217.472C378.091 217.186 378.077 216.911 378.019 216.647C377.972 216.374 377.875 216.128 377.726 215.909C377.589 215.68 377.4 215.494 377.157 215.35C376.916 215.196 376.621 215.101 376.27 215.064C376.048 215.04 375.833 215.045 375.626 215.076C375.418 215.108 375.228 215.19 375.053 215.322C374.879 215.443 374.726 215.625 374.593 215.869C374.46 216.112 374.352 216.428 374.268 216.816L372.852 216.667C372.893 216.382 372.982 216.091 373.121 215.795C373.271 215.489 373.487 215.222 373.768 214.994C374.051 214.755 374.407 214.578 374.837 214.463C375.269 214.336 375.798 214.306 376.424 214.372C376.996 214.432 377.481 214.569 377.877 214.782C378.284 214.986 378.606 215.24 378.842 215.543C379.09 215.837 379.259 216.172 379.348 216.546C379.438 216.92 379.462 217.303 379.421 217.695C379.363 218.247 379.167 218.682 378.833 219.001C378.5 219.309 378.018 219.559 377.387 219.75L377.205 219.795L377.193 219.907L377.365 219.957C377.709 220.047 378.01 220.196 378.267 220.406C378.525 220.604 378.736 220.841 378.9 221.116C379.076 221.381 379.201 221.673 379.275 221.992C379.35 222.3 379.371 222.603 379.34 222.9C379.296 223.324 379.167 223.729 378.955 224.114C378.754 224.5 378.472 224.835 378.109 225.119C377.748 225.392 377.308 225.598 376.79 225.737C376.282 225.876 375.699 225.911 375.041 225.842C374.573 225.804 374.14 225.694 373.74 225.513C373.341 225.331 372.995 225.102 372.703 224.824C372.422 224.537 372.203 224.219 372.047 223.871C371.901 223.523 371.847 223.168 371.885 222.808L373.476 222.975C373.46 223.231 373.487 223.486 373.557 223.74C373.637 223.995 373.753 224.221 373.904 224.42C374.065 224.619 374.261 224.79 374.493 224.932C374.726 225.064 374.996 225.146 375.304 225.178C375.94 225.245 376.477 225.087 376.914 224.704C377.362 224.322 377.633 223.685 377.726 222.794C377.746 222.603 377.75 222.368 377.736 222.087C377.723 221.807 377.639 221.53 377.486 221.257C377.344 220.974 377.097 220.722 376.744 220.503C376.392 220.284 375.892 220.14 375.245 220.072L375.319 219.372ZM388.886 215.682L381.518 226.555L380.42 226.44L387.757 215.563L388.886 215.682ZM392.661 221.195C392.884 221.218 393.14 221.224 393.431 221.211C393.734 221.189 394.02 221.118 394.291 220.996C394.573 220.865 394.813 220.665 395.013 220.396C395.224 220.129 395.353 219.762 395.402 219.295C395.433 219.008 395.419 218.733 395.36 218.47C395.314 218.197 395.217 217.951 395.068 217.731C394.931 217.502 394.742 217.316 394.499 217.173C394.258 217.019 393.962 216.923 393.612 216.887C393.39 216.863 393.175 216.867 392.968 216.899C392.76 216.931 392.569 217.013 392.395 217.145C392.221 217.266 392.068 217.448 391.935 217.692C391.802 217.935 391.694 218.251 391.61 218.639L390.194 218.49C390.235 218.205 390.324 217.914 390.463 217.617C390.613 217.311 390.829 217.044 391.11 216.817C391.392 216.578 391.749 216.401 392.179 216.285C392.611 216.159 393.14 216.129 393.766 216.195C394.338 216.255 394.823 216.392 395.219 216.605C395.626 216.809 395.948 217.062 396.184 217.366C396.432 217.66 396.601 217.994 396.69 218.368C396.78 218.742 396.804 219.126 396.763 219.518C396.705 220.07 396.509 220.505 396.175 220.824C395.842 221.132 395.36 221.382 394.729 221.573L394.547 221.618L394.535 221.729L394.707 221.78C395.051 221.87 395.352 222.019 395.609 222.228C395.867 222.427 396.078 222.664 396.242 222.939C396.418 223.204 396.543 223.496 396.617 223.814C396.692 224.123 396.713 224.425 396.682 224.722C396.638 225.147 396.509 225.551 396.297 225.937C396.096 226.323 395.814 226.658 395.451 226.942C395.09 227.215 394.65 227.421 394.132 227.559C393.624 227.699 393.041 227.734 392.383 227.665C391.915 227.627 391.482 227.517 391.082 227.335C390.683 227.154 390.337 226.924 390.045 226.647C389.764 226.36 389.545 226.042 389.389 225.693C389.243 225.345 389.189 224.991 389.227 224.631L390.818 224.798C390.802 225.053 390.829 225.308 390.899 225.562C390.979 225.818 391.095 226.044 391.245 226.242C391.407 226.442 391.603 226.612 391.835 226.755C392.068 226.887 392.338 226.969 392.646 227.001C393.282 227.068 393.819 226.91 394.256 226.527C394.704 226.145 394.975 225.508 395.068 224.617C395.088 224.426 395.092 224.19 395.078 223.91C395.065 223.63 394.981 223.353 394.828 223.079C394.686 222.796 394.439 222.545 394.086 222.326C393.734 222.106 393.234 221.963 392.587 221.895L392.661 221.195ZM398.841 222.584C398.873 222.277 398.932 221.923 399.017 221.525C399.113 221.117 399.237 220.706 399.387 220.293C399.55 219.87 399.743 219.461 399.967 219.067C400.201 218.673 400.473 218.332 400.782 218.042C401.093 217.742 401.449 217.512 401.853 217.35C402.256 217.189 402.712 217.135 403.221 217.189C403.73 217.242 404.165 217.39 404.526 217.631C404.897 217.874 405.203 218.174 405.445 218.532C405.698 218.881 405.898 219.272 406.045 219.706C406.193 220.139 406.297 220.579 406.357 221.025C406.429 221.462 406.465 221.889 406.464 222.308C406.474 222.716 406.464 223.074 406.431 223.382C406.361 224.05 406.216 224.716 405.996 225.379C405.777 226.032 405.48 226.618 405.104 227.136C404.738 227.655 404.293 228.064 403.768 228.363C403.255 228.652 402.67 228.762 402.012 228.693C401.354 228.624 400.804 228.395 400.363 228.005C399.933 227.606 399.593 227.114 399.343 226.53C399.094 225.946 398.93 225.312 398.851 224.629C398.774 223.934 398.771 223.253 398.841 222.584ZM400.432 222.751C400.375 223.293 400.337 223.862 400.317 224.461C400.297 225.059 400.336 225.61 400.433 226.114C400.541 226.619 400.721 227.045 400.974 227.394C401.227 227.742 401.597 227.942 402.085 227.993C402.584 228.045 402.999 227.928 403.329 227.641C403.659 227.354 403.925 226.974 404.124 226.502C404.335 226.031 404.492 225.5 404.597 224.911C404.702 224.321 404.783 223.756 404.84 223.215C404.898 222.663 404.937 222.083 404.959 221.474C404.98 220.865 404.936 220.308 404.829 219.803C404.732 219.289 404.553 218.857 404.289 218.507C404.027 218.147 403.646 217.941 403.147 217.889C402.659 217.837 402.255 217.961 401.934 218.26C401.614 218.548 401.348 218.933 401.137 219.415C400.937 219.887 400.784 220.424 400.678 221.024C400.572 221.624 400.49 222.2 400.432 222.751Z" fill="#FCFCFC"/>
<g clip-path="url(#clip0_685_4064)">
<path d="M393.715 63.2395L389.339 79.9157L393.489 80.3518L397.867 63.6758L393.715 63.2395Z" fill="#FCFCFC"/>
<path d="M387.64 62.6205L382.361 73.752L382.111 71.9612C381.53 69.7741 379.572 66.5148 377.101 64.3308L379.332 78.8558L383.723 79.3089L392.036 63.0789L387.64 62.6205Z" fill="#FCFCFC"/>
<path d="M381.44 63.1951C381.307 62.1373 380.64 61.7561 379.776 61.6281L373.343 60.9519L373.254 61.2837C378.119 63.1619 381.089 66.7678 382.052 70.8293L381.44 63.1951Z" fill="#FCFCFC"/>
<path d="M405.935 67.8091C407.295 67.928 408.245 68.3617 408.973 68.7842L409.327 69.0196L410.274 65.4051C409.489 64.9754 408.239 64.4717 406.632 64.3028C402.531 63.8718 399.4 65.867 399.031 69.1591C398.748 71.5906 400.691 73.169 402.181 74.146C403.71 75.1476 404.197 75.7332 404.112 76.475C403.979 77.6082 402.648 77.9945 401.456 77.8692C399.795 77.6945 398.939 77.3463 397.642 76.571L397.136 76.2439L396.154 79.9761C397.075 80.5522 398.824 81.148 400.682 81.3649C405.044 81.8234 408.117 79.8497 408.517 76.3326C408.738 74.4087 407.785 72.8227 405.514 71.3648C404.145 70.4257 403.312 69.8097 403.404 69.0169C403.478 68.3124 404.311 67.6384 405.935 67.8091Z" fill="#FCFCFC"/>
<path d="M420.965 66.1232L417.759 65.7862C416.764 65.6816 415.991 65.9055 415.438 66.9644L407.644 81.8496L412.001 82.3076C412.001 82.3076 412.932 80.2937 413.141 79.8532C413.618 79.9033 417.851 80.3554 418.454 80.4188C418.516 81.0235 418.693 83.0109 418.693 83.0109L422.543 83.4155L420.965 66.1232ZM414.7 76.5096C415.144 75.5724 416.851 71.9465 416.851 71.9465C416.824 71.9905 417.292 71.0019 417.574 70.3865L417.7 71.8772C417.7 71.8772 418.07 76.0073 418.147 76.8719L414.7 76.5096Z" fill="#FCFCFC"/>
</g>
<path d="M51.8754 35.3262C50.7358 35.2064 49.7055 36.0408 49.5857 37.1803C49.4659 38.3199 50.3003 39.3502 51.4399 39.47C52.5794 39.5898 53.6098 38.7554 53.7295 37.6159C53.8493 36.4763 53.0149 35.4459 51.8754 35.3262ZM64.3069 36.6328C63.1674 36.513 62.137 37.3474 62.0172 38.4869C61.8975 39.6265 62.7318 40.6568 63.8714 40.7766C65.0109 40.8964 66.0413 40.062 66.1611 38.9225C66.2808 37.7829 65.4465 36.7525 64.3069 36.6328ZM58.0911 35.9795C56.9516 35.8597 55.9212 36.6941 55.8015 37.8336C55.6817 38.9732 56.5161 40.0035 57.6556 40.1233C58.7952 40.2431 59.8255 39.4087 59.9453 38.2692C60.0651 37.1296 59.2307 36.0992 58.0911 35.9795Z" fill="#FCFCFC"/>
<rect x="36.1787" y="121.411" width="33" height="22" rx="5" transform="rotate(6.18429 36.1787 121.411)" fill="url(#paint1_radial_685_4064)"/>
<path fill-rule="evenodd" clip-rule="evenodd" d="M52.5589 123.407L48.2942 128.728C48.2942 128.728 49.2104 133.887 47.2878 138.016L50.2363 144.841L54.5784 138.806C54.5784 138.806 53.5074 135.075 55.5849 129.518C55.5849 129.518 52.5589 123.407 52.5589 123.407Z" stroke="#C7C7B6" stroke-width="1.3" stroke-linejoin="bevel"/>
<path d="M35.5071 127.608L48.2658 128.99" stroke="#C7C7B6" stroke-width="1.3" stroke-linejoin="bevel"/>
<path d="M55.1917 129.741L68.3149 131.163" stroke="#C7C7B6" stroke-width="1.3" stroke-linejoin="bevel"/>
<path d="M34.5594 136.356L47.318 137.738" stroke="#C7C7B6" stroke-width="1.3" stroke-linejoin="bevel"/>
<path d="M54.2437 138.489L67.3669 139.911" stroke="#C7C7B6" stroke-width="1.3" stroke-linejoin="bevel"/>
<g clip-path="url(#clip1_685_4064)">
<path d="M412.904 170.852C412.821 168.831 412.418 166.977 411.717 165.09C411.562 164.671 411.317 164.142 411.228 164.031C410.963 163.701 410.465 163.647 410.146 163.814C409.936 163.891 409.595 164.257 409.562 164.555C409.552 164.654 409.697 165.173 409.941 165.702C410.865 168.317 411.136 170.459 410.855 173.044C410.554 175.827 409.71 178.049 408.258 180.306C407.895 180.87 407.774 181.058 407.852 181.268C407.919 181.577 408.174 182.007 408.462 182.139C408.561 182.15 408.76 182.171 408.76 182.171C408.76 182.171 408.859 182.182 408.959 182.193C409.257 182.225 409.598 181.86 410.214 180.82C411.303 179.127 411.994 177.392 412.518 175.336C412.725 174.353 412.874 172.055 412.904 170.852Z" fill="white"/>
<path d="M408.513 168.666C408.323 167.64 407.711 165.863 407.434 165.632C407.069 165.291 406.373 165.215 406.031 165.581C405.69 165.946 405.668 166.145 406.047 167.292C406.67 168.969 406.85 170.095 406.865 171.807C406.838 173.916 406.214 175.961 405.004 177.841C404.752 178.317 404.51 178.693 404.4 178.782C404.257 179.169 404.491 179.798 404.977 179.951C405.651 180.225 406.202 179.782 406.971 178.256C408.697 175.325 409.262 171.966 408.513 168.666Z" fill="white"/>
<path d="M403.086 166.771C402.788 166.738 402.688 166.728 402.457 167.004C402.016 167.359 401.995 167.558 402.373 168.705C403.308 171.221 403.049 173.607 401.587 175.963C401.213 176.626 401.092 176.814 401.071 177.013C401.138 177.322 401.304 177.642 401.592 177.774C401.691 177.785 401.879 177.906 402.078 177.927C402.487 177.871 402.806 177.704 403.301 176.853C404.269 175.348 404.586 174.276 404.769 172.586C404.942 170.995 404.783 169.671 404.249 168.104C403.86 167.056 403.583 166.825 403.086 166.771Z" fill="white"/>
<path d="M399.324 168.073C398.816 168.118 398.354 168.672 398.41 169.08C398.399 169.179 398.566 169.499 398.633 169.808C398.955 170.547 399.011 170.956 398.914 171.851C398.818 172.745 398.675 173.132 398.202 173.785C397.839 174.349 397.718 174.537 397.785 174.846C397.852 175.155 398.019 175.475 398.306 175.607C398.782 175.86 399.3 175.715 399.774 175.062C401.16 173.402 401.43 170.916 400.431 168.997C400.098 168.358 399.821 168.127 399.324 168.073Z" fill="white"/>
</g>
<defs>
<linearGradient id="paint0_linear_685_4064" x1="26.2" y1="121.011" x2="452.2" y2="121.011" gradientUnits="userSpaceOnUse">
<stop stop-color="#29323C"/>
<stop offset="1" stop-color="#485563"/>
</linearGradient>
<radialGradient id="paint1_radial_685_4064" cx="0" cy="0" r="1" gradientUnits="userSpaceOnUse" gradientTransform="translate(55.129 129.425) rotate(141.302) scale(22.37 22.2003)">
<stop stop-color="white"/>
<stop offset="1" stop-color="#DDDCDA"/>
</radialGradient>
<clipPath id="clip0_685_4064">
<rect width="51.4286" height="20" fill="white" transform="translate(373.431 59.6025) rotate(6)"/>
</clipPath>
<clipPath id="clip1_685_4064">
<rect width="14.7789" height="18.5394" fill="white" transform="translate(399.088 162.476) rotate(6.18429)"/>
</clipPath>
</defs>
</svg>
