<svg width="26" height="27" viewBox="0 0 26 27" fill="none" xmlns="http://www.w3.org/2000/svg">
<path d="M17.7042 10.2101C17.5738 10.2604 17.4547 10.336 17.3538 10.4325C17.2528 10.5291 17.1719 10.6447 17.1158 10.7726C17.0597 10.9006 17.0295 11.0384 17.0269 11.1781C17.0243 11.3178 17.0493 11.4566 17.1006 11.5866C17.4495 12.4917 17.4771 13.4892 17.1788 14.4123C16.8804 15.3353 16.2743 16.128 15.4617 16.6578C14.649 17.1876 13.6791 17.4223 12.7142 17.3228C11.7492 17.2233 10.8477 16.7956 10.1603 16.1111C9.47283 15.4267 9.04119 14.527 8.9375 13.5625C8.83381 12.598 9.06436 11.6271 9.59061 10.8122C10.1169 9.99723 10.9069 9.38765 11.8287 9.08533C12.7504 8.783 13.748 8.80626 14.6547 9.1512C14.9173 9.2509 15.2087 9.2422 15.4648 9.12703C15.721 9.01186 15.9209 8.79964 16.0206 8.53707C16.1203 8.2745 16.1116 7.98309 15.9964 7.72693C15.8812 7.47077 15.669 7.27085 15.4065 7.17116C14.0481 6.65734 12.5547 6.62443 11.175 7.0779C9.79534 7.53138 8.61268 8.44386 7.82403 9.66336C7.03537 10.8829 6.68835 12.3358 6.84075 13.78C6.99316 15.2243 7.63579 16.5728 8.66161 17.6008C9.85282 18.7905 11.4676 19.4588 13.1511 19.4588C14.8347 19.4588 16.4494 18.7905 17.6406 17.6008C18.5128 16.7309 19.1133 15.6262 19.369 14.4211C19.6247 13.2161 19.5245 11.9627 19.0807 10.8136C19.0303 10.6833 18.9547 10.5642 18.8582 10.4632C18.7616 10.3622 18.646 10.2813 18.5181 10.2252C18.3901 10.1691 18.2523 10.1389 18.1126 10.1363C17.9729 10.1337 17.8341 10.1588 17.7042 10.2101Z" fill="white"/>
<path d="M20.4041 6.69533C20.9888 6.69533 21.4629 6.22127 21.4629 5.63648C21.4629 5.0517 20.9888 4.57764 20.4041 4.57764C19.8193 4.57764 19.3452 5.0517 19.3452 5.63648C19.3452 6.22127 19.8193 6.69533 20.4041 6.69533Z" fill="white"/>
<path d="M25.6982 5.6362C25.6985 4.25023 25.1553 2.91943 24.1852 1.92955C23.2151 0.939681 21.8956 0.369684 20.5099 0.341964C15.5437 -0.113988 10.5463 -0.113988 5.58014 0.341964C4.19057 0.341787 2.85665 0.887927 1.86618 1.86254C0.875723 2.83716 0.308139 4.1621 0.285906 5.55149C-0.0953021 10.5137 -0.0953021 15.4978 0.285906 20.46C0.285629 21.846 0.828854 23.1768 1.79893 24.1667C2.769 25.1566 4.08857 25.7266 5.47425 25.7543C7.97313 25.9872 10.4826 26.1143 12.9921 26.1143C15.5015 26.1143 17.9792 25.9978 20.4569 25.7543C21.8373 25.7406 23.1578 25.1884 24.1369 24.2153C25.1159 23.2421 25.6762 21.925 25.6982 20.5448C26.1006 15.5834 26.1006 10.5976 25.6982 5.6362ZM23.5805 20.46C23.5805 21.3025 23.2459 22.1105 22.6501 22.7062C22.0544 23.3019 21.2465 23.6366 20.404 23.6366H20.2981C15.4037 24.1131 10.4746 24.1131 5.58014 23.6366C5.15576 23.6367 4.73566 23.5519 4.34464 23.3869C3.95362 23.222 3.5996 22.9805 3.3035 22.6765C3.0074 22.3725 2.77521 22.0122 2.62065 21.617C2.46608 21.2218 2.39228 20.7996 2.4036 20.3753C2.033 15.4693 2.033 10.5423 2.4036 5.6362C2.40341 5.21091 2.48862 4.78991 2.65418 4.39817C2.81974 4.00642 3.06228 3.65192 3.36742 3.35567C3.67256 3.05942 4.03408 2.82746 4.43054 2.67355C4.827 2.51963 5.25034 2.4469 5.67543 2.45966C8.10372 2.24083 10.5391 2.12789 12.9815 2.12083C15.4239 2.11377 17.8981 2.22671 20.404 2.45966C20.8284 2.45951 21.2485 2.54439 21.6395 2.7093C22.0305 2.8742 22.3845 3.11579 22.6806 3.41979C22.9767 3.72379 23.2089 4.08404 23.3635 4.47927C23.518 4.87449 23.5918 5.29668 23.5805 5.7209C23.9829 10.6257 23.9829 15.5552 23.5805 20.46Z" fill="white"/>
</svg>
