<svg width="26" height="25" viewBox="0 0 26 25" fill="none" xmlns="http://www.w3.org/2000/svg">
<path d="M20.8 24.6071V14.3929C20.8 14.3929 20.2429 12.2571 18.2 12.35C16.1571 12.4429 15.5071 12.7679 14.5786 13.8821V24.6071H9.33214V8.40357H14.5321V10.7714C14.5321 10.7714 16.2036 7.475 19.7321 7.70714C22.9357 7.93929 25.35 9.88929 25.8607 14.1607H26V24.6071H20.8ZM3.11071 6.31429C1.39286 6.31429 0 4.92143 0 3.15714C0 1.43929 1.39286 0 3.11071 0C4.82857 0 6.22143 1.39286 6.22143 3.15714C6.22143 4.875 4.82857 6.31429 3.11071 6.31429ZM5.71071 24.6071H0.510714V8.40357H5.71071V24.6071Z" fill="white"/>
</svg>
