<svg width="599" height="784" viewBox="0 0 599 784" fill="none" xmlns="http://www.w3.org/2000/svg">
<g filter="url(#filter0_bd_156_4)">
<path d="M37 92C37 58.8629 63.8629 32 97 32H379.93H393.332C420.763 32 443 54.3214 443 81.7523C443 109.09 465.162 131.336 492.5 131.336C519.838 131.336 542 153.498 542 180.836L542 662C542 695.137 515.137 722 482 722H97C63.8629 722 37 695.137 37 662V92Z" fill="url(#paint0_radial_156_4)" shape-rendering="crispEdges"/>
<path d="M97 31C63.3106 31 36 58.3106 36 92V662C36 695.689 63.3106 723 97 723H482C515.689 723 543 695.689 543 662L543 180.836C543 152.946 520.39 130.336 492.5 130.336C465.716 130.336 444 108.54 444 81.7523C444 53.7713 421.317 31 393.332 31H379.93H97Z" stroke="url(#paint1_linear_156_4)" stroke-width="2" shape-rendering="crispEdges"/>
</g>
<defs>
<filter id="filter0_bd_156_4" x="0" y="0" width="599" height="784" filterUnits="userSpaceOnUse" color-interpolation-filters="sRGB">
<feFlood flood-opacity="0" result="BackgroundImageFix"/>
<feGaussianBlur in="BackgroundImageFix" stdDeviation="10"/>
<feComposite in2="SourceAlpha" operator="in" result="effect1_backgroundBlur_156_4"/>
<feColorMatrix in="SourceAlpha" type="matrix" values="0 0 0 0 0 0 0 0 0 0 0 0 0 0 0 0 0 0 127 0" result="hardAlpha"/>
<feOffset dx="10" dy="15"/>
<feGaussianBlur stdDeviation="22.5"/>
<feComposite in2="hardAlpha" operator="out"/>
<feColorMatrix type="matrix" values="0 0 0 0 1 0 0 0 0 1 0 0 0 0 1 0 0 0 0.03 0"/>
<feBlend mode="normal" in2="effect1_backgroundBlur_156_4" result="effect2_dropShadow_156_4"/>
<feBlend mode="normal" in="SourceGraphic" in2="effect2_dropShadow_156_4" result="shape"/>
</filter>
<radialGradient id="paint0_radial_156_4" cx="0" cy="0" r="1" gradientUnits="userSpaceOnUse" gradientTransform="translate(542 32) rotate(134.549) scale(359.221 217.883)">
<stop stop-color="#FF0000" stop-opacity="0.2"/>
<stop offset="0.0001" stop-color="#EA0000" stop-opacity="0.2"/>
<stop offset="1" stop-color="white" stop-opacity="0.05"/>
</radialGradient>
<linearGradient id="paint1_linear_156_4" x1="37" y1="32" x2="691.631" y2="231.839" gradientUnits="userSpaceOnUse">
<stop stop-color="#3D444D"/>
<stop offset="0.603788" stop-color="#3D444D"/>
<stop offset="1" stop-color="#3D444D" stop-opacity="0.15"/>
</linearGradient>
</defs>
</svg>
