<svg width="20" height="7" viewBox="0 0 20 7" fill="none" xmlns="http://www.w3.org/2000/svg">
<g clip-path="url(#clip0_881_3038)">
<path d="M19.9331 1.84896C19.7508 1.32975 19.256 0.957031 18.6766 0.957031H18.6636C18.286 0.957031 17.9458 1.11491 17.7033 1.36719C17.4608 1.11491 17.1206 0.957031 16.743 0.957031H16.7316C16.3996 0.957031 16.0952 1.0791 15.8625 1.2793V1.17839C15.8543 1.07585 15.7713 0.996094 15.6672 0.996094H14.7752C14.6662 0.996094 14.5783 1.08398 14.5783 1.19303V6.03353C14.5783 6.14258 14.6662 6.23047 14.7752 6.23047H15.6672C15.7664 6.23047 15.8494 6.1556 15.8608 6.0612V2.58626C15.8608 2.57324 15.8608 2.56348 15.8625 2.55208C15.8771 2.39746 15.991 2.26888 16.1701 2.25423H16.3345C16.4093 2.26074 16.4728 2.28678 16.5216 2.32747C16.5998 2.38932 16.6421 2.48372 16.6421 2.58789L16.6453 6.04492C16.6453 6.15397 16.7332 6.24349 16.8423 6.24349H17.7342C17.84 6.24349 17.9246 6.16048 17.9295 6.05631V2.58464C17.9295 2.4707 17.9816 2.36654 18.0744 2.30632C18.12 2.27702 18.1753 2.25749 18.2388 2.25098H18.4032C18.5968 2.26725 18.7124 2.41374 18.7124 2.58464L18.7157 6.03841C18.7157 6.14746 18.8035 6.23535 18.9126 6.23535H19.8045C19.9087 6.23535 19.995 6.15397 20.0015 6.05143V2.264C19.9966 2.05078 19.9689 1.9515 19.9331 1.84896ZM13.8979 1.00911H13.3885V0.182292C13.3885 0.180664 13.3885 0.180664 13.3885 0.179036C13.3885 0.0813802 13.3088 0 13.2078 0C13.1965 0 13.1851 0.0016276 13.1737 0.00325521C12.6089 0.157878 12.7212 0.940755 11.6893 1.00749H11.59C11.5754 1.00749 11.5607 1.00911 11.5461 1.01237C11.4598 1.03353 11.3931 1.11165 11.3931 1.20605V2.09798C11.3931 2.20703 11.481 2.29492 11.59 2.29492H12.1271L12.1255 6.07422C12.1255 6.18164 12.2134 6.26953 12.3208 6.26953H13.203C13.3104 6.26953 13.3983 6.18164 13.3983 6.07422V2.29492H13.8979C14.0054 2.29492 14.0949 2.2054 14.0949 2.09798V1.20605C14.0949 1.09701 14.007 1.00911 13.8979 1.00911Z" fill="#00BAF2"/>
<path d="M10.6917 1.00944H9.7998C9.69238 1.00944 9.60286 1.09733 9.60286 1.20638V3.05046C9.60124 3.16439 9.50846 3.25553 9.39453 3.25553H9.02181C8.90625 3.25553 8.81185 3.16276 8.81185 3.0472L8.80859 1.20638C8.80859 1.09733 8.7207 1.00944 8.61165 1.00944H7.71973C7.61068 1.00944 7.52279 1.09733 7.52279 1.20638V3.22624C7.52279 3.99284 8.06966 4.54134 8.83789 4.54134C8.83789 4.54134 9.41406 4.54134 9.43197 4.5446C9.53613 4.55599 9.61588 4.64388 9.61588 4.7513C9.61588 4.8571 9.53776 4.94499 9.43359 4.95801C9.42871 4.95801 9.42383 4.95964 9.41894 4.96126L8.11523 4.96615C8.00618 4.96615 7.91829 5.05404 7.91829 5.16309V6.05338C7.91829 6.16243 8.00618 6.25033 8.11523 6.25033H9.57194C10.3402 6.25033 10.887 5.70345 10.887 4.93685V1.20638C10.8887 1.09733 10.8008 1.00944 10.6917 1.00944ZM5.62012 1.01432H4.38314C4.27409 1.01432 4.18457 1.09733 4.18457 1.19824V1.54492C4.18457 1.54655 4.18457 1.5498 4.18457 1.55143C4.18457 1.55469 4.18457 1.55632 4.18457 1.55957V2.03483C4.18457 2.14225 4.27897 2.23177 4.39453 2.23177H5.57292C5.66569 2.24642 5.73893 2.31478 5.75033 2.42057V2.53613C5.74056 2.63704 5.66732 2.71029 5.5778 2.71842H4.99512C4.21875 2.71842 3.66699 3.23437 3.66699 3.95703V4.99381C3.66699 5.71322 4.14225 6.22428 4.91211 6.22428H6.52832C6.81803 6.22428 7.05404 6.00456 7.05404 5.73437V2.35221C7.05404 1.5319 6.63086 1.01432 5.62012 1.01432ZM5.76172 4.73503V4.875C5.76172 4.88639 5.76009 4.89779 5.75846 4.90755C5.75684 4.91732 5.75358 4.92708 5.75033 4.93685C5.72266 5.01497 5.64453 5.07194 5.55176 5.07194H5.18066C5.0651 5.07194 4.9707 4.98405 4.9707 4.875V4.70736C4.9707 4.70573 4.9707 4.70247 4.9707 4.70085V4.25325V4.11328V4.11165C4.9707 4.00423 5.0651 3.91634 5.18066 3.91634H5.55176C5.66732 3.91634 5.76172 4.00423 5.76172 4.11328V4.73503ZM2.14193 1.00781H0.193685C0.086263 1.00781 0 1.0957 0 1.2015V2.07552C0 2.07715 0 2.07878 0 2.0804C0 2.08529 0 2.08854 0 2.0918V6.04525C0 6.15267 0.0797526 6.24056 0.180664 6.24219H1.08887C1.19792 6.24219 1.28581 6.1543 1.28581 6.04525L1.28906 4.69108H2.14193C2.85482 4.69108 3.35286 4.19629 3.35286 3.47852V2.22201C3.35286 1.50586 2.85482 1.00781 2.14193 1.00781ZM2.0638 2.64193V3.19206C2.0638 3.30762 1.97103 3.40202 1.85547 3.40202H1.29069V2.30013H1.85547C1.97103 2.30013 2.0638 2.3929 2.0638 2.50846V2.64193Z" fill="#20336B"/>
</g>
<defs>
<clipPath id="clip0_881_3038">
<rect width="20" height="6.26953" fill="white"/>
</clipPath>
</defs>
</svg>
