<svg width="17" height="18" viewBox="0 0 17 18" fill="none" xmlns="http://www.w3.org/2000/svg">
<g clip-path="url(#clip0_881_3014)">
<path d="M16.7708 10.9535C17.8495 6.38555 15.0208 1.80811 10.4529 0.729474C5.88499 -0.34916 1.30755 2.47947 0.228918 7.0474C-0.849716 11.6153 1.97891 16.1928 6.54684 17.2714C11.1148 18.35 15.6922 15.5214 16.7708 10.9535Z" fill="#5F259F"/>
<path d="M12.3572 6.78235C12.3572 6.45006 12.0725 6.16501 11.7402 6.16501H10.6005L7.98951 3.17394C7.75197 2.88916 7.3722 2.79413 6.99242 2.88916L6.09029 3.17394C5.94778 3.22142 5.90027 3.41147 5.99526 3.5062L8.84409 6.21252H4.52367C4.38113 6.21252 4.28613 6.30752 4.28613 6.45006V6.9246C4.28613 7.25716 4.57118 7.54191 4.90345 7.54191H5.56801V9.82094C5.56801 11.5301 6.47013 12.527 7.98954 12.527C8.46408 12.527 8.84416 12.4794 9.31866 12.2897V13.8088C9.31866 14.2362 9.65123 14.5687 10.0785 14.5687H10.7431C10.8856 14.5687 11.0279 14.4262 11.0279 14.2836V7.4944H12.12C12.2625 7.4944 12.3572 7.3994 12.3572 7.25716V6.78235H12.3572ZM9.31866 10.8652C9.03391 11.0078 8.6541 11.0553 8.36935 11.0553C7.60947 11.0553 7.22969 10.6755 7.22969 9.82091V7.54188H9.31866V10.8652Z" fill="white"/>
</g>
<defs>
<clipPath id="clip0_881_3014">
<rect width="17" height="17" fill="white" transform="translate(0 0.5)"/>
</clipPath>
</defs>
</svg>
