<svg width="17" height="17" viewBox="0 0 17 17" fill="none" xmlns="http://www.w3.org/2000/svg">
<g clip-path="url(#clip0_881_3109)">
<path fill-rule="evenodd" clip-rule="evenodd" d="M14.672 0.227712H2.32857C1.76762 0.23336 1.23169 0.460704 0.837782 0.860109C0.44387 1.25951 0.22397 1.79854 0.22609 2.35951V14.6484C0.223932 15.2094 0.443825 15.7484 0.837754 16.1478C1.23168 16.5473 1.76765 16.7746 2.32862 16.7802H14.672C15.2337 16.7764 15.7708 16.5496 16.1653 16.1499C16.5598 15.7501 16.7795 15.21 16.7759 14.6484V2.35558C16.7795 1.7939 16.5599 1.25378 16.1654 0.85398C15.7708 0.454186 15.2337 0.227451 14.672 0.223633" fill="#9F1A45"/>
<path d="M14.6717 16.992H2.32828C1.70938 16.9882 1.11728 16.739 0.681897 16.2991C0.246511 15.8592 0.0033939 15.2646 0.00588412 14.6457V2.35555C0.00303701 1.73641 0.245996 1.14143 0.681421 0.701259C1.11685 0.261084 1.70915 0.0116834 2.32828 0.0078125H14.6717C15.2908 0.0116961 15.8831 0.261101 16.3185 0.701273C16.7539 1.14144 16.9969 1.73641 16.9941 2.35555V14.6443C16.9965 15.2632 16.7534 15.8578 16.318 16.2977C15.8827 16.7376 15.2906 16.9868 14.6717 16.9907M2.32828 0.446217C1.82541 0.450085 1.34462 0.653294 0.991401 1.01125C0.638185 1.36921 0.441404 1.85267 0.444241 2.35555V14.6443C0.441429 15.1472 0.638217 15.6306 0.991426 15.9886C1.34463 16.3466 1.82542 16.5498 2.32828 16.5537H14.6717C15.1745 16.5498 15.6553 16.3466 16.0085 15.9886C16.3617 15.6306 16.5585 15.1472 16.5557 14.6443V2.35555C16.5581 1.85279 16.3612 1.36954 16.0081 1.01166C15.655 0.653786 15.1744 0.450442 14.6717 0.446169L2.32828 0.446217Z" fill="#9F1A45"/>
<path fill-rule="evenodd" clip-rule="evenodd" d="M8.6026 3.65084C9.106 3.65872 9.59585 3.81519 10.0106 4.1006C10.4253 4.38601 10.7465 4.78762 10.9337 5.25498C11.1209 5.72234 11.1658 6.2346 11.0628 6.72741C10.9598 7.22021 10.7134 7.67159 10.3547 8.02481C9.99593 8.37804 9.54079 8.61737 9.04645 8.71274C8.5521 8.8081 8.0406 8.75525 7.5762 8.56081C7.1118 8.36638 6.71521 8.03903 6.43628 7.61991C6.15733 7.20079 6.00848 6.70858 6.00841 6.20512C6.01071 5.86696 6.07966 5.53258 6.21132 5.2211C6.34299 4.90962 6.53477 4.62716 6.77571 4.38988C7.01668 4.15264 7.30208 3.96526 7.61556 3.83845C7.92905 3.71164 8.26446 3.64786 8.6026 3.65084ZM11.6045 2.38909H14.6184V14.6165H11.6032V11.1523C8.94907 12.1223 6.46812 12.2076 4.18569 9.97441C3.24232 8.99246 2.71073 7.6534 2.93324 5.319C2.97187 4.96193 2.79998 3.30572 2.38428 2.3877H5.05578C6.30957 4.37832 4.66536 6.91786 6.58669 8.54076C9.20354 10.2356 11.4873 8.20898 11.5979 6.37959L11.6045 2.38909Z" fill="#FEBD30"/>
</g>
<defs>
<clipPath id="clip0_881_3109">
<rect width="17" height="17" fill="white"/>
</clipPath>
</defs>
</svg>
