<svg width="16" height="16" viewBox="0 0 16 16" fill="none" xmlns="http://www.w3.org/2000/svg">
<path fill-rule="evenodd" clip-rule="evenodd" d="M0.727888 0C0.32589 0 0 0.325615 0 0.727273C0 1.12893 0.32589 1.45455 0.727888 1.45455H1.61534L4.2097 11.8232C3.44492 12.1626 2.91155 12.9281 2.91155 13.8182C2.91155 15.0232 3.88921 16 5.09521 16C6.30122 16 7.27888 15.0232 7.27888 13.8182C7.27888 13.5632 7.23506 13.3184 7.15463 13.0909H10.3147C10.2342 13.3184 10.1904 13.5632 10.1904 13.8182C10.1904 15.0232 11.1681 16 12.3741 16C13.5801 16 14.5578 15.0232 14.5578 13.8182C14.5578 12.6132 13.5801 11.6364 12.3741 11.6364H5.66353L5.29959 10.1818H12.3741C13.8766 10.1818 14.7775 9.23338 15.2774 8.18611C15.766 7.16269 15.936 5.93958 15.9953 5.04995C16.0779 3.81101 15.0529 2.90909 13.918 2.90909H3.47987L3.02766 1.10177C2.86564 0.454247 2.28335 0 1.61534 0H0.727888ZM12.3741 8.72727H4.93565L3.84381 4.36364H13.918C14.3206 4.36364 14.5623 4.65945 14.5428 4.95329C14.4874 5.78342 14.3325 6.78676 13.9635 7.55993C13.6058 8.30916 13.1166 8.72727 12.3741 8.72727ZM12.3741 14.5409C11.9746 14.5409 11.6507 14.2174 11.6507 13.8182C11.6507 13.419 11.9746 13.0954 12.3741 13.0954C12.7736 13.0954 13.0975 13.419 13.0975 13.8182C13.0975 14.2174 12.7736 14.5409 12.3741 14.5409ZM4.37182 13.8182C4.37182 14.2174 4.69569 14.5409 5.09521 14.5409C5.49474 14.5409 5.81861 14.2174 5.81861 13.8182C5.81861 13.419 5.49474 13.0954 5.09521 13.0954C4.69569 13.0954 4.37182 13.419 4.37182 13.8182Z" fill="#9198A1"/>
</svg>
