<svg width="1276" height="75" viewBox="0 0 1276 75" fill="none" xmlns="http://www.w3.org/2000/svg">
<rect width="1276" height="75" rx="37.5" fill="url(#paint0_linear_606_2375)" fill-opacity="0.051"/>
<rect x="0.5" y="0.5" width="1275" height="74" rx="37" stroke="#737B8B" stroke-opacity="0.3"/>
<rect x="11" y="11" width="53" height="53" rx="26.5" fill="url(#paint1_linear_606_2375)"/>
<rect x="11" y="11" width="53" height="53" rx="26.5" fill="url(#paint2_linear_606_2375)"/>
<path d="M27.6146 32.3182H29.8717L32.8944 39.696H33.0138L36.0365 32.3182H38.2936V42.5H36.5237V35.505H36.4292L33.6153 42.4702H32.2929L29.479 35.4901H29.3845V42.5H27.6146V32.3182ZM45.8355 35.1172C45.7891 34.683 45.5935 34.3449 45.2488 34.103C44.9075 33.861 44.4633 33.7401 43.9165 33.7401C43.532 33.7401 43.2022 33.7981 42.9271 33.9141C42.652 34.0301 42.4416 34.1875 42.2957 34.3864C42.1499 34.5852 42.0753 34.8123 42.072 35.0675C42.072 35.2796 42.1201 35.4635 42.2162 35.6193C42.3156 35.7751 42.4498 35.9077 42.6189 36.017C42.7879 36.1231 42.9752 36.2126 43.1807 36.2855C43.3862 36.3584 43.5933 36.4197 43.8021 36.4695L44.7567 36.7081C45.1411 36.7976 45.5107 36.9186 45.8653 37.071C46.2233 37.2235 46.5431 37.4157 46.8248 37.6477C47.1099 37.8797 47.3353 38.1598 47.501 38.4879C47.6667 38.8161 47.7496 39.2005 47.7496 39.6413C47.7496 40.2379 47.5971 40.7633 47.2922 41.2173C46.9872 41.6681 46.5464 42.0211 45.9697 42.2763C45.3963 42.5282 44.702 42.6541 43.8866 42.6541C43.0945 42.6541 42.4068 42.5315 41.8234 42.2862C41.2434 42.041 40.7893 41.683 40.4612 41.2124C40.1364 40.7417 39.9607 40.1683 39.9342 39.4922H41.7488C41.7754 39.8468 41.8847 40.1418 42.077 40.3771C42.2692 40.6125 42.5194 40.7881 42.8277 40.9041C43.1392 41.0201 43.4872 41.0781 43.8717 41.0781C44.2728 41.0781 44.6241 41.0185 44.9257 40.8991C45.2306 40.7765 45.4693 40.6075 45.6416 40.392C45.814 40.1733 45.9018 39.9181 45.9051 39.6264C45.9018 39.3613 45.8239 39.1425 45.6714 38.9702C45.519 38.7945 45.3052 38.6487 45.0301 38.5327C44.7583 38.4134 44.4401 38.3073 44.0756 38.2145L42.9172 37.9162C42.0786 37.7008 41.4157 37.3743 40.9285 36.9368C40.4446 36.496 40.2027 35.911 40.2027 35.1818C40.2027 34.5819 40.3651 34.0566 40.6899 33.6058C41.018 33.1551 41.4638 32.8054 42.0273 32.5568C42.5907 32.3049 43.2287 32.179 43.9413 32.179C44.6639 32.179 45.2969 32.3049 45.8405 32.5568C46.3873 32.8054 46.8166 33.1518 47.1281 33.5959C47.4397 34.0367 47.6004 34.5438 47.6104 35.1172H45.8355Z" fill="white"/>
<path d="M87.744 21.412C87.9787 21.8173 88.24 22.3133 88.528 22.9C88.816 23.4867 89.1093 24.1053 89.408 24.756C89.7067 25.396 90 26.052 90.288 26.724C90.5867 27.3853 90.8587 27.9987 91.104 28.564C91.3493 27.9987 91.616 27.3853 91.904 26.724C92.192 26.052 92.4853 25.396 92.784 24.756C93.0827 24.1053 93.376 23.4867 93.664 22.9C93.952 22.3133 94.2133 21.8173 94.448 21.412H96.272C96.368 22.2227 96.4587 23.0867 96.544 24.004C96.6293 24.9107 96.704 25.844 96.768 26.804C96.8427 27.7533 96.9067 28.7133 96.96 29.684C97.024 30.644 97.0773 31.5827 97.12 32.5H95.136C95.0933 31.2093 95.04 29.8813 94.976 28.516C94.9227 27.1507 94.8373 25.828 94.72 24.548C94.6027 24.7933 94.464 25.0867 94.304 25.428C94.144 25.7693 93.9733 26.1427 93.792 26.548C93.6107 26.9427 93.424 27.3533 93.232 27.78C93.0507 28.2067 92.8693 28.6227 92.688 29.028C92.5173 29.4227 92.3573 29.796 92.208 30.148C92.0587 30.4893 91.9307 30.7827 91.824 31.028H90.32C90.2133 30.7827 90.0853 30.484 89.936 30.132C89.7867 29.78 89.6213 29.4067 89.44 29.012C89.2693 28.6067 89.088 28.1907 88.896 27.764C88.7147 27.3373 88.5333 26.9267 88.352 26.532C88.1707 26.1373 88 25.7693 87.84 25.428C87.68 25.076 87.5413 24.7827 87.424 24.548C87.3067 25.828 87.216 27.1507 87.152 28.516C87.0987 29.8813 87.0507 31.2093 87.008 32.5H85.024C85.0667 31.5827 85.1147 30.6333 85.168 29.652C85.232 28.6707 85.296 27.7 85.36 26.74C85.4347 25.7693 85.5147 24.8307 85.6 23.924C85.6853 23.0173 85.776 22.18 85.872 21.412H87.744ZM106.941 28.308C106.941 28.9693 106.845 29.572 106.653 30.116C106.461 30.66 106.189 31.124 105.837 31.508C105.485 31.892 105.058 32.1907 104.557 32.404C104.066 32.6173 103.522 32.724 102.925 32.724C102.327 32.724 101.783 32.6173 101.293 32.404C100.802 32.1907 100.381 31.892 100.029 31.508C99.6766 31.124 99.3993 30.66 99.1966 30.116C99.0046 29.572 98.9086 28.9693 98.9086 28.308C98.9086 27.6467 99.0046 27.0493 99.1966 26.516C99.3993 25.972 99.6766 25.508 100.029 25.124C100.391 24.74 100.818 24.4467 101.309 24.244C101.799 24.0307 102.338 23.924 102.925 23.924C103.511 23.924 104.05 24.0307 104.541 24.244C105.042 24.4467 105.469 24.74 105.821 25.124C106.173 25.508 106.445 25.972 106.637 26.516C106.839 27.0493 106.941 27.6467 106.941 28.308ZM104.957 28.308C104.957 27.476 104.775 26.82 104.413 26.34C104.061 25.8493 103.565 25.604 102.925 25.604C102.285 25.604 101.783 25.8493 101.421 26.34C101.069 26.82 100.893 27.476 100.893 28.308C100.893 29.1507 101.069 29.8173 101.421 30.308C101.783 30.7987 102.285 31.044 102.925 31.044C103.565 31.044 104.061 30.7987 104.413 30.308C104.775 29.8173 104.957 29.1507 104.957 28.308ZM108.935 24.404C109.308 24.2973 109.794 24.196 110.391 24.1C110.988 24.004 111.65 23.956 112.375 23.956C113.058 23.956 113.628 24.052 114.087 24.244C114.546 24.4253 114.908 24.6867 115.175 25.028C115.452 25.3587 115.644 25.764 115.751 26.244C115.868 26.7133 115.927 27.2307 115.927 27.796V32.5H113.991V28.1C113.991 27.652 113.959 27.2733 113.895 26.964C113.842 26.644 113.746 26.388 113.607 26.196C113.479 25.9933 113.298 25.8493 113.063 25.764C112.839 25.668 112.562 25.62 112.231 25.62C111.986 25.62 111.73 25.636 111.463 25.668C111.196 25.7 110.999 25.7267 110.871 25.748V32.5H108.935V24.404ZM118.199 21.924L120.135 21.604V24.132H123.111V25.748H120.135V29.156C120.135 29.828 120.241 30.308 120.455 30.596C120.668 30.884 121.031 31.028 121.543 31.028C121.895 31.028 122.204 30.9907 122.471 30.916C122.748 30.8413 122.967 30.772 123.127 30.708L123.447 32.244C123.223 32.34 122.929 32.436 122.567 32.532C122.204 32.6387 121.777 32.692 121.286 32.692C120.689 32.692 120.188 32.612 119.783 32.452C119.388 32.292 119.073 32.0627 118.839 31.764C118.604 31.4547 118.439 31.0867 118.343 30.66C118.247 30.2227 118.199 29.7267 118.199 29.172V21.924ZM124.982 32.5V20.404L126.918 20.084V24.228C127.131 24.1533 127.377 24.0893 127.654 24.036C127.942 23.9827 128.225 23.956 128.502 23.956C129.174 23.956 129.729 24.052 130.166 24.244C130.614 24.4253 130.971 24.6867 131.238 25.028C131.505 25.3587 131.691 25.7587 131.798 26.228C131.915 26.6973 131.974 27.22 131.974 27.796V32.5H130.038V28.1C130.038 27.652 130.006 27.2733 129.942 26.964C129.889 26.644 129.793 26.388 129.654 26.196C129.526 25.9933 129.35 25.8493 129.126 25.764C128.902 25.668 128.625 25.62 128.294 25.62C128.038 25.62 127.777 25.6467 127.51 25.7C127.243 25.7533 127.046 25.8013 126.918 25.844V32.5H124.982ZM137.207 32.66C136.631 32.6493 136.151 32.5853 135.767 32.468C135.393 32.3507 135.095 32.1853 134.871 31.972C134.647 31.748 134.487 31.476 134.391 31.156C134.305 30.8253 134.263 30.452 134.263 30.036V20.404L136.199 20.084V29.668C136.199 29.9027 136.215 30.1 136.247 30.26C136.289 30.42 136.359 30.5587 136.455 30.676C136.551 30.7827 136.679 30.868 136.839 30.932C137.009 30.9853 137.223 31.028 137.479 31.06L137.207 32.66ZM145.877 24.132C145.013 27.3107 144.01 30.1907 142.869 32.772C142.655 33.252 142.437 33.6627 142.213 34.004C141.989 34.3453 141.738 34.628 141.461 34.852C141.183 35.076 140.874 35.236 140.533 35.332C140.191 35.4387 139.797 35.492 139.349 35.492C139.05 35.492 138.751 35.46 138.453 35.396C138.165 35.332 137.946 35.2627 137.796 35.188L138.149 33.636C138.533 33.7853 138.911 33.86 139.285 33.86C139.786 33.86 140.175 33.7373 140.453 33.492C140.741 33.2573 140.991 32.8893 141.205 32.388C140.597 31.2147 140.01 29.9347 139.445 28.548C138.89 27.1613 138.394 25.6893 137.957 24.132H140.021C140.127 24.58 140.255 25.0653 140.405 25.588C140.565 26.1107 140.735 26.644 140.917 27.188C141.098 27.7213 141.29 28.2547 141.493 28.788C141.695 29.3213 141.898 29.8173 142.101 30.276C142.442 29.3267 142.762 28.3187 143.061 27.252C143.359 26.1747 143.631 25.1347 143.877 24.132H145.877ZM153.86 30.996C154.585 30.996 155.113 30.8733 155.444 30.628C155.774 30.3827 155.94 30.036 155.94 29.588C155.94 29.3213 155.881 29.092 155.764 28.9C155.657 28.708 155.497 28.5373 155.284 28.388C155.081 28.228 154.83 28.084 154.532 27.956C154.233 27.8173 153.892 27.684 153.508 27.556C153.124 27.4173 152.75 27.268 152.388 27.108C152.036 26.9373 151.721 26.7293 151.444 26.484C151.177 26.2387 150.958 25.9453 150.788 25.604C150.628 25.2627 150.548 24.852 150.548 24.372C150.548 23.3693 150.894 22.5853 151.588 22.02C152.281 21.444 153.225 21.156 154.42 21.156C155.113 21.156 155.726 21.236 156.26 21.396C156.804 21.5453 157.23 21.7107 157.54 21.892L156.916 23.524C156.553 23.3213 156.153 23.1667 155.716 23.06C155.289 22.9533 154.846 22.9 154.388 22.9C153.844 22.9 153.417 23.012 153.108 23.236C152.809 23.46 152.66 23.7747 152.66 24.18C152.66 24.4253 152.708 24.6387 152.804 24.82C152.91 24.9907 153.054 25.1453 153.236 25.284C153.428 25.4227 153.646 25.5507 153.892 25.668C154.148 25.7853 154.425 25.8973 154.724 26.004C155.246 26.196 155.71 26.3933 156.116 26.596C156.532 26.788 156.878 27.0227 157.156 27.3C157.444 27.5667 157.662 27.8867 157.812 28.26C157.961 28.6227 158.036 29.0653 158.036 29.588C158.036 30.5907 157.678 31.3693 156.964 31.924C156.26 32.468 155.225 32.74 153.86 32.74C153.401 32.74 152.98 32.708 152.596 32.644C152.222 32.5907 151.886 32.5213 151.588 32.436C151.3 32.3507 151.049 32.2653 150.836 32.18C150.622 32.084 150.452 31.9987 150.324 31.924L150.916 30.276C151.204 30.436 151.593 30.596 152.084 30.756C152.574 30.916 153.166 30.996 153.86 30.996ZM162.66 31.14C163.258 31.14 163.711 31.108 164.02 31.044V28.9C163.914 28.868 163.759 28.836 163.556 28.804C163.354 28.772 163.13 28.756 162.884 28.756C162.671 28.756 162.452 28.772 162.228 28.804C162.015 28.836 161.818 28.8947 161.636 28.98C161.466 29.0653 161.327 29.188 161.22 29.348C161.114 29.4973 161.06 29.6893 161.06 29.924C161.06 30.3827 161.204 30.7027 161.492 30.884C161.78 31.0547 162.17 31.14 162.66 31.14ZM162.5 23.924C163.14 23.924 163.679 24.004 164.116 24.164C164.554 24.324 164.9 24.548 165.156 24.836C165.423 25.124 165.61 25.476 165.716 25.892C165.834 26.2973 165.892 26.7453 165.892 27.236V32.308C165.594 32.372 165.14 32.4467 164.532 32.532C163.935 32.628 163.258 32.676 162.5 32.676C161.999 32.676 161.54 32.628 161.124 32.532C160.708 32.436 160.351 32.2813 160.052 32.068C159.764 31.8547 159.535 31.5773 159.364 31.236C159.204 30.8947 159.124 30.4733 159.124 29.972C159.124 29.492 159.215 29.0867 159.396 28.756C159.588 28.4253 159.844 28.1587 160.164 27.956C160.484 27.7427 160.852 27.5933 161.268 27.508C161.695 27.412 162.138 27.364 162.596 27.364C162.81 27.364 163.034 27.38 163.268 27.412C163.503 27.4333 163.754 27.476 164.02 27.54V27.22C164.02 26.996 163.994 26.7827 163.94 26.58C163.887 26.3773 163.791 26.2013 163.652 26.052C163.524 25.892 163.348 25.7693 163.124 25.684C162.911 25.5987 162.639 25.556 162.308 25.556C161.86 25.556 161.45 25.588 161.076 25.652C160.703 25.716 160.399 25.7907 160.164 25.876L159.924 24.308C160.17 24.2227 160.527 24.1373 160.996 24.052C161.466 23.9667 161.967 23.924 162.5 23.924ZM171.175 32.66C170.599 32.6493 170.119 32.5853 169.735 32.468C169.362 32.3507 169.063 32.1853 168.839 31.972C168.615 31.748 168.455 31.476 168.359 31.156C168.274 30.8253 168.231 30.452 168.231 30.036V20.404L170.167 20.084V29.668C170.167 29.9027 170.183 30.1 170.215 30.26C170.258 30.42 170.327 30.5587 170.423 30.676C170.519 30.7827 170.647 30.868 170.807 30.932C170.978 30.9853 171.191 31.028 171.447 31.06L171.175 32.66ZM175.957 31.14C176.555 31.14 177.008 31.108 177.317 31.044V28.9C177.211 28.868 177.056 28.836 176.853 28.804C176.651 28.772 176.427 28.756 176.181 28.756C175.968 28.756 175.749 28.772 175.525 28.804C175.312 28.836 175.115 28.8947 174.933 28.98C174.763 29.0653 174.624 29.188 174.517 29.348C174.411 29.4973 174.357 29.6893 174.357 29.924C174.357 30.3827 174.501 30.7027 174.789 30.884C175.077 31.0547 175.467 31.14 175.957 31.14ZM175.797 23.924C176.437 23.924 176.976 24.004 177.413 24.164C177.851 24.324 178.197 24.548 178.453 24.836C178.72 25.124 178.907 25.476 179.013 25.892C179.131 26.2973 179.189 26.7453 179.189 27.236V32.308C178.891 32.372 178.437 32.4467 177.829 32.532C177.232 32.628 176.555 32.676 175.797 32.676C175.296 32.676 174.837 32.628 174.421 32.532C174.005 32.436 173.648 32.2813 173.349 32.068C173.061 31.8547 172.832 31.5773 172.661 31.236C172.501 30.8947 172.421 30.4733 172.421 29.972C172.421 29.492 172.512 29.0867 172.693 28.756C172.885 28.4253 173.141 28.1587 173.461 27.956C173.781 27.7427 174.149 27.5933 174.565 27.508C174.992 27.412 175.435 27.364 175.893 27.364C176.107 27.364 176.331 27.38 176.565 27.412C176.8 27.4333 177.051 27.476 177.317 27.54V27.22C177.317 26.996 177.291 26.7827 177.237 26.58C177.184 26.3773 177.088 26.2013 176.949 26.052C176.821 25.892 176.645 25.7693 176.421 25.684C176.208 25.5987 175.936 25.556 175.605 25.556C175.157 25.556 174.747 25.588 174.373 25.652C174 25.716 173.696 25.7907 173.461 25.876L173.221 24.308C173.467 24.2227 173.824 24.1373 174.293 24.052C174.763 23.9667 175.264 23.924 175.797 23.924ZM186.328 25.876C186.168 25.8227 185.944 25.7693 185.656 25.716C185.379 25.652 185.053 25.62 184.68 25.62C184.467 25.62 184.237 25.6413 183.992 25.684C183.757 25.7267 183.592 25.764 183.496 25.796V32.5H181.56V24.532C181.933 24.3933 182.397 24.2653 182.952 24.148C183.517 24.02 184.141 23.956 184.824 23.956C184.952 23.956 185.101 23.9667 185.272 23.988C185.443 23.9987 185.613 24.02 185.784 24.052C185.955 24.0733 186.12 24.1053 186.28 24.148C186.44 24.18 186.568 24.212 186.664 24.244L186.328 25.876ZM195.127 24.132C194.263 27.3107 193.26 30.1907 192.119 32.772C191.905 33.252 191.687 33.6627 191.463 34.004C191.239 34.3453 190.988 34.628 190.711 34.852C190.433 35.076 190.124 35.236 189.783 35.332C189.441 35.4387 189.047 35.492 188.599 35.492C188.3 35.492 188.001 35.46 187.703 35.396C187.415 35.332 187.196 35.2627 187.046 35.188L187.399 33.636C187.783 33.7853 188.161 33.86 188.535 33.86C189.036 33.86 189.425 33.7373 189.703 33.492C189.991 33.2573 190.241 32.8893 190.455 32.388C189.847 31.2147 189.26 29.9347 188.695 28.548C188.14 27.1613 187.644 25.6893 187.207 24.132H189.271C189.377 24.58 189.505 25.0653 189.655 25.588C189.815 26.1107 189.985 26.644 190.167 27.188C190.348 27.7213 190.54 28.2547 190.743 28.788C190.945 29.3213 191.148 29.8173 191.351 30.276C191.692 29.3267 192.012 28.3187 192.311 27.252C192.609 26.1747 192.881 25.1347 193.127 24.132H195.127Z" fill="#F7F7F7"/>
<path d="M90.538 47.276C90.538 47.612 90.468 47.9387 90.328 48.256C90.1973 48.564 90.02 48.872 89.796 49.18C89.572 49.4787 89.32 49.7773 89.04 50.076C88.76 50.3653 88.48 50.65 88.2 50.93C88.0413 51.0887 87.8547 51.2753 87.64 51.49C87.4347 51.7047 87.2387 51.9287 87.052 52.162C86.8653 52.3953 86.7067 52.6193 86.576 52.834C86.4547 53.0487 86.394 53.2353 86.394 53.394H90.86V54.5H84.98C84.9707 54.444 84.966 54.388 84.966 54.332C84.966 54.276 84.966 54.2247 84.966 54.178C84.966 53.7393 85.036 53.3333 85.176 52.96C85.3253 52.5773 85.5167 52.218 85.75 51.882C85.9833 51.546 86.2447 51.2287 86.534 50.93C86.8233 50.6313 87.108 50.342 87.388 50.062C87.6213 49.838 87.8407 49.6187 88.046 49.404C88.2607 49.18 88.4473 48.9607 88.606 48.746C88.774 48.522 88.9047 48.2933 88.998 48.06C89.1007 47.8267 89.152 47.5793 89.152 47.318C89.152 47.038 89.1053 46.8 89.012 46.604C88.928 46.408 88.8113 46.2447 88.662 46.114C88.5127 45.9833 88.3353 45.89 88.13 45.834C87.934 45.7687 87.724 45.736 87.5 45.736C87.2293 45.736 86.982 45.7733 86.758 45.848C86.534 45.9227 86.3333 46.0113 86.156 46.114C85.9787 46.2073 85.8293 46.31 85.708 46.422C85.5867 46.5247 85.4933 46.604 85.428 46.66L84.784 45.736C84.868 45.6427 84.994 45.5307 85.162 45.4C85.33 45.26 85.5307 45.1293 85.764 45.008C85.9973 44.8867 86.2587 44.784 86.548 44.7C86.8373 44.616 87.15 44.574 87.486 44.574C88.5033 44.574 89.264 44.812 89.768 45.288C90.2813 45.7547 90.538 46.4173 90.538 47.276ZM94.5623 53.744C94.5623 53.996 94.4783 54.2153 94.3103 54.402C94.1423 54.5887 93.9137 54.682 93.6243 54.682C93.335 54.682 93.1063 54.5887 92.9383 54.402C92.7703 54.2153 92.6863 53.996 92.6863 53.744C92.6863 53.492 92.7703 53.2727 92.9383 53.086C93.1063 52.8993 93.335 52.806 93.6243 52.806C93.9137 52.806 94.1423 52.8993 94.3103 53.086C94.4783 53.2727 94.5623 53.492 94.5623 53.744ZM94.5623 48.158C94.5623 48.41 94.4783 48.6293 94.3103 48.816C94.1423 49.0027 93.9137 49.096 93.6243 49.096C93.335 49.096 93.1063 49.0027 92.9383 48.816C92.7703 48.6293 92.6863 48.41 92.6863 48.158C92.6863 47.906 92.7703 47.6867 92.9383 47.5C93.1063 47.3133 93.335 47.22 93.6243 47.22C93.9137 47.22 94.1423 47.3133 94.3103 47.5C94.4783 47.6867 94.5623 47.906 94.5623 48.158ZM98.5117 53.548C99.3423 53.548 99.935 53.3847 100.29 53.058C100.654 52.7313 100.836 52.2927 100.836 51.742C100.836 51.3873 100.761 51.0887 100.612 50.846C100.462 50.6033 100.266 50.412 100.024 50.272C99.781 50.1227 99.4963 50.02 99.1697 49.964C98.8523 49.8987 98.5257 49.866 98.1897 49.866H97.8537V48.802H98.3157C98.549 48.802 98.787 48.7787 99.0297 48.732C99.2817 48.6853 99.5103 48.6013 99.7157 48.48C99.921 48.3587 100.089 48.1953 100.22 47.99C100.35 47.7753 100.416 47.5093 100.416 47.192C100.416 46.9307 100.369 46.7067 100.276 46.52C100.182 46.3333 100.056 46.1793 99.8977 46.058C99.7483 45.9367 99.571 45.8527 99.3657 45.806C99.1697 45.75 98.9597 45.722 98.7357 45.722C98.2877 45.722 97.905 45.7873 97.5877 45.918C97.2797 46.0487 97.0183 46.184 96.8037 46.324L96.2997 45.33C96.4117 45.2553 96.5517 45.176 96.7197 45.092C96.897 44.9987 97.093 44.9147 97.3077 44.84C97.5223 44.7653 97.751 44.7047 97.9937 44.658C98.2457 44.602 98.507 44.574 98.7777 44.574C99.291 44.574 99.7343 44.6393 100.108 44.77C100.481 44.8913 100.789 45.0687 101.032 45.302C101.274 45.526 101.456 45.7967 101.578 46.114C101.699 46.422 101.76 46.758 101.76 47.122C101.76 47.626 101.615 48.06 101.326 48.424C101.036 48.7787 100.686 49.0493 100.276 49.236C100.528 49.3107 100.77 49.418 101.004 49.558C101.237 49.698 101.438 49.8753 101.606 50.09C101.783 50.3047 101.923 50.552 102.026 50.832C102.138 51.112 102.194 51.4247 102.194 51.77C102.194 52.19 102.119 52.582 101.97 52.946C101.83 53.3007 101.606 53.6087 101.298 53.87C100.999 54.1313 100.621 54.3367 100.164 54.486C99.7063 54.6353 99.165 54.71 98.5397 54.71C98.297 54.71 98.045 54.6913 97.7837 54.654C97.5317 54.6167 97.2937 54.57 97.0697 54.514C96.8457 54.458 96.6497 54.402 96.4817 54.346C96.3137 54.29 96.1923 54.2433 96.1177 54.206L96.3697 53.072C96.5283 53.1467 96.7897 53.2447 97.1537 53.366C97.527 53.4873 97.9797 53.548 98.5117 53.548ZM103.95 49.642C103.95 48.018 104.235 46.7673 104.804 45.89C105.383 45.0127 106.181 44.574 107.198 44.574C108.215 44.574 109.009 45.0127 109.578 45.89C110.157 46.7673 110.446 48.018 110.446 49.642C110.446 51.266 110.157 52.5167 109.578 53.394C109.009 54.2713 108.215 54.71 107.198 54.71C106.181 54.71 105.383 54.2713 104.804 53.394C104.235 52.5167 103.95 51.266 103.95 49.642ZM109.074 49.642C109.074 49.11 109.041 48.606 108.976 48.13C108.92 47.654 108.817 47.2387 108.668 46.884C108.528 46.5293 108.337 46.2493 108.094 46.044C107.851 45.8293 107.553 45.722 107.198 45.722C106.843 45.722 106.545 45.8293 106.302 46.044C106.059 46.2493 105.863 46.5293 105.714 46.884C105.574 47.2387 105.471 47.654 105.406 48.13C105.35 48.606 105.322 49.11 105.322 49.642C105.322 50.174 105.35 50.678 105.406 51.154C105.471 51.63 105.574 52.0453 105.714 52.4C105.863 52.7547 106.059 53.0393 106.302 53.254C106.545 53.4593 106.843 53.562 107.198 53.562C107.553 53.562 107.851 53.4593 108.094 53.254C108.337 53.0393 108.528 52.7547 108.668 52.4C108.817 52.0453 108.92 51.63 108.976 51.154C109.041 50.678 109.074 50.174 109.074 49.642ZM117.326 50.874C117.326 50.0247 117.116 49.3713 116.696 48.914C116.276 48.4567 115.716 48.228 115.016 48.228C114.624 48.228 114.316 48.242 114.092 48.27C113.878 48.298 113.705 48.3307 113.574 48.368V52.96C113.733 53.0907 113.962 53.2167 114.26 53.338C114.559 53.4593 114.886 53.52 115.24 53.52C115.614 53.52 115.931 53.4547 116.192 53.324C116.463 53.184 116.682 52.9973 116.85 52.764C117.018 52.5213 117.14 52.2413 117.214 51.924C117.289 51.5973 117.326 51.2473 117.326 50.874ZM118.684 50.874C118.684 51.4247 118.61 51.9333 118.46 52.4C118.32 52.8667 118.11 53.268 117.83 53.604C117.55 53.94 117.205 54.2013 116.794 54.388C116.393 54.5747 115.931 54.668 115.408 54.668C114.988 54.668 114.615 54.612 114.288 54.5C113.971 54.388 113.733 54.2807 113.574 54.178V57.09H112.272V47.444C112.58 47.3693 112.963 47.29 113.42 47.206C113.887 47.1127 114.424 47.066 115.03 47.066C115.59 47.066 116.094 47.1547 116.542 47.332C116.99 47.5093 117.373 47.7613 117.69 48.088C118.008 48.4147 118.25 48.816 118.418 49.292C118.596 49.7587 118.684 50.286 118.684 50.874ZM120.516 47.43C120.815 47.3553 121.207 47.276 121.692 47.192C122.187 47.108 122.756 47.066 123.4 47.066C123.867 47.066 124.259 47.1313 124.576 47.262C124.894 47.3833 125.16 47.5653 125.374 47.808C125.44 47.7613 125.542 47.696 125.682 47.612C125.822 47.528 125.995 47.4487 126.2 47.374C126.406 47.29 126.634 47.22 126.886 47.164C127.138 47.0987 127.409 47.066 127.698 47.066C128.258 47.066 128.716 47.15 129.07 47.318C129.425 47.4767 129.7 47.7053 129.896 48.004C130.102 48.3027 130.237 48.6573 130.302 49.068C130.377 49.4787 130.414 49.9267 130.414 50.412V54.5H129.112V50.692C129.112 50.2627 129.089 49.894 129.042 49.586C129.005 49.278 128.926 49.0213 128.804 48.816C128.692 48.6107 128.534 48.4613 128.328 48.368C128.132 48.2653 127.876 48.214 127.558 48.214C127.12 48.214 126.756 48.2747 126.466 48.396C126.186 48.508 125.995 48.6107 125.892 48.704C125.967 48.9467 126.023 49.2127 126.06 49.502C126.098 49.7913 126.116 50.0947 126.116 50.412V54.5H124.814V50.692C124.814 50.2627 124.791 49.894 124.744 49.586C124.698 49.278 124.614 49.0213 124.492 48.816C124.38 48.6107 124.222 48.4613 124.016 48.368C123.82 48.2653 123.568 48.214 123.26 48.214C123.13 48.214 122.99 48.2187 122.84 48.228C122.691 48.2373 122.546 48.2513 122.406 48.27C122.276 48.2793 122.154 48.2933 122.042 48.312C121.93 48.3307 121.856 48.3447 121.818 48.354V54.5H120.516V47.43ZM138.153 53.534C139.572 53.534 140.281 53.0487 140.281 52.078C140.281 51.7793 140.216 51.5273 140.085 51.322C139.964 51.1073 139.796 50.9253 139.581 50.776C139.367 50.6173 139.119 50.482 138.839 50.37C138.569 50.258 138.279 50.146 137.971 50.034C137.617 49.9127 137.281 49.7773 136.963 49.628C136.646 49.4693 136.371 49.2873 136.137 49.082C135.904 48.8673 135.717 48.6153 135.577 48.326C135.447 48.0367 135.381 47.6867 135.381 47.276C135.381 46.4267 135.671 45.764 136.249 45.288C136.828 44.812 137.626 44.574 138.643 44.574C139.231 44.574 139.763 44.6393 140.239 44.77C140.725 44.8913 141.079 45.0267 141.303 45.176L140.869 46.282C140.673 46.1607 140.379 46.044 139.987 45.932C139.605 45.8107 139.157 45.75 138.643 45.75C138.382 45.75 138.139 45.778 137.915 45.834C137.691 45.89 137.495 45.974 137.327 46.086C137.159 46.198 137.024 46.3427 136.921 46.52C136.828 46.688 136.781 46.8887 136.781 47.122C136.781 47.3833 136.833 47.6027 136.935 47.78C137.038 47.9573 137.183 48.116 137.369 48.256C137.556 48.3867 137.771 48.508 138.013 48.62C138.265 48.732 138.541 48.844 138.839 48.956C139.259 49.124 139.642 49.292 139.987 49.46C140.342 49.628 140.645 49.8287 140.897 50.062C141.159 50.2953 141.359 50.5753 141.499 50.902C141.639 51.2193 141.709 51.6067 141.709 52.064C141.709 52.9133 141.397 53.5667 140.771 54.024C140.155 54.4813 139.283 54.71 138.153 54.71C137.771 54.71 137.416 54.682 137.089 54.626C136.772 54.5793 136.487 54.5233 136.235 54.458C135.983 54.3833 135.764 54.3087 135.577 54.234C135.4 54.15 135.26 54.08 135.157 54.024L135.563 52.904C135.778 53.0253 136.105 53.1607 136.543 53.31C136.982 53.4593 137.519 53.534 138.153 53.534ZM142.86 50.874C142.86 50.23 142.954 49.67 143.14 49.194C143.327 48.7087 143.574 48.3073 143.882 47.99C144.19 47.6727 144.545 47.4347 144.946 47.276C145.348 47.1173 145.758 47.038 146.178 47.038C147.158 47.038 147.91 47.346 148.432 47.962C148.955 48.5687 149.216 49.4973 149.216 50.748C149.216 50.804 149.216 50.8787 149.216 50.972C149.216 51.056 149.212 51.1353 149.202 51.21H144.218C144.274 51.966 144.494 52.54 144.876 52.932C145.259 53.324 145.856 53.52 146.668 53.52C147.126 53.52 147.508 53.4827 147.816 53.408C148.134 53.324 148.372 53.2447 148.53 53.17L148.712 54.262C148.554 54.346 148.274 54.4347 147.872 54.528C147.48 54.6213 147.032 54.668 146.528 54.668C145.894 54.668 145.343 54.5747 144.876 54.388C144.419 54.192 144.041 53.926 143.742 53.59C143.444 53.254 143.22 52.8573 143.07 52.4C142.93 51.9333 142.86 51.4247 142.86 50.874ZM147.858 50.16C147.868 49.572 147.718 49.0913 147.41 48.718C147.112 48.3353 146.696 48.144 146.164 48.144C145.866 48.144 145.6 48.2047 145.366 48.326C145.142 48.438 144.951 48.5873 144.792 48.774C144.634 48.9607 144.508 49.1753 144.414 49.418C144.33 49.6607 144.274 49.908 144.246 50.16H147.858ZM156.141 50.874C156.141 50.0247 155.931 49.3713 155.511 48.914C155.091 48.4567 154.531 48.228 153.831 48.228C153.439 48.228 153.131 48.242 152.907 48.27C152.692 48.298 152.519 48.3307 152.389 48.368V52.96C152.547 53.0907 152.776 53.2167 153.075 53.338C153.373 53.4593 153.7 53.52 154.055 53.52C154.428 53.52 154.745 53.4547 155.007 53.324C155.277 53.184 155.497 52.9973 155.665 52.764C155.833 52.5213 155.954 52.2413 156.029 51.924C156.103 51.5973 156.141 51.2473 156.141 50.874ZM157.499 50.874C157.499 51.4247 157.424 51.9333 157.275 52.4C157.135 52.8667 156.925 53.268 156.645 53.604C156.365 53.94 156.019 54.2013 155.609 54.388C155.207 54.5747 154.745 54.668 154.223 54.668C153.803 54.668 153.429 54.612 153.103 54.5C152.785 54.388 152.547 54.2807 152.389 54.178V57.09H151.087V47.444C151.395 47.3693 151.777 47.29 152.235 47.206C152.701 47.1127 153.238 47.066 153.845 47.066C154.405 47.066 154.909 47.1547 155.357 47.332C155.805 47.5093 156.187 47.7613 156.505 48.088C156.822 48.4147 157.065 48.816 157.233 49.292C157.41 49.7587 157.499 50.286 157.499 50.874ZM160.703 52.904C160.712 52.9787 160.717 53.0533 160.717 53.128C160.717 53.1933 160.717 53.2633 160.717 53.338C160.717 53.926 160.628 54.5047 160.451 55.074C160.283 55.6527 160.05 56.2033 159.751 56.726L158.743 56.404C158.976 55.928 159.13 55.4427 159.205 54.948C159.28 54.4627 159.317 54.0053 159.317 53.576C159.317 53.4547 159.312 53.338 159.303 53.226C159.303 53.114 159.298 53.0067 159.289 52.904H160.703ZM168.194 47.276C168.194 47.612 168.124 47.9387 167.984 48.256C167.854 48.564 167.676 48.872 167.452 49.18C167.228 49.4787 166.976 49.7773 166.696 50.076C166.416 50.3653 166.136 50.65 165.856 50.93C165.698 51.0887 165.511 51.2753 165.296 51.49C165.091 51.7047 164.895 51.9287 164.708 52.162C164.522 52.3953 164.363 52.6193 164.232 52.834C164.111 53.0487 164.05 53.2353 164.05 53.394H168.516V54.5H162.636C162.627 54.444 162.622 54.388 162.622 54.332C162.622 54.276 162.622 54.2247 162.622 54.178C162.622 53.7393 162.692 53.3333 162.832 52.96C162.982 52.5773 163.173 52.218 163.406 51.882C163.64 51.546 163.901 51.2287 164.19 50.93C164.48 50.6313 164.764 50.342 165.044 50.062C165.278 49.838 165.497 49.6187 165.702 49.404C165.917 49.18 166.104 48.9607 166.262 48.746C166.43 48.522 166.561 48.2933 166.654 48.06C166.757 47.8267 166.808 47.5793 166.808 47.318C166.808 47.038 166.762 46.8 166.668 46.604C166.584 46.408 166.468 46.2447 166.318 46.114C166.169 45.9833 165.992 45.89 165.786 45.834C165.59 45.7687 165.38 45.736 165.156 45.736C164.886 45.736 164.638 45.7733 164.414 45.848C164.19 45.9227 163.99 46.0113 163.812 46.114C163.635 46.2073 163.486 46.31 163.364 46.422C163.243 46.5247 163.15 46.604 163.084 46.66L162.44 45.736C162.524 45.6427 162.65 45.5307 162.818 45.4C162.986 45.26 163.187 45.1293 163.42 45.008C163.654 44.8867 163.915 44.784 164.204 44.7C164.494 44.616 164.806 44.574 165.142 44.574C166.16 44.574 166.92 44.812 167.424 45.288C167.938 45.7547 168.194 46.4173 168.194 47.276ZM172.345 48.536C173.754 48.592 174.785 48.9 175.439 49.46C176.101 50.02 176.433 50.7807 176.433 51.742C176.433 52.1713 176.358 52.568 176.209 52.932C176.069 53.296 175.849 53.6087 175.551 53.87C175.261 54.1313 174.893 54.3367 174.445 54.486C173.997 54.6353 173.465 54.71 172.849 54.71C172.606 54.71 172.359 54.6913 172.107 54.654C171.855 54.6167 171.621 54.57 171.407 54.514C171.192 54.458 171.001 54.402 170.833 54.346C170.665 54.29 170.543 54.2433 170.469 54.206L170.721 53.072C170.879 53.1467 171.136 53.2447 171.491 53.366C171.855 53.4873 172.298 53.548 172.821 53.548C173.241 53.548 173.591 53.5013 173.871 53.408C174.16 53.3147 174.393 53.1887 174.571 53.03C174.748 52.8713 174.874 52.6893 174.949 52.484C175.033 52.2693 175.075 52.0453 175.075 51.812C175.075 51.4573 175.014 51.1447 174.893 50.874C174.771 50.594 174.557 50.3607 174.249 50.174C173.941 49.9873 173.53 49.8473 173.017 49.754C172.503 49.6513 171.855 49.6 171.071 49.6C171.127 49.1427 171.169 48.7133 171.197 48.312C171.234 47.9107 171.267 47.5187 171.295 47.136C171.323 46.7533 171.346 46.3753 171.365 46.002C171.383 45.6193 171.402 45.218 171.421 44.798H176.097V45.904H172.555C172.545 46.044 172.531 46.2353 172.513 46.478C172.494 46.7113 172.475 46.9587 172.457 47.22C172.438 47.472 172.419 47.7193 172.401 47.962C172.382 48.2047 172.363 48.396 172.345 48.536Z" fill="#9198A1"/>
<path d="M428.002 21.001V31.3131" stroke="url(#paint3_linear_606_2375)" stroke-width="1.5" stroke-linecap="round" stroke-linejoin="round"/>
<path d="M432.12 28.3555L428.06 32.4155L424 28.3555" stroke="url(#paint4_linear_606_2375)" stroke-width="1.5" stroke-linecap="round" stroke-linejoin="round"/>
<path d="M428.002 21.001V31.3131" stroke="url(#paint5_linear_606_2375)" stroke-width="1.5" stroke-linecap="round" stroke-linejoin="round"/>
<path d="M432.12 28.3555L428.06 32.4155L424 28.3555" stroke="url(#paint6_linear_606_2375)" stroke-width="1.5" stroke-linecap="round" stroke-linejoin="round"/>
<path d="M428.002 21.001V31.3131" stroke="url(#paint7_linear_606_2375)" stroke-width="1.5" stroke-linecap="round" stroke-linejoin="round"/>
<path d="M432.12 28.3555L428.06 32.4155L424 28.3555" stroke="url(#paint8_linear_606_2375)" stroke-width="1.5" stroke-linecap="round" stroke-linejoin="round"/>
<path d="M448.341 23.1591L447.943 24.5625H440.494L440.892 23.1591H448.341ZM444.716 32L440.648 27.0625L440.636 25.9545H442.653C443.157 25.9545 443.583 25.8769 443.932 25.7216C444.28 25.5663 444.545 25.3409 444.727 25.0455C444.909 24.7462 445 24.3826 445 23.9545C445 23.3182 444.811 22.8125 444.432 22.4375C444.053 22.0625 443.46 21.875 442.653 21.875H440.494L440.909 20.3636H442.653C443.593 20.3636 444.367 20.5133 444.977 20.8125C445.587 21.1117 446.042 21.5265 446.341 22.0568C446.64 22.5871 446.79 23.1989 446.79 23.892C446.79 24.5095 446.667 25.0682 446.42 25.5682C446.174 26.0682 445.782 26.4754 445.244 26.7898C444.706 27.1042 444 27.2879 443.125 27.3409L443.074 27.3523L446.79 31.9034V32H444.716ZM448.347 20.3636L447.943 21.7784L441.989 21.7443L442.392 20.3636H448.347ZM453.801 20.2045C454.32 20.2083 454.831 20.303 455.335 20.4886C455.839 20.6742 456.294 20.9773 456.699 21.3977C457.108 21.8182 457.434 22.3864 457.676 23.1023C457.922 23.8144 458.047 24.7008 458.051 25.7614C458.051 26.7803 457.949 27.6875 457.744 28.483C457.54 29.2746 457.246 29.9432 456.864 30.4886C456.485 31.0341 456.025 31.4489 455.483 31.733C454.941 32.017 454.331 32.1591 453.653 32.1591C452.96 32.1591 452.345 32.0227 451.807 31.75C451.269 31.4773 450.831 31.1004 450.494 30.6193C450.157 30.1345 449.947 29.5777 449.864 28.9489H451.597C451.71 29.4489 451.941 29.8542 452.29 30.1648C452.642 30.4716 453.097 30.625 453.653 30.625C454.506 30.625 455.17 30.2538 455.648 29.5114C456.125 28.7652 456.366 27.7235 456.369 26.3864H456.278C456.081 26.7121 455.835 26.9924 455.54 27.2273C455.248 27.4621 454.92 27.6439 454.557 27.7727C454.193 27.9015 453.805 27.9659 453.392 27.9659C452.722 27.9659 452.112 27.8011 451.562 27.4716C451.013 27.142 450.576 26.6894 450.25 26.1136C449.924 25.5379 449.761 24.8807 449.761 24.142C449.761 23.4072 449.928 22.7405 450.261 22.142C450.598 21.5436 451.068 21.0701 451.67 20.7216C452.277 20.3693 452.987 20.197 453.801 20.2045ZM453.807 21.6818C453.364 21.6818 452.964 21.7917 452.608 22.0114C452.256 22.2273 451.977 22.5208 451.773 22.892C451.568 23.2595 451.466 23.6686 451.466 24.1193C451.466 24.5701 451.564 24.9792 451.761 25.3466C451.962 25.7102 452.235 26 452.58 26.2159C452.928 26.428 453.326 26.5341 453.773 26.5341C454.106 26.5341 454.417 26.4697 454.705 26.3409C454.992 26.2121 455.244 26.0341 455.46 25.8068C455.676 25.5758 455.845 25.3144 455.966 25.0227C456.087 24.7311 456.148 24.4242 456.148 24.1023C456.148 23.6742 456.045 23.2765 455.841 22.9091C455.64 22.5417 455.364 22.2462 455.011 22.0227C454.659 21.7955 454.258 21.6818 453.807 21.6818ZM464.518 20.3636V32H462.757V22.125H462.689L459.905 23.9432V22.2614L462.808 20.3636H464.518ZM469.227 30.4091L469.142 31.0284C469.085 31.483 468.989 31.9564 468.852 32.4489C468.72 32.9451 468.581 33.4053 468.438 33.8295C468.297 34.2538 468.182 34.5909 468.091 34.8409H466.886C466.936 34.6061 467.004 34.2879 467.091 33.8864C467.178 33.4886 467.263 33.0436 467.347 32.5511C467.43 32.0587 467.492 31.5568 467.534 31.0455L467.591 30.4091H469.227ZM475.244 32.1591C474.725 32.1515 474.214 32.0568 473.71 31.875C473.21 31.6932 472.756 31.3902 472.347 30.9659C471.938 30.5417 471.61 29.9716 471.364 29.2557C471.121 28.5398 471 27.6458 471 26.5739C471 25.5587 471.1 24.6572 471.301 23.8693C471.506 23.0814 471.799 22.4167 472.182 21.875C472.564 21.3295 473.027 20.9148 473.568 20.6307C474.11 20.3466 474.718 20.2045 475.392 20.2045C476.085 20.2045 476.701 20.3409 477.239 20.6136C477.777 20.8864 478.212 21.2633 478.545 21.7443C478.883 22.2254 479.097 22.7727 479.188 23.3864H477.455C477.337 22.9015 477.104 22.5057 476.756 22.1989C476.407 21.892 475.953 21.7386 475.392 21.7386C474.54 21.7386 473.875 22.1098 473.398 22.8523C472.924 23.5947 472.686 24.6269 472.682 25.9489H472.767C472.968 25.6193 473.214 25.339 473.506 25.108C473.801 24.8731 474.131 24.6932 474.494 24.5682C474.862 24.4394 475.248 24.375 475.653 24.375C476.328 24.375 476.938 24.5398 477.483 24.8693C478.032 25.1951 478.47 25.6458 478.795 26.2216C479.121 26.7973 479.284 27.4564 479.284 28.1989C479.284 28.9413 479.116 29.6136 478.778 30.2159C478.445 30.8182 477.975 31.2955 477.369 31.6477C476.763 31.9962 476.055 32.1667 475.244 32.1591ZM475.239 30.6818C475.686 30.6818 476.085 30.572 476.438 30.3523C476.79 30.1326 477.068 29.8371 477.273 29.4659C477.477 29.0947 477.58 28.6799 477.58 28.2216C477.58 27.7746 477.479 27.3674 477.278 27C477.081 26.6326 476.809 26.3409 476.46 26.125C476.116 25.9091 475.722 25.8011 475.278 25.8011C474.941 25.8011 474.629 25.8655 474.341 25.9943C474.057 26.1231 473.807 26.3011 473.591 26.5284C473.375 26.7557 473.205 27.017 473.08 27.3125C472.958 27.6042 472.898 27.9129 472.898 28.2386C472.898 28.6742 472.998 29.0777 473.199 29.4489C473.403 29.8201 473.682 30.1193 474.034 30.3466C474.39 30.5701 474.792 30.6818 475.239 30.6818ZM485.768 20.3636V32H484.007V22.125H483.939L481.155 23.9432V22.2614L484.058 20.3636H485.768ZM489.308 32L494.388 21.9545V21.8693H488.513V20.3636H496.206V21.9205L491.143 32H489.308Z" fill="#9198A1"/>
<g clip-path="url(#clip0_606_2375)">
<path d="M620.544 19H621.311C621.375 19.0197 621.443 19.0111 621.509 19.0226C622.381 19.1074 623.247 19.3694 623.985 19.8481C624.283 20.0405 624.554 20.2722 624.8 20.5272C624.989 20.7404 625.169 20.9626 625.315 21.2073C625.41 21.3522 625.483 21.5093 625.561 21.6638C625.785 22.1455 625.92 22.6671 625.973 23.1953C625.987 23.2806 625.981 23.3679 625.996 23.4531C626.004 23.5568 625.997 23.6611 625.999 23.7652C625.996 23.8853 626.008 24.0064 625.988 24.1255C625.976 24.4333 625.928 24.7387 625.871 25.0411C625.839 25.2214 625.784 25.3962 625.748 25.5756C625.385 27.0295 625.021 28.4833 624.657 29.9372C624.598 30.2065 624.525 30.4728 624.46 30.741C624.416 30.9131 624.372 31.0901 624.272 31.24C624.199 31.3576 624.103 31.459 623.998 31.5479C623.745 31.7496 623.42 31.844 623.1 31.8469C622.964 31.8348 622.827 31.8172 622.697 31.7718C622.562 31.7186 622.426 31.6544 622.327 31.544C622.185 31.4184 622.107 31.2291 622.096 31.0415C622.08 30.9238 622.113 30.8063 622.142 30.693C622.314 30.0038 622.486 29.3148 622.659 28.6257C622.734 28.3347 622.799 28.0413 622.874 27.7504C623.124 26.7466 623.376 25.7429 623.626 24.7391C623.687 24.4932 623.725 24.2421 623.743 23.9897C623.738 23.7952 623.754 23.5998 623.728 23.4065C623.703 23.1649 623.648 22.9248 623.553 22.7002C623.47 22.4821 623.343 22.2831 623.189 22.1082C623.146 22.0423 623.075 22.0038 623.022 21.9467C622.997 21.9216 622.972 21.8973 622.943 21.8765C622.781 21.7531 622.608 21.6405 622.419 21.5639C622.254 21.4828 622.078 21.4258 621.901 21.38C621.655 21.3096 621.401 21.2641 621.146 21.2523C621.032 21.2317 620.916 21.2445 620.801 21.2402C620.71 21.2358 620.622 21.2599 620.531 21.2572C620.109 21.2975 619.691 21.3916 619.294 21.5413C619.031 21.6329 618.782 21.7582 618.537 21.8893C618.245 22.0628 617.962 22.2538 617.712 22.4842C617.626 22.572 617.537 22.658 617.451 22.7459C617.283 22.9424 617.124 23.1529 617.024 23.3935C616.916 23.7449 616.825 24.1013 616.726 24.4552C616.606 24.9131 616.482 25.3701 616.367 25.8294C616.229 26.3489 616.103 26.8719 615.956 27.3893C615.889 27.6064 615.822 27.8234 615.755 28.0401C615.724 28.1589 615.7 28.2811 615.643 28.3909C615.464 28.7824 615.076 29.0623 614.655 29.1357C614.368 29.1914 614.057 29.1528 613.808 28.9957C613.735 28.9397 613.656 28.8878 613.603 28.8112C613.493 28.682 613.43 28.5174 613.408 28.3501C613.405 28.2712 613.374 28.1897 613.408 28.1132C613.75 26.9897 614.023 25.8466 614.322 24.7112C614.489 24.071 614.655 23.4304 614.842 22.7956C614.883 22.6401 614.951 22.4933 615.025 22.3509C615.226 21.9288 615.504 21.5467 615.815 21.1992C615.937 21.0775 616.059 20.9552 616.181 20.8336C616.375 20.6684 616.567 20.4991 616.778 20.355C616.884 20.268 617.005 20.204 617.117 20.126C617.564 19.8422 618.045 19.6115 618.543 19.4312C618.666 19.3903 618.786 19.3388 618.912 19.3067C619.177 19.2284 619.444 19.1579 619.716 19.1101C619.927 19.066 620.141 19.0466 620.354 19.0175C620.417 19.0103 620.482 19.0203 620.544 19Z" fill="#00579C"/>
<path d="M611.631 21.1842C611.705 21.1817 611.779 21.164 611.853 21.1651C612.048 21.1829 612.246 21.2115 612.424 21.2968C612.546 21.3624 612.668 21.4402 612.743 21.5602C612.851 21.6967 612.858 21.8836 612.824 22.0474C612.728 22.4203 612.641 22.7957 612.54 23.1673C612.428 23.6175 612.315 24.0674 612.203 24.5175C612.119 24.86 612.025 25.1997 611.943 25.5424C611.845 25.9328 611.747 26.323 611.65 26.7136C611.566 27.0219 611.492 27.3328 611.414 27.6427C611.326 27.9758 611.256 28.3167 611.252 28.6623C611.235 28.7523 611.239 28.8435 611.252 28.9336C611.258 29.2951 611.339 29.6551 611.49 29.9838C611.563 30.1166 611.635 30.2514 611.732 30.3688C611.807 30.4529 611.875 30.5443 611.964 30.6145C612.063 30.6905 612.155 30.7764 612.265 30.8369C612.38 30.9101 612.502 30.9702 612.626 31.0283C612.903 31.1375 613.191 31.2228 613.485 31.2738C613.759 31.3131 614.037 31.34 614.314 31.3179C615.007 31.2761 615.689 31.077 616.304 30.7555C616.669 30.5706 617.004 30.3291 617.309 30.0576C617.482 29.8905 617.648 29.7142 617.781 29.5129C617.861 29.3898 617.948 29.2658 617.986 29.1212C618.35 27.862 618.659 26.5877 618.997 25.3213C619.066 25.0714 619.15 24.8258 619.223 24.5769C619.293 24.3472 619.401 24.1255 619.562 23.9455C619.647 23.831 619.765 23.7461 619.883 23.669C620.138 23.5056 620.45 23.4435 620.75 23.4722C620.893 23.4895 621.037 23.5246 621.164 23.595C621.323 23.6692 621.462 23.7921 621.543 23.9485C621.623 24.096 621.625 24.2737 621.59 24.434C621.362 25.1915 621.16 25.9563 620.965 26.7226C620.696 27.7537 620.437 28.7877 620.14 29.8115C620.115 29.9041 620.076 29.9925 620.035 30.0793C619.964 30.2499 619.872 30.4102 619.776 30.5681C619.607 30.8444 619.414 31.1067 619.193 31.3436C619.102 31.4568 618.991 31.5508 618.892 31.6559C618.694 31.8371 618.489 32.0122 618.272 32.1704C617.93 32.4231 617.561 32.6373 617.181 32.8269C617.005 32.9056 616.831 32.99 616.65 33.0581C616.493 33.1262 616.327 33.1724 616.167 33.2311C615.918 33.3118 615.664 33.3735 615.41 33.4305C615.313 33.4495 615.215 33.4617 615.118 33.4825C614.97 33.5091 614.819 33.5201 614.67 33.5431C614.594 33.5567 614.515 33.5397 614.44 33.5638H613.673C613.644 33.5558 613.615 33.5503 613.586 33.5497C613.476 33.5478 613.369 33.5218 613.259 33.5157C612.928 33.4708 612.599 33.4039 612.281 33.3007C611.922 33.197 611.58 33.0418 611.253 32.8648C611.016 32.7295 610.793 32.5719 610.582 32.4003C610.517 32.341 610.445 32.2887 610.385 32.2233C610.291 32.1238 610.185 32.0342 610.1 31.9262C609.529 31.2776 609.17 30.4529 609.051 29.5988C609.028 29.4634 609.024 29.3254 609 29.1904V28.4074C609.014 28.3552 609.013 28.3011 609.018 28.2481C609.058 27.8641 609.116 27.4799 609.221 27.1076C609.383 26.4677 609.537 25.8253 609.705 25.1868C609.833 24.6728 609.962 24.159 610.091 23.6451C610.212 23.1939 610.319 22.7387 610.434 22.286C610.465 22.1741 610.482 22.0573 610.533 21.9523C610.592 21.8323 610.654 21.7104 610.752 21.6171C610.8 21.5708 610.844 21.5212 610.895 21.4776C611.103 21.3076 611.366 21.2127 611.631 21.1842Z" fill="#DA251C"/>
</g>
<path d="M639.761 20.3636H641.523V28.017C641.523 28.8314 641.331 29.553 640.949 30.1818C640.566 30.8068 640.028 31.2992 639.335 31.6591C638.642 32.0152 637.83 32.1932 636.898 32.1932C635.97 32.1932 635.159 32.0152 634.466 31.6591C633.773 31.2992 633.235 30.8068 632.852 30.1818C632.47 29.553 632.278 28.8314 632.278 28.017V20.3636H634.034V27.875C634.034 28.4015 634.15 28.8693 634.381 29.2784C634.616 29.6875 634.947 30.0095 635.375 30.2443C635.803 30.4754 636.311 30.5909 636.898 30.5909C637.489 30.5909 637.998 30.4754 638.426 30.2443C638.858 30.0095 639.188 29.6875 639.415 29.2784C639.646 28.8693 639.761 28.4015 639.761 27.875V20.3636ZM645.638 26.8182V32H643.939V23.2727H645.57V24.6932H645.678C645.878 24.2311 646.193 23.8598 646.621 23.5795C647.053 23.2992 647.596 23.1591 648.251 23.1591C648.846 23.1591 649.367 23.2841 649.814 23.5341C650.261 23.7803 650.607 24.1477 650.854 24.6364C651.1 25.125 651.223 25.7292 651.223 26.4489V32H649.524V26.6534C649.524 26.0208 649.359 25.5265 649.03 25.1705C648.7 24.8106 648.248 24.6307 647.672 24.6307C647.278 24.6307 646.928 24.7159 646.621 24.8864C646.318 25.0568 646.077 25.3068 645.899 25.6364C645.725 25.9621 645.638 26.3561 645.638 26.8182ZM653.501 32V23.2727H655.2V32H653.501ZM654.359 21.9261C654.064 21.9261 653.81 21.8277 653.598 21.6307C653.39 21.4299 653.286 21.1913 653.286 20.9148C653.286 20.6345 653.39 20.3958 653.598 20.1989C653.81 19.9981 654.064 19.8977 654.359 19.8977C654.655 19.8977 654.907 19.9981 655.115 20.1989C655.327 20.3958 655.433 20.6345 655.433 20.9148C655.433 21.1913 655.327 21.4299 655.115 21.6307C654.907 21.8277 654.655 21.9261 654.359 21.9261ZM661.162 32.1761C660.344 32.1761 659.63 31.9886 659.02 31.6136C658.41 31.2386 657.937 30.714 657.599 30.0398C657.262 29.3655 657.094 28.5777 657.094 27.6761C657.094 26.7708 657.262 25.9792 657.599 25.3011C657.937 24.6231 658.41 24.0966 659.02 23.7216C659.63 23.3466 660.344 23.1591 661.162 23.1591C661.98 23.1591 662.694 23.3466 663.304 23.7216C663.914 24.0966 664.387 24.6231 664.724 25.3011C665.062 25.9792 665.23 26.7708 665.23 27.6761C665.23 28.5777 665.062 29.3655 664.724 30.0398C664.387 30.714 663.914 31.2386 663.304 31.6136C662.694 31.9886 661.98 32.1761 661.162 32.1761ZM661.168 30.75C661.698 30.75 662.137 30.6098 662.486 30.3295C662.834 30.0492 663.092 29.6761 663.259 29.2102C663.429 28.7443 663.514 28.2311 663.514 27.6705C663.514 27.1136 663.429 26.6023 663.259 26.1364C663.092 25.6667 662.834 25.2898 662.486 25.0057C662.137 24.7216 661.698 24.5795 661.168 24.5795C660.634 24.5795 660.19 24.7216 659.838 25.0057C659.49 25.2898 659.23 25.6667 659.06 26.1364C658.893 26.6023 658.81 27.1136 658.81 27.6705C658.81 28.2311 658.893 28.7443 659.06 29.2102C659.23 29.6761 659.49 30.0492 659.838 30.3295C660.19 30.6098 660.634 30.75 661.168 30.75ZM668.825 26.8182V32H667.126V23.2727H668.757V24.6932H668.865C669.066 24.2311 669.38 23.8598 669.808 23.5795C670.24 23.2992 670.784 23.1591 671.439 23.1591C672.034 23.1591 672.554 23.2841 673.001 23.5341C673.448 23.7803 673.795 24.1477 674.041 24.6364C674.287 25.125 674.411 25.7292 674.411 26.4489V32H672.712V26.6534C672.712 26.0208 672.547 25.5265 672.217 25.1705C671.888 24.8106 671.435 24.6307 670.859 24.6307C670.465 24.6307 670.115 24.7159 669.808 24.8864C669.505 25.0568 669.265 25.3068 669.087 25.6364C668.912 25.9621 668.825 26.3561 668.825 26.8182ZM681.06 32V20.3636H685.321C686.147 20.3636 686.83 20.5 687.372 20.7727C687.914 21.0417 688.319 21.4072 688.588 21.8693C688.857 22.3277 688.991 22.8447 688.991 23.4205C688.991 23.9053 688.902 24.3144 688.724 24.6477C688.546 24.9773 688.308 25.2424 688.009 25.4432C687.713 25.6402 687.387 25.7841 687.031 25.875V25.9886C687.418 26.0076 687.795 26.1326 688.162 26.3636C688.533 26.5909 688.84 26.9148 689.082 27.3352C689.325 27.7557 689.446 28.267 689.446 28.8693C689.446 29.464 689.306 29.9981 689.026 30.4716C688.749 30.9413 688.321 31.3144 687.741 31.5909C687.162 31.8636 686.421 32 685.52 32H681.06ZM682.815 30.4943H685.349C686.19 30.4943 686.793 30.3314 687.156 30.0057C687.52 29.6799 687.702 29.2727 687.702 28.7841C687.702 28.4167 687.609 28.0795 687.423 27.7727C687.238 27.4659 686.973 27.2216 686.628 27.0398C686.287 26.858 685.882 26.767 685.412 26.767H682.815V30.4943ZM682.815 25.3977H685.168C685.562 25.3977 685.916 25.322 686.23 25.1705C686.548 25.0189 686.8 24.8068 686.986 24.5341C687.175 24.2576 687.27 23.9318 687.27 23.5568C687.27 23.0758 687.101 22.6723 686.764 22.3466C686.427 22.0208 685.91 21.858 685.213 21.858H682.815V25.3977ZM693.932 32.1932C693.379 32.1932 692.879 32.0909 692.432 31.8864C691.985 31.678 691.631 31.3769 691.369 30.983C691.112 30.589 690.983 30.1061 690.983 29.5341C690.983 29.0417 691.078 28.6364 691.267 28.3182C691.456 28 691.712 27.7481 692.034 27.5625C692.356 27.3769 692.716 27.2367 693.114 27.142C693.511 27.0473 693.917 26.9754 694.33 26.9261C694.852 26.8655 695.277 26.8163 695.602 26.7784C695.928 26.7367 696.165 26.6705 696.312 26.5795C696.46 26.4886 696.534 26.3409 696.534 26.1364V26.0966C696.534 25.6004 696.394 25.2159 696.114 24.9432C695.837 24.6705 695.424 24.5341 694.875 24.5341C694.303 24.5341 693.852 24.661 693.523 24.9148C693.197 25.1648 692.972 25.4432 692.847 25.75L691.25 25.3864C691.439 24.8561 691.716 24.428 692.08 24.1023C692.447 23.7727 692.869 23.5341 693.347 23.3864C693.824 23.2348 694.326 23.1591 694.852 23.1591C695.201 23.1591 695.57 23.2008 695.96 23.2841C696.354 23.3636 696.722 23.5114 697.062 23.7273C697.407 23.9432 697.689 24.2519 697.909 24.6534C698.129 25.0511 698.239 25.5682 698.239 26.2045V32H696.58V30.8068H696.511C696.402 31.0265 696.237 31.2424 696.017 31.4545C695.797 31.6667 695.515 31.8428 695.17 31.983C694.826 32.1231 694.413 32.1932 693.932 32.1932ZM694.301 30.8295C694.771 30.8295 695.172 30.7367 695.506 30.5511C695.843 30.3655 696.098 30.1231 696.273 29.8239C696.451 29.5208 696.54 29.197 696.54 28.8523V27.7273C696.479 27.7879 696.362 27.8447 696.188 27.8977C696.017 27.947 695.822 27.9905 695.602 28.0284C695.383 28.0625 695.169 28.0947 694.96 28.125C694.752 28.1515 694.578 28.1742 694.438 28.1932C694.108 28.2348 693.807 28.3049 693.534 28.4034C693.265 28.5019 693.049 28.6439 692.886 28.8295C692.727 29.0114 692.648 29.2538 692.648 29.5568C692.648 29.9773 692.803 30.2955 693.114 30.5114C693.424 30.7235 693.82 30.8295 694.301 30.8295ZM702.2 26.8182V32H700.501V23.2727H702.132V24.6932H702.24C702.441 24.2311 702.755 23.8598 703.183 23.5795C703.615 23.2992 704.159 23.1591 704.814 23.1591C705.409 23.1591 705.929 23.2841 706.376 23.5341C706.823 23.7803 707.17 24.1477 707.416 24.6364C707.662 25.125 707.786 25.7292 707.786 26.4489V32H706.087V26.6534C706.087 26.0208 705.922 25.5265 705.592 25.1705C705.263 24.8106 704.81 24.6307 704.234 24.6307C703.84 24.6307 703.49 24.7159 703.183 24.8864C702.88 25.0568 702.64 25.3068 702.462 25.6364C702.287 25.9621 702.2 26.3561 702.2 26.8182ZM711.626 29.0398L711.615 26.9659H711.911L715.388 23.2727H717.422L713.456 27.4773H713.189L711.626 29.0398ZM710.064 32V20.3636H711.763V32H710.064ZM715.575 32L712.45 27.8523L713.621 26.6648L717.661 32H715.575ZM726.881 32.1761C726.063 32.1761 725.348 31.9886 724.739 31.6136C724.129 31.2386 723.655 30.714 723.318 30.0398C722.981 29.3655 722.812 28.5777 722.812 27.6761C722.812 26.7708 722.981 25.9792 723.318 25.3011C723.655 24.6231 724.129 24.0966 724.739 23.7216C725.348 23.3466 726.063 23.1591 726.881 23.1591C727.699 23.1591 728.413 23.3466 729.023 23.7216C729.633 24.0966 730.106 24.6231 730.443 25.3011C730.78 25.9792 730.949 26.7708 730.949 27.6761C730.949 28.5777 730.78 29.3655 730.443 30.0398C730.106 30.714 729.633 31.2386 729.023 31.6136C728.413 31.9886 727.699 32.1761 726.881 32.1761ZM726.886 30.75C727.417 30.75 727.856 30.6098 728.205 30.3295C728.553 30.0492 728.811 29.6761 728.977 29.2102C729.148 28.7443 729.233 28.2311 729.233 27.6705C729.233 27.1136 729.148 26.6023 728.977 26.1364C728.811 25.6667 728.553 25.2898 728.205 25.0057C727.856 24.7216 727.417 24.5795 726.886 24.5795C726.352 24.5795 725.909 24.7216 725.557 25.0057C725.208 25.2898 724.949 25.6667 724.778 26.1364C724.612 26.6023 724.528 27.1136 724.528 27.6705C724.528 28.2311 724.612 28.7443 724.778 29.2102C724.949 29.6761 725.208 30.0492 725.557 30.3295C725.909 30.6098 726.352 30.75 726.886 30.75ZM736.999 23.2727V24.6364H732.067V23.2727H736.999ZM733.419 32V22.2614C733.419 21.7159 733.538 21.2633 733.777 20.9034C734.016 20.5398 734.332 20.2689 734.726 20.0909C735.12 19.9091 735.548 19.8182 736.01 19.8182C736.351 19.8182 736.643 19.8466 736.885 19.9034C737.127 19.9564 737.307 20.0057 737.425 20.0511L737.027 21.4261C736.947 21.4034 736.845 21.3769 736.72 21.3466C736.595 21.3125 736.444 21.2955 736.266 21.2955C735.853 21.2955 735.557 21.3977 735.379 21.6023C735.205 21.8068 735.118 22.1023 735.118 22.4886V32H733.419ZM744.878 20.3636V32H743.122V20.3636H744.878ZM748.997 26.8182V32H747.298V23.2727H748.929V24.6932H749.037C749.238 24.2311 749.552 23.8598 749.98 23.5795C750.412 23.2992 750.955 23.1591 751.611 23.1591C752.205 23.1591 752.726 23.2841 753.173 23.5341C753.62 23.7803 753.967 24.1477 754.213 24.6364C754.459 25.125 754.582 25.7292 754.582 26.4489V32H752.884V26.6534C752.884 26.0208 752.719 25.5265 752.389 25.1705C752.06 24.8106 751.607 24.6307 751.031 24.6307C750.637 24.6307 750.287 24.7159 749.98 24.8864C749.677 25.0568 749.437 25.3068 749.259 25.6364C749.084 25.9621 748.997 26.3561 748.997 26.8182ZM760.128 32.1705C759.423 32.1705 758.795 31.9905 758.241 31.6307C757.692 31.267 757.26 30.75 756.946 30.0795C756.635 29.4053 756.48 28.5966 756.48 27.6534C756.48 26.7102 756.637 25.9034 756.952 25.233C757.27 24.5625 757.705 24.0492 758.259 23.6932C758.812 23.3371 759.438 23.1591 760.139 23.1591C760.681 23.1591 761.116 23.25 761.446 23.4318C761.779 23.6098 762.037 23.8182 762.219 24.0568C762.404 24.2955 762.548 24.5057 762.651 24.6875H762.753V20.3636H764.452V32H762.793V30.642H762.651C762.548 30.8277 762.401 31.0398 762.207 31.2784C762.018 31.517 761.757 31.7254 761.423 31.9034C761.09 32.0814 760.658 32.1705 760.128 32.1705ZM760.503 30.7216C760.991 30.7216 761.404 30.5928 761.741 30.3352C762.082 30.0739 762.34 29.7121 762.514 29.25C762.692 28.7879 762.781 28.25 762.781 27.6364C762.781 27.0303 762.694 26.5 762.52 26.0455C762.346 25.5909 762.09 25.2367 761.753 24.983C761.416 24.7292 760.999 24.6023 760.503 24.6023C759.991 24.6023 759.565 24.7348 759.224 25C758.884 25.2652 758.626 25.6269 758.452 26.0852C758.281 26.5436 758.196 27.0606 758.196 27.6364C758.196 28.2197 758.283 28.7443 758.457 29.2102C758.632 29.6761 758.889 30.0455 759.23 30.3182C759.575 30.5871 759.999 30.7216 760.503 30.7216ZM766.876 32V23.2727H768.575V32H766.876ZM767.734 21.9261C767.439 21.9261 767.185 21.8277 766.973 21.6307C766.765 21.4299 766.661 21.1913 766.661 20.9148C766.661 20.6345 766.765 20.3958 766.973 20.1989C767.185 19.9981 767.439 19.8977 767.734 19.8977C768.03 19.8977 768.282 19.9981 768.49 20.1989C768.702 20.3958 768.808 20.6345 768.808 20.9148C768.808 21.1913 768.702 21.4299 768.49 21.6307C768.282 21.8277 768.03 21.9261 767.734 21.9261ZM773.401 32.1932C772.848 32.1932 772.348 32.0909 771.901 31.8864C771.454 31.678 771.099 31.3769 770.838 30.983C770.58 30.589 770.452 30.1061 770.452 29.5341C770.452 29.0417 770.546 28.6364 770.736 28.3182C770.925 28 771.181 27.7481 771.503 27.5625C771.825 27.3769 772.185 27.2367 772.582 27.142C772.98 27.0473 773.385 26.9754 773.798 26.9261C774.321 26.8655 774.745 26.8163 775.071 26.7784C775.397 26.7367 775.634 26.6705 775.781 26.5795C775.929 26.4886 776.003 26.3409 776.003 26.1364V26.0966C776.003 25.6004 775.863 25.2159 775.582 24.9432C775.306 24.6705 774.893 24.5341 774.344 24.5341C773.772 24.5341 773.321 24.661 772.991 24.9148C772.666 25.1648 772.44 25.4432 772.315 25.75L770.719 25.3864C770.908 24.8561 771.185 24.428 771.548 24.1023C771.916 23.7727 772.338 23.5341 772.815 23.3864C773.293 23.2348 773.795 23.1591 774.321 23.1591C774.67 23.1591 775.039 23.2008 775.429 23.2841C775.823 23.3636 776.19 23.5114 776.531 23.7273C776.876 23.9432 777.158 24.2519 777.378 24.6534C777.598 25.0511 777.707 25.5682 777.707 26.2045V32H776.048V30.8068H775.98C775.87 31.0265 775.705 31.2424 775.486 31.4545C775.266 31.6667 774.984 31.8428 774.639 31.983C774.295 32.1231 773.882 32.1932 773.401 32.1932ZM773.77 30.8295C774.24 30.8295 774.641 30.7367 774.974 30.5511C775.312 30.3655 775.567 30.1231 775.741 29.8239C775.92 29.5208 776.009 29.197 776.009 28.8523V27.7273C775.948 27.7879 775.83 27.8447 775.656 27.8977C775.486 27.947 775.291 27.9905 775.071 28.0284C774.851 28.0625 774.637 28.0947 774.429 28.125C774.221 28.1515 774.046 28.1742 773.906 28.1932C773.577 28.2348 773.276 28.3049 773.003 28.4034C772.734 28.5019 772.518 28.6439 772.355 28.8295C772.196 29.0114 772.116 29.2538 772.116 29.5568C772.116 29.9773 772.272 30.2955 772.582 30.5114C772.893 30.7235 773.289 30.8295 773.77 30.8295Z" fill="#9198A1"/>
<circle cx="1176" cy="26" r="8" fill="#13EE42"/>
<path d="M1194.05 32H1190.28V20.3636H1194.16C1195.3 20.3636 1196.28 20.5966 1197.1 21.0625C1197.92 21.5246 1198.55 22.1894 1198.98 23.0568C1199.42 23.9205 1199.64 24.9564 1199.64 26.1648C1199.64 27.3769 1199.42 28.4186 1198.98 29.2898C1198.54 30.161 1197.9 30.8314 1197.07 31.3011C1196.23 31.767 1195.23 32 1194.05 32ZM1192.03 30.4659H1193.95C1194.84 30.4659 1195.57 30.2992 1196.16 29.9659C1196.75 29.6288 1197.19 29.142 1197.48 28.5057C1197.77 27.8655 1197.91 27.0852 1197.91 26.1648C1197.91 25.2519 1197.77 24.4773 1197.48 23.8409C1197.19 23.2045 1196.76 22.7216 1196.19 22.392C1195.62 22.0625 1194.91 21.8977 1194.06 21.8977H1192.03V30.4659ZM1205.37 32.1761C1204.55 32.1761 1203.83 31.9886 1203.22 31.6136C1202.61 31.2386 1202.14 30.714 1201.8 30.0398C1201.47 29.3655 1201.3 28.5777 1201.3 27.6761C1201.3 26.7708 1201.47 25.9792 1201.8 25.3011C1202.14 24.6231 1202.61 24.0966 1203.22 23.7216C1203.83 23.3466 1204.55 23.1591 1205.37 23.1591C1206.18 23.1591 1206.9 23.3466 1207.51 23.7216C1208.12 24.0966 1208.59 24.6231 1208.93 25.3011C1209.26 25.9792 1209.43 26.7708 1209.43 27.6761C1209.43 28.5777 1209.26 29.3655 1208.93 30.0398C1208.59 30.714 1208.12 31.2386 1207.51 31.6136C1206.9 31.9886 1206.18 32.1761 1205.37 32.1761ZM1205.37 30.75C1205.9 30.75 1206.34 30.6098 1206.69 30.3295C1207.04 30.0492 1207.29 29.6761 1207.46 29.2102C1207.63 28.7443 1207.72 28.2311 1207.72 27.6705C1207.72 27.1136 1207.63 26.6023 1207.46 26.1364C1207.29 25.6667 1207.04 25.2898 1206.69 25.0057C1206.34 24.7216 1205.9 24.5795 1205.37 24.5795C1204.84 24.5795 1204.39 24.7216 1204.04 25.0057C1203.69 25.2898 1203.43 25.6667 1203.26 26.1364C1203.1 26.6023 1203.01 27.1136 1203.01 27.6705C1203.01 28.2311 1203.1 28.7443 1203.26 29.2102C1203.43 29.6761 1203.69 30.0492 1204.04 30.3295C1204.39 30.6098 1204.84 30.75 1205.37 30.75ZM1213.03 26.8182V32H1211.33V23.2727H1212.96V24.6932H1213.07C1213.27 24.2311 1213.58 23.8598 1214.01 23.5795C1214.44 23.2992 1214.99 23.1591 1215.64 23.1591C1216.24 23.1591 1216.76 23.2841 1217.2 23.5341C1217.65 23.7803 1218 24.1477 1218.24 24.6364C1218.49 25.125 1218.61 25.7292 1218.61 26.4489V32H1216.91V26.6534C1216.91 26.0208 1216.75 25.5265 1216.42 25.1705C1216.09 24.8106 1215.64 24.6307 1215.06 24.6307C1214.67 24.6307 1214.32 24.7159 1214.01 24.8864C1213.71 25.0568 1213.47 25.3068 1213.29 25.6364C1213.12 25.9621 1213.03 26.3561 1213.03 26.8182ZM1224.65 32.1761C1223.79 32.1761 1223.05 31.9924 1222.43 31.625C1221.81 31.2538 1221.34 30.733 1221 30.0625C1220.67 29.3883 1220.5 28.5985 1220.5 27.6932C1220.5 26.7992 1220.67 26.0114 1221 25.3295C1221.34 24.6477 1221.81 24.1155 1222.41 23.733C1223.02 23.3504 1223.72 23.1591 1224.53 23.1591C1225.03 23.1591 1225.5 23.2405 1225.97 23.4034C1226.43 23.5663 1226.84 23.822 1227.21 24.1705C1227.58 24.5189 1227.87 24.9716 1228.08 25.5284C1228.29 26.0814 1228.4 26.7538 1228.4 27.5455V28.1477H1221.46V26.875H1226.73C1226.73 26.428 1226.64 26.0322 1226.46 25.6875C1226.28 25.339 1226.02 25.0644 1225.69 24.8636C1225.37 24.6629 1224.98 24.5625 1224.55 24.5625C1224.07 24.5625 1223.65 24.6799 1223.3 24.9148C1222.94 25.1458 1222.67 25.4489 1222.48 25.8239C1222.29 26.1951 1222.19 26.5985 1222.19 27.0341V28.0284C1222.19 28.6117 1222.3 29.108 1222.5 29.517C1222.71 29.9261 1223 30.2386 1223.37 30.4545C1223.74 30.6667 1224.17 30.7727 1224.67 30.7727C1224.99 30.7727 1225.29 30.7273 1225.55 30.6364C1225.82 30.5417 1226.05 30.4015 1226.24 30.2159C1226.43 30.0303 1226.58 29.8011 1226.68 29.5284L1228.29 29.8182C1228.16 30.2917 1227.93 30.7064 1227.6 31.0625C1227.27 31.4148 1226.85 31.6894 1226.35 31.8864C1225.86 32.0795 1225.29 32.1761 1224.65 32.1761Z" fill="#9198A1"/>
<g clip-path="url(#clip1_606_2375)">
<path d="M1015.77 27.9535C1016.85 23.3855 1014.02 18.8081 1009.45 17.7295C1004.88 16.6508 1000.31 19.4795 999.229 24.0474C998.15 28.6153 1000.98 33.1928 1005.55 34.2714C1010.11 35.35 1014.69 32.5214 1015.77 27.9535Z" fill="#5F259F"/>
<path d="M1011.36 23.7824C1011.36 23.4501 1011.07 23.165 1010.74 23.165H1009.6L1006.99 20.1739C1006.75 19.8892 1006.37 19.7941 1005.99 19.8892L1005.09 20.1739C1004.95 20.2214 1004.9 20.4115 1005 20.5062L1007.84 23.2125H1003.52C1003.38 23.2125 1003.29 23.3075 1003.29 23.4501V23.9246C1003.29 24.2572 1003.57 24.5419 1003.9 24.5419H1004.57V26.8209C1004.57 28.5301 1005.47 29.527 1006.99 29.527C1007.46 29.527 1007.84 29.4794 1008.32 29.2897V30.8088C1008.32 31.2362 1008.65 31.5687 1009.08 31.5687H1009.74C1009.89 31.5687 1010.03 31.4262 1010.03 31.2836V24.4944H1011.12C1011.26 24.4944 1011.36 24.3994 1011.36 24.2572V23.7824H1011.36ZM1008.32 27.8652C1008.03 28.0078 1007.65 28.0553 1007.37 28.0553C1006.61 28.0553 1006.23 27.6755 1006.23 26.8209V24.5419H1008.32V27.8652Z" fill="white"/>
</g>
<path d="M1024.28 32V20.3636H1028.43C1029.33 20.3636 1030.08 20.5284 1030.68 20.858C1031.27 21.1875 1031.72 21.6383 1032.01 22.2102C1032.31 22.7784 1032.45 23.4186 1032.45 24.1307C1032.45 24.8466 1032.3 25.4905 1032.01 26.0625C1031.71 26.6307 1031.26 27.0814 1030.66 27.4148C1030.07 27.7443 1029.32 27.9091 1028.42 27.9091H1025.57V26.4205H1028.26C1028.83 26.4205 1029.3 26.322 1029.65 26.125C1030.01 25.9242 1030.27 25.6515 1030.44 25.3068C1030.6 24.9621 1030.69 24.5701 1030.69 24.1307C1030.69 23.6913 1030.6 23.3011 1030.44 22.9602C1030.27 22.6193 1030.01 22.3523 1029.65 22.1591C1029.29 21.9659 1028.82 21.8693 1028.24 21.8693H1026.03V32H1024.28ZM1036.08 26.8182V32H1034.38V20.3636H1036.05V24.6932H1036.16C1036.37 24.2235 1036.68 23.8504 1037.1 23.5739C1037.52 23.2973 1038.07 23.1591 1038.75 23.1591C1039.34 23.1591 1039.87 23.2822 1040.31 23.5284C1040.76 23.7746 1041.11 24.142 1041.36 24.6307C1041.61 25.1155 1041.73 25.7216 1041.73 26.4489V32H1040.04V26.6534C1040.04 26.0133 1039.87 25.517 1039.54 25.1648C1039.21 24.8087 1038.75 24.6307 1038.17 24.6307C1037.76 24.6307 1037.4 24.7159 1037.09 24.8864C1036.77 25.0568 1036.52 25.3068 1036.34 25.6364C1036.16 25.9621 1036.08 26.3561 1036.08 26.8182ZM1047.68 32.1761C1046.86 32.1761 1046.15 31.9886 1045.54 31.6136C1044.93 31.2386 1044.45 30.714 1044.12 30.0398C1043.78 29.3655 1043.61 28.5777 1043.61 27.6761C1043.61 26.7708 1043.78 25.9792 1044.12 25.3011C1044.45 24.6231 1044.93 24.0966 1045.54 23.7216C1046.15 23.3466 1046.86 23.1591 1047.68 23.1591C1048.5 23.1591 1049.21 23.3466 1049.82 23.7216C1050.43 24.0966 1050.9 24.6231 1051.24 25.3011C1051.58 25.9792 1051.75 26.7708 1051.75 27.6761C1051.75 28.5777 1051.58 29.3655 1051.24 30.0398C1050.9 30.714 1050.43 31.2386 1049.82 31.6136C1049.21 31.9886 1048.5 32.1761 1047.68 32.1761ZM1047.68 30.75C1048.21 30.75 1048.65 30.6098 1049 30.3295C1049.35 30.0492 1049.61 29.6761 1049.77 29.2102C1049.94 28.7443 1050.03 28.2311 1050.03 27.6705C1050.03 27.1136 1049.94 26.6023 1049.77 26.1364C1049.61 25.6667 1049.35 25.2898 1049 25.0057C1048.65 24.7216 1048.21 24.5795 1047.68 24.5795C1047.15 24.5795 1046.71 24.7216 1046.35 25.0057C1046.01 25.2898 1045.75 25.6667 1045.58 26.1364C1045.41 26.6023 1045.33 27.1136 1045.33 27.6705C1045.33 28.2311 1045.41 28.7443 1045.58 29.2102C1045.75 29.6761 1046.01 30.0492 1046.35 30.3295C1046.71 30.6098 1047.15 30.75 1047.68 30.75ZM1055.34 26.8182V32H1053.64V23.2727H1055.27V24.6932H1055.38C1055.58 24.2311 1055.9 23.8598 1056.32 23.5795C1056.76 23.2992 1057.3 23.1591 1057.95 23.1591C1058.55 23.1591 1059.07 23.2841 1059.52 23.5341C1059.96 23.7803 1060.31 24.1477 1060.56 24.6364C1060.8 25.125 1060.93 25.7292 1060.93 26.4489V32H1059.23V26.6534C1059.23 26.0208 1059.06 25.5265 1058.73 25.1705C1058.4 24.8106 1057.95 24.6307 1057.38 24.6307C1056.98 24.6307 1056.63 24.7159 1056.32 24.8864C1056.02 25.0568 1055.78 25.3068 1055.6 25.6364C1055.43 25.9621 1055.34 26.3561 1055.34 26.8182ZM1066.97 32.1761C1066.11 32.1761 1065.37 31.9924 1064.74 31.625C1064.13 31.2538 1063.65 30.733 1063.31 30.0625C1062.98 29.3883 1062.81 28.5985 1062.81 27.6932C1062.81 26.7992 1062.98 26.0114 1063.31 25.3295C1063.65 24.6477 1064.12 24.1155 1064.72 23.733C1065.33 23.3504 1066.04 23.1591 1066.85 23.1591C1067.34 23.1591 1067.82 23.2405 1068.28 23.4034C1068.74 23.5663 1069.16 23.822 1069.52 24.1705C1069.89 24.5189 1070.18 24.9716 1070.39 25.5284C1070.6 26.0814 1070.71 26.7538 1070.71 27.5455V28.1477H1063.77V26.875H1069.05C1069.05 26.428 1068.95 26.0322 1068.77 25.6875C1068.59 25.339 1068.34 25.0644 1068.01 24.8636C1067.68 24.6629 1067.3 24.5625 1066.86 24.5625C1066.38 24.5625 1065.96 24.6799 1065.61 24.9148C1065.26 25.1458 1064.98 25.4489 1064.79 25.8239C1064.6 26.1951 1064.51 26.5985 1064.51 27.0341V28.0284C1064.51 28.6117 1064.61 29.108 1064.81 29.517C1065.02 29.9261 1065.31 30.2386 1065.68 30.4545C1066.05 30.6667 1066.49 30.7727 1066.98 30.7727C1067.3 30.7727 1067.6 30.7273 1067.86 30.6364C1068.13 30.5417 1068.36 30.4015 1068.55 30.2159C1068.74 30.0303 1068.89 29.8011 1068.99 29.5284L1070.6 29.8182C1070.47 30.2917 1070.24 30.7064 1069.91 31.0625C1069.58 31.4148 1069.16 31.6894 1068.66 31.8864C1068.17 32.0795 1067.6 32.1761 1066.97 32.1761ZM1072.73 32V20.3636H1076.88C1077.78 20.3636 1078.53 20.5284 1079.13 20.858C1079.72 21.1875 1080.17 21.6383 1080.46 22.2102C1080.76 22.7784 1080.91 23.4186 1080.91 24.1307C1080.91 24.8466 1080.76 25.4905 1080.46 26.0625C1080.16 26.6307 1079.72 27.0814 1079.12 27.4148C1078.52 27.7443 1077.78 27.9091 1076.87 27.9091H1074.02V26.4205H1076.71C1077.29 26.4205 1077.75 26.322 1078.11 26.125C1078.46 25.9242 1078.72 25.6515 1078.89 25.3068C1079.06 24.9621 1079.14 24.5701 1079.14 24.1307C1079.14 23.6913 1079.06 23.3011 1078.89 22.9602C1078.72 22.6193 1078.46 22.3523 1078.1 22.1591C1077.74 21.9659 1077.28 21.8693 1076.69 21.8693H1074.49V32H1072.73ZM1086.48 32.1761C1085.62 32.1761 1084.88 31.9924 1084.26 31.625C1083.64 31.2538 1083.17 30.733 1082.83 30.0625C1082.49 29.3883 1082.33 28.5985 1082.33 27.6932C1082.33 26.7992 1082.49 26.0114 1082.83 25.3295C1083.17 24.6477 1083.63 24.1155 1084.24 23.733C1084.84 23.3504 1085.55 23.1591 1086.36 23.1591C1086.85 23.1591 1087.33 23.2405 1087.79 23.4034C1088.26 23.5663 1088.67 23.822 1089.04 24.1705C1089.41 24.5189 1089.7 24.9716 1089.91 25.5284C1090.12 26.0814 1090.23 26.7538 1090.23 27.5455V28.1477H1083.29V26.875H1088.56C1088.56 26.428 1088.47 26.0322 1088.29 25.6875C1088.11 25.339 1087.85 25.0644 1087.52 24.8636C1087.2 24.6629 1086.81 24.5625 1086.37 24.5625C1085.9 24.5625 1085.48 24.6799 1085.12 24.9148C1084.77 25.1458 1084.5 25.4489 1084.31 25.8239C1084.12 26.1951 1084.02 26.5985 1084.02 27.0341V28.0284C1084.02 28.6117 1084.12 29.108 1084.33 29.517C1084.54 29.9261 1084.83 30.2386 1085.2 30.4545C1085.57 30.6667 1086 30.7727 1086.5 30.7727C1086.82 30.7727 1087.11 30.7273 1087.38 30.6364C1087.64 30.5417 1087.87 30.4015 1088.07 30.2159C1088.26 30.0303 1088.41 29.8011 1088.51 29.5284L1090.12 29.8182C1089.99 30.2917 1089.76 30.7064 1089.42 31.0625C1089.1 31.4148 1088.68 31.6894 1088.18 31.8864C1087.68 32.0795 1087.12 32.1761 1086.48 32.1761Z" fill="#9198A1"/>
<path fill-rule="evenodd" clip-rule="evenodd" d="M844.728 18C844.326 18 844 18.3256 844 18.7273C844 19.1289 844.326 19.4545 844.728 19.4545H845.615L848.21 29.8232C847.445 30.1626 846.912 30.9281 846.912 31.8182C846.912 33.0232 847.889 34 849.095 34C850.301 34 851.279 33.0232 851.279 31.8182C851.279 31.5632 851.235 31.3184 851.155 31.0909H854.315C854.234 31.3184 854.19 31.5632 854.19 31.8182C854.19 33.0232 855.168 34 856.374 34C857.58 34 858.558 33.0232 858.558 31.8182C858.558 30.6132 857.58 29.6364 856.374 29.6364H849.664L849.3 28.1818H856.374C857.877 28.1818 858.778 27.2334 859.277 26.1861C859.766 25.1627 859.936 23.9396 859.995 23.0499C860.078 21.811 859.053 20.9091 857.918 20.9091H847.48L847.028 19.1018C846.866 18.4542 846.283 18 845.615 18H844.728ZM856.374 26.7273H848.936L847.844 22.3636H857.918C858.321 22.3636 858.562 22.6595 858.543 22.9533C858.487 23.7834 858.333 24.7868 857.964 25.5599C857.606 26.3092 857.117 26.7273 856.374 26.7273ZM856.374 32.5409C855.975 32.5409 855.651 32.2174 855.651 31.8182C855.651 31.419 855.975 31.0954 856.374 31.0954C856.774 31.0954 857.097 31.419 857.097 31.8182C857.097 32.2174 856.774 32.5409 856.374 32.5409ZM848.372 31.8182C848.372 32.2174 848.696 32.5409 849.095 32.5409C849.495 32.5409 849.819 32.2174 849.819 31.8182C849.819 31.419 849.495 31.0954 849.095 31.0954C848.696 31.0954 848.372 31.419 848.372 31.8182Z" fill="#9198A1"/>
<path d="M875.625 23.4205C875.564 22.8826 875.314 22.4659 874.875 22.1705C874.436 21.8712 873.883 21.7216 873.216 21.7216C872.739 21.7216 872.326 21.7973 871.977 21.9489C871.629 22.0966 871.358 22.3011 871.165 22.5625C870.975 22.8201 870.881 23.1136 870.881 23.4432C870.881 23.7197 870.945 23.9583 871.074 24.1591C871.206 24.3598 871.379 24.5284 871.591 24.6648C871.807 24.7973 872.038 24.9091 872.284 25C872.53 25.0871 872.767 25.1591 872.994 25.2159L874.131 25.5114C874.502 25.6023 874.883 25.7254 875.273 25.8807C875.663 26.036 876.025 26.2405 876.358 26.4943C876.691 26.7481 876.96 27.0625 877.165 27.4375C877.373 27.8125 877.477 28.2614 877.477 28.7841C877.477 29.4432 877.307 30.0284 876.966 30.5398C876.629 31.0511 876.138 31.4545 875.494 31.75C874.854 32.0455 874.08 32.1932 873.17 32.1932C872.299 32.1932 871.545 32.0549 870.909 31.7784C870.273 31.5019 869.775 31.1098 869.415 30.6023C869.055 30.0909 868.856 29.4848 868.818 28.7841H870.58C870.614 29.2045 870.75 29.5549 870.989 29.8352C871.231 30.1117 871.54 30.3182 871.915 30.4545C872.294 30.5871 872.708 30.6534 873.159 30.6534C873.655 30.6534 874.097 30.5758 874.483 30.4205C874.873 30.2614 875.18 30.0417 875.403 29.7614C875.627 29.4773 875.739 29.1458 875.739 28.767C875.739 28.4223 875.64 28.1402 875.443 27.9205C875.25 27.7008 874.987 27.5189 874.653 27.375C874.324 27.2311 873.951 27.1042 873.534 26.9943L872.159 26.6193C871.227 26.3655 870.489 25.9924 869.943 25.5C869.402 25.0076 869.131 24.3561 869.131 23.5455C869.131 22.875 869.313 22.2898 869.676 21.7898C870.04 21.2898 870.532 20.9015 871.153 20.625C871.775 20.3447 872.475 20.2045 873.256 20.2045C874.044 20.2045 874.739 20.3428 875.341 20.6193C875.947 20.8958 876.424 21.2765 876.773 21.7614C877.121 22.2424 877.303 22.7955 877.318 23.4205H875.625ZM881.138 26.8182V32H879.439V20.3636H881.115V24.6932H881.223C881.428 24.2235 881.74 23.8504 882.161 23.5739C882.581 23.2973 883.13 23.1591 883.808 23.1591C884.407 23.1591 884.929 23.2822 885.376 23.5284C885.827 23.7746 886.176 24.142 886.422 24.6307C886.672 25.1155 886.797 25.7216 886.797 26.4489V32H885.098V26.6534C885.098 26.0133 884.933 25.517 884.604 25.1648C884.274 24.8087 883.816 24.6307 883.229 24.6307C882.827 24.6307 882.467 24.7159 882.149 24.8864C881.835 25.0568 881.587 25.3068 881.405 25.6364C881.227 25.9621 881.138 26.3561 881.138 26.8182ZM892.74 32.1761C891.922 32.1761 891.208 31.9886 890.598 31.6136C889.988 31.2386 889.515 30.714 889.178 30.0398C888.84 29.3655 888.672 28.5777 888.672 27.6761C888.672 26.7708 888.84 25.9792 889.178 25.3011C889.515 24.6231 889.988 24.0966 890.598 23.7216C891.208 23.3466 891.922 23.1591 892.74 23.1591C893.558 23.1591 894.272 23.3466 894.882 23.7216C895.492 24.0966 895.965 24.6231 896.303 25.3011C896.64 25.9792 896.808 26.7708 896.808 27.6761C896.808 28.5777 896.64 29.3655 896.303 30.0398C895.965 30.714 895.492 31.2386 894.882 31.6136C894.272 31.9886 893.558 32.1761 892.74 32.1761ZM892.746 30.75C893.276 30.75 893.715 30.6098 894.064 30.3295C894.412 30.0492 894.67 29.6761 894.837 29.2102C895.007 28.7443 895.092 28.2311 895.092 27.6705C895.092 27.1136 895.007 26.6023 894.837 26.1364C894.67 25.6667 894.412 25.2898 894.064 25.0057C893.715 24.7216 893.276 24.5795 892.746 24.5795C892.212 24.5795 891.768 24.7216 891.416 25.0057C891.068 25.2898 890.808 25.6667 890.638 26.1364C890.471 26.6023 890.388 27.1136 890.388 27.6705C890.388 28.2311 890.471 28.7443 890.638 29.2102C890.808 29.6761 891.068 30.0492 891.416 30.3295C891.768 30.6098 892.212 30.75 892.746 30.75ZM898.705 35.2727V23.2727H900.364V24.6875H900.506C900.604 24.5057 900.746 24.2955 900.932 24.0568C901.117 23.8182 901.375 23.6098 901.705 23.4318C902.034 23.25 902.47 23.1591 903.011 23.1591C903.716 23.1591 904.345 23.3371 904.898 23.6932C905.451 24.0492 905.884 24.5625 906.199 25.233C906.517 25.9034 906.676 26.7102 906.676 27.6534C906.676 28.5966 906.519 29.4053 906.205 30.0795C905.89 30.75 905.458 31.267 904.909 31.6307C904.36 31.9905 903.733 32.1705 903.028 32.1705C902.498 32.1705 902.064 32.0814 901.727 31.9034C901.394 31.7254 901.133 31.517 900.943 31.2784C900.754 31.0398 900.608 30.8277 900.506 30.642H900.403V35.2727H898.705ZM900.369 27.6364C900.369 28.25 900.458 28.7879 900.636 29.25C900.814 29.7121 901.072 30.0739 901.409 30.3352C901.746 30.5928 902.159 30.7216 902.648 30.7216C903.155 30.7216 903.58 30.5871 903.92 30.3182C904.261 30.0455 904.519 29.6761 904.693 29.2102C904.871 28.7443 904.96 28.2197 904.96 27.6364C904.96 27.0606 904.873 26.5436 904.699 26.0852C904.528 25.6269 904.271 25.2652 903.926 25C903.585 24.7348 903.159 24.6023 902.648 24.6023C902.155 24.6023 901.739 24.7292 901.398 24.983C901.061 25.2367 900.805 25.5909 900.631 26.0455C900.456 26.5 900.369 27.0303 900.369 27.6364ZM908.58 35.2727V23.2727H910.239V24.6875H910.381C910.479 24.5057 910.621 24.2955 910.807 24.0568C910.992 23.8182 911.25 23.6098 911.58 23.4318C911.909 23.25 912.345 23.1591 912.886 23.1591C913.591 23.1591 914.22 23.3371 914.773 23.6932C915.326 24.0492 915.759 24.5625 916.074 25.233C916.392 25.9034 916.551 26.7102 916.551 27.6534C916.551 28.5966 916.394 29.4053 916.08 30.0795C915.765 30.75 915.333 31.267 914.784 31.6307C914.235 31.9905 913.608 32.1705 912.903 32.1705C912.373 32.1705 911.939 32.0814 911.602 31.9034C911.269 31.7254 911.008 31.517 910.818 31.2784C910.629 31.0398 910.483 30.8277 910.381 30.642H910.278V35.2727H908.58ZM910.244 27.6364C910.244 28.25 910.333 28.7879 910.511 29.25C910.689 29.7121 910.947 30.0739 911.284 30.3352C911.621 30.5928 912.034 30.7216 912.523 30.7216C913.03 30.7216 913.455 30.5871 913.795 30.3182C914.136 30.0455 914.394 29.6761 914.568 29.2102C914.746 28.7443 914.835 28.2197 914.835 27.6364C914.835 27.0606 914.748 26.5436 914.574 26.0852C914.403 25.6269 914.146 25.2652 913.801 25C913.46 24.7348 913.034 24.6023 912.523 24.6023C912.03 24.6023 911.614 24.7292 911.273 24.983C910.936 25.2367 910.68 25.5909 910.506 26.0455C910.331 26.5 910.244 27.0303 910.244 27.6364ZM918.455 32V23.2727H920.153V32H918.455ZM919.312 21.9261C919.017 21.9261 918.763 21.8277 918.551 21.6307C918.343 21.4299 918.239 21.1913 918.239 20.9148C918.239 20.6345 918.343 20.3958 918.551 20.1989C918.763 19.9981 919.017 19.8977 919.312 19.8977C919.608 19.8977 919.86 19.9981 920.068 20.1989C920.28 20.3958 920.386 20.6345 920.386 20.9148C920.386 21.1913 920.28 21.4299 920.068 21.6307C919.86 21.8277 919.608 21.9261 919.312 21.9261ZM924.138 26.8182V32H922.439V23.2727H924.07V24.6932H924.178C924.378 24.2311 924.693 23.8598 925.121 23.5795C925.553 23.2992 926.096 23.1591 926.751 23.1591C927.346 23.1591 927.867 23.2841 928.314 23.5341C928.761 23.7803 929.107 24.1477 929.354 24.6364C929.6 25.125 929.723 25.7292 929.723 26.4489V32H928.024V26.6534C928.024 26.0208 927.859 25.5265 927.53 25.1705C927.2 24.8106 926.748 24.6307 926.172 24.6307C925.778 24.6307 925.428 24.7159 925.121 24.8864C924.818 25.0568 924.577 25.3068 924.399 25.6364C924.225 25.9621 924.138 26.3561 924.138 26.8182ZM935.661 35.4545C934.967 35.4545 934.371 35.3636 933.871 35.1818C933.375 35 932.969 34.7595 932.655 34.4602C932.34 34.161 932.106 33.8333 931.95 33.4773L933.411 32.875C933.513 33.0417 933.649 33.2178 933.82 33.4034C933.994 33.5928 934.229 33.7538 934.524 33.8864C934.823 34.0189 935.208 34.0852 935.678 34.0852C936.321 34.0852 936.854 33.928 937.274 33.6136C937.695 33.303 937.905 32.8068 937.905 32.125V30.4091H937.797C937.695 30.5947 937.547 30.8011 937.354 31.0284C937.164 31.2557 936.903 31.4527 936.57 31.6193C936.236 31.786 935.803 31.8693 935.268 31.8693C934.579 31.8693 933.958 31.7083 933.405 31.3864C932.856 31.0606 932.42 30.5814 932.098 29.9489C931.78 29.3125 931.621 28.5303 931.621 27.6023C931.621 26.6742 931.778 25.8788 932.092 25.2159C932.411 24.553 932.846 24.0455 933.399 23.6932C933.952 23.3371 934.579 23.1591 935.28 23.1591C935.821 23.1591 936.259 23.25 936.592 23.4318C936.926 23.6098 937.185 23.8182 937.371 24.0568C937.56 24.2955 937.706 24.5057 937.808 24.6875H937.933V23.2727H939.598V32.1932C939.598 32.9432 939.424 33.5587 939.075 34.0398C938.727 34.5208 938.255 34.8769 937.661 35.108C937.07 35.339 936.403 35.4545 935.661 35.4545ZM935.643 30.4602C936.132 30.4602 936.545 30.3466 936.882 30.1193C937.223 29.8883 937.481 29.5587 937.655 29.1307C937.833 28.6989 937.922 28.1818 937.922 27.5795C937.922 26.9924 937.835 26.4754 937.661 26.0284C937.486 25.5814 937.231 25.233 936.893 24.983C936.556 24.7292 936.14 24.6023 935.643 24.6023C935.132 24.6023 934.706 24.7348 934.365 25C934.024 25.2614 933.767 25.6174 933.592 26.0682C933.422 26.5189 933.337 27.0227 933.337 27.5795C933.337 28.1515 933.424 28.6534 933.598 29.0852C933.772 29.517 934.03 29.8542 934.371 30.0966C934.715 30.339 935.14 30.4602 935.643 30.4602Z" fill="#9198A1"/>
<defs>
<linearGradient id="paint0_linear_606_2375" x1="0" y1="0" x2="1244.31" y2="239.586" gradientUnits="userSpaceOnUse">
<stop stop-color="white" stop-opacity="0.7"/>
<stop offset="1" stop-color="#999999" stop-opacity="0.35"/>
</linearGradient>
<linearGradient id="paint1_linear_606_2375" x1="37.821" y1="11" x2="63.9609" y2="38.9741" gradientUnits="userSpaceOnUse">
<stop stop-color="#FAB823"/>
<stop offset="0.2" stop-color="#F9A315"/>
<stop offset="0.4" stop-color="#F68D03"/>
<stop offset="0.6" stop-color="#F3770D"/>
<stop offset="0.8" stop-color="#F16B10"/>
<stop offset="1" stop-color="#EE5F13"/>
</linearGradient>
<linearGradient id="paint2_linear_606_2375" x1="11" y1="11" x2="64" y2="64" gradientUnits="userSpaceOnUse">
<stop stop-color="white"/>
<stop offset="1" stop-color="#585858"/>
</linearGradient>
<linearGradient id="paint3_linear_606_2375" x1="427.428" y1="21.001" x2="429.697" y2="21.2536" gradientUnits="userSpaceOnUse">
<stop stop-color="#13EE42"/>
<stop offset="1" stop-color="#23FA8F"/>
</linearGradient>
<linearGradient id="paint4_linear_606_2375" x1="424" y1="28.3555" x2="432.12" y2="28.3555" gradientUnits="userSpaceOnUse">
<stop stop-color="#FF0303"/>
<stop offset="1" stop-color="#FA5923"/>
</linearGradient>
<linearGradient id="paint5_linear_606_2375" x1="427.428" y1="21.001" x2="429.697" y2="21.2536" gradientUnits="userSpaceOnUse">
<stop stop-color="#13EE42"/>
<stop offset="1" stop-color="#23FA8F"/>
</linearGradient>
<linearGradient id="paint6_linear_606_2375" x1="424" y1="28.3555" x2="432.12" y2="28.3555" gradientUnits="userSpaceOnUse">
<stop stop-color="#FF0303"/>
<stop offset="1" stop-color="#FA5923"/>
</linearGradient>
<linearGradient id="paint7_linear_606_2375" x1="427.428" y1="21.001" x2="429.697" y2="21.2536" gradientUnits="userSpaceOnUse">
<stop stop-color="#FF0303"/>
<stop offset="1" stop-color="#FA2323"/>
</linearGradient>
<linearGradient id="paint8_linear_606_2375" x1="424" y1="28.3555" x2="432.12" y2="28.3555" gradientUnits="userSpaceOnUse">
<stop stop-color="#FF0303"/>
<stop offset="1" stop-color="#FA2323"/>
</linearGradient>
<clipPath id="clip0_606_2375">
<rect width="17" height="14.564" fill="white" transform="translate(609 19)"/>
</clipPath>
<clipPath id="clip1_606_2375">
<rect width="17" height="17" fill="white" transform="translate(999 17.5)"/>
</clipPath>
</defs>
</svg>
