<svg width="53" height="53" viewBox="0 0 53 53" fill="none" xmlns="http://www.w3.org/2000/svg">
<rect width="53" height="53" rx="26.5" fill="url(#paint0_linear_596_1620)"/>
<path d="M16.6146 21.3182H18.8717L21.8944 28.696H22.0138L25.0365 21.3182H27.2936V31.5H25.5237V24.505H25.4292L22.6153 31.4702H21.2929L18.479 24.4901H18.3845V31.5H16.6146V21.3182ZM34.8355 24.1172C34.7891 23.683 34.5935 23.3449 34.2488 23.103C33.9075 22.861 33.4633 22.7401 32.9165 22.7401C32.532 22.7401 32.2022 22.7981 31.9271 22.9141C31.652 23.0301 31.4416 23.1875 31.2957 23.3864C31.1499 23.5852 31.0753 23.8123 31.072 24.0675C31.072 24.2796 31.1201 24.4635 31.2162 24.6193C31.3156 24.7751 31.4498 24.9077 31.6189 25.017C31.7879 25.1231 31.9752 25.2126 32.1807 25.2855C32.3862 25.3584 32.5933 25.4197 32.8021 25.4695L33.7567 25.7081C34.1411 25.7976 34.5107 25.9186 34.8653 26.071C35.2233 26.2235 35.5431 26.4157 35.8248 26.6477C36.1099 26.8797 36.3353 27.1598 36.501 27.4879C36.6667 27.8161 36.7496 28.2005 36.7496 28.6413C36.7496 29.2379 36.5971 29.7633 36.2922 30.2173C35.9872 30.6681 35.5464 31.0211 34.9697 31.2763C34.3963 31.5282 33.702 31.6541 32.8866 31.6541C32.0945 31.6541 31.4068 31.5315 30.8234 31.2862C30.2434 31.041 29.7893 30.683 29.4612 30.2124C29.1364 29.7417 28.9607 29.1683 28.9342 28.4922H30.7488C30.7754 28.8468 30.8847 29.1418 31.077 29.3771C31.2692 29.6125 31.5194 29.7881 31.8277 29.9041C32.1392 30.0201 32.4872 30.0781 32.8717 30.0781C33.2728 30.0781 33.6241 30.0185 33.9257 29.8991C34.2306 29.7765 34.4693 29.6075 34.6416 29.392C34.814 29.1733 34.9018 28.9181 34.9051 28.6264C34.9018 28.3613 34.8239 28.1425 34.6714 27.9702C34.519 27.7945 34.3052 27.6487 34.0301 27.5327C33.7583 27.4134 33.4401 27.3073 33.0756 27.2145L31.9172 26.9162C31.0786 26.7008 30.4157 26.3743 29.9285 25.9368C29.4446 25.496 29.2027 24.911 29.2027 24.1818C29.2027 23.5819 29.3651 23.0566 29.6899 22.6058C30.018 22.1551 30.4638 21.8054 31.0273 21.5568C31.5907 21.3049 32.2287 21.179 32.9413 21.179C33.6639 21.179 34.2969 21.3049 34.8405 21.5568C35.3873 21.8054 35.8166 22.1518 36.1281 22.5959C36.4397 23.0367 36.6004 23.5438 36.6104 24.1172H34.8355Z" fill="white"/>
<defs>
<linearGradient id="paint0_linear_596_1620" x1="26.821" y1="-2.20706e-07" x2="52.9609" y2="27.9741" gradientUnits="userSpaceOnUse">
<stop stop-color="#FAB823"/>
<stop offset="0.2" stop-color="#F9A315"/>
<stop offset="0.4" stop-color="#F68D03"/>
<stop offset="0.6" stop-color="#F3770D"/>
<stop offset="0.8" stop-color="#F16B10"/>
<stop offset="1" stop-color="#EE5F13"/>
</linearGradient>
</defs>
</svg>
