<svg width="1276" height="75" viewBox="0 0 1276 75" fill="none" xmlns="http://www.w3.org/2000/svg">
<rect width="1276" height="75" rx="37.5" fill="url(#paint0_linear_606_2467)" fill-opacity="0.051"/>
<rect x="0.5" y="0.5" width="1275" height="74" rx="37" stroke="#737B8B" stroke-opacity="0.3"/>
<rect x="11" y="11" width="53" height="53" rx="26.5" fill="url(#paint1_linear_606_2467)"/>
<rect x="11" y="11" width="53" height="53" rx="26.5" fill="url(#paint2_linear_606_2467)"/>
<path d="M27.6146 32.3182H29.8717L32.8944 39.696H33.0138L36.0365 32.3182H38.2936V42.5H36.5237V35.505H36.4292L33.6153 42.4702H32.2929L29.479 35.4901H29.3845V42.5H27.6146V32.3182ZM45.8355 35.1172C45.7891 34.683 45.5935 34.3449 45.2488 34.103C44.9075 33.861 44.4633 33.7401 43.9165 33.7401C43.532 33.7401 43.2022 33.7981 42.9271 33.9141C42.652 34.0301 42.4416 34.1875 42.2957 34.3864C42.1499 34.5852 42.0753 34.8123 42.072 35.0675C42.072 35.2796 42.1201 35.4635 42.2162 35.6193C42.3156 35.7751 42.4498 35.9077 42.6189 36.017C42.7879 36.1231 42.9752 36.2126 43.1807 36.2855C43.3862 36.3584 43.5933 36.4197 43.8021 36.4695L44.7567 36.7081C45.1411 36.7976 45.5107 36.9186 45.8653 37.071C46.2233 37.2235 46.5431 37.4157 46.8248 37.6477C47.1099 37.8797 47.3353 38.1598 47.501 38.4879C47.6667 38.8161 47.7496 39.2005 47.7496 39.6413C47.7496 40.2379 47.5971 40.7633 47.2922 41.2173C46.9872 41.6681 46.5464 42.0211 45.9697 42.2763C45.3963 42.5282 44.702 42.6541 43.8866 42.6541C43.0945 42.6541 42.4068 42.5315 41.8234 42.2862C41.2434 42.041 40.7893 41.683 40.4612 41.2124C40.1364 40.7417 39.9607 40.1683 39.9342 39.4922H41.7488C41.7754 39.8468 41.8847 40.1418 42.077 40.3771C42.2692 40.6125 42.5194 40.7881 42.8277 40.9041C43.1392 41.0201 43.4872 41.0781 43.8717 41.0781C44.2728 41.0781 44.6241 41.0185 44.9257 40.8991C45.2306 40.7765 45.4693 40.6075 45.6416 40.392C45.814 40.1733 45.9018 39.9181 45.9051 39.6264C45.9018 39.3613 45.8239 39.1425 45.6714 38.9702C45.519 38.7945 45.3052 38.6487 45.0301 38.5327C44.7583 38.4134 44.4401 38.3073 44.0756 38.2145L42.9172 37.9162C42.0786 37.7008 41.4157 37.3743 40.9285 36.9368C40.4446 36.496 40.2027 35.911 40.2027 35.1818C40.2027 34.5819 40.3651 34.0566 40.6899 33.6058C41.018 33.1551 41.4638 32.8054 42.0273 32.5568C42.5907 32.3049 43.2287 32.179 43.9413 32.179C44.6639 32.179 45.2969 32.3049 45.8405 32.5568C46.3873 32.8054 46.8166 33.1518 47.1281 33.5959C47.4397 34.0367 47.6004 34.5438 47.6104 35.1172H45.8355Z" fill="white"/>
<path d="M87.744 21.412C87.9787 21.8173 88.24 22.3133 88.528 22.9C88.816 23.4867 89.1093 24.1053 89.408 24.756C89.7067 25.396 90 26.052 90.288 26.724C90.5867 27.3853 90.8587 27.9987 91.104 28.564C91.3493 27.9987 91.616 27.3853 91.904 26.724C92.192 26.052 92.4853 25.396 92.784 24.756C93.0827 24.1053 93.376 23.4867 93.664 22.9C93.952 22.3133 94.2133 21.8173 94.448 21.412H96.272C96.368 22.2227 96.4587 23.0867 96.544 24.004C96.6293 24.9107 96.704 25.844 96.768 26.804C96.8427 27.7533 96.9067 28.7133 96.96 29.684C97.024 30.644 97.0773 31.5827 97.12 32.5H95.136C95.0933 31.2093 95.04 29.8813 94.976 28.516C94.9227 27.1507 94.8373 25.828 94.72 24.548C94.6027 24.7933 94.464 25.0867 94.304 25.428C94.144 25.7693 93.9733 26.1427 93.792 26.548C93.6107 26.9427 93.424 27.3533 93.232 27.78C93.0507 28.2067 92.8693 28.6227 92.688 29.028C92.5173 29.4227 92.3573 29.796 92.208 30.148C92.0587 30.4893 91.9307 30.7827 91.824 31.028H90.32C90.2133 30.7827 90.0853 30.484 89.936 30.132C89.7867 29.78 89.6213 29.4067 89.44 29.012C89.2693 28.6067 89.088 28.1907 88.896 27.764C88.7147 27.3373 88.5333 26.9267 88.352 26.532C88.1707 26.1373 88 25.7693 87.84 25.428C87.68 25.076 87.5413 24.7827 87.424 24.548C87.3067 25.828 87.216 27.1507 87.152 28.516C87.0987 29.8813 87.0507 31.2093 87.008 32.5H85.024C85.0667 31.5827 85.1147 30.6333 85.168 29.652C85.232 28.6707 85.296 27.7 85.36 26.74C85.4347 25.7693 85.5147 24.8307 85.6 23.924C85.6853 23.0173 85.776 22.18 85.872 21.412H87.744ZM106.941 28.308C106.941 28.9693 106.845 29.572 106.653 30.116C106.461 30.66 106.189 31.124 105.837 31.508C105.485 31.892 105.058 32.1907 104.557 32.404C104.066 32.6173 103.522 32.724 102.925 32.724C102.327 32.724 101.783 32.6173 101.293 32.404C100.802 32.1907 100.381 31.892 100.029 31.508C99.6766 31.124 99.3993 30.66 99.1966 30.116C99.0046 29.572 98.9086 28.9693 98.9086 28.308C98.9086 27.6467 99.0046 27.0493 99.1966 26.516C99.3993 25.972 99.6766 25.508 100.029 25.124C100.391 24.74 100.818 24.4467 101.309 24.244C101.799 24.0307 102.338 23.924 102.925 23.924C103.511 23.924 104.05 24.0307 104.541 24.244C105.042 24.4467 105.469 24.74 105.821 25.124C106.173 25.508 106.445 25.972 106.637 26.516C106.839 27.0493 106.941 27.6467 106.941 28.308ZM104.957 28.308C104.957 27.476 104.775 26.82 104.413 26.34C104.061 25.8493 103.565 25.604 102.925 25.604C102.285 25.604 101.783 25.8493 101.421 26.34C101.069 26.82 100.893 27.476 100.893 28.308C100.893 29.1507 101.069 29.8173 101.421 30.308C101.783 30.7987 102.285 31.044 102.925 31.044C103.565 31.044 104.061 30.7987 104.413 30.308C104.775 29.8173 104.957 29.1507 104.957 28.308ZM108.935 24.404C109.308 24.2973 109.794 24.196 110.391 24.1C110.988 24.004 111.65 23.956 112.375 23.956C113.058 23.956 113.628 24.052 114.087 24.244C114.546 24.4253 114.908 24.6867 115.175 25.028C115.452 25.3587 115.644 25.764 115.751 26.244C115.868 26.7133 115.927 27.2307 115.927 27.796V32.5H113.991V28.1C113.991 27.652 113.959 27.2733 113.895 26.964C113.842 26.644 113.746 26.388 113.607 26.196C113.479 25.9933 113.298 25.8493 113.063 25.764C112.839 25.668 112.562 25.62 112.231 25.62C111.986 25.62 111.73 25.636 111.463 25.668C111.196 25.7 110.999 25.7267 110.871 25.748V32.5H108.935V24.404ZM118.199 21.924L120.135 21.604V24.132H123.111V25.748H120.135V29.156C120.135 29.828 120.241 30.308 120.455 30.596C120.668 30.884 121.031 31.028 121.543 31.028C121.895 31.028 122.204 30.9907 122.471 30.916C122.748 30.8413 122.967 30.772 123.127 30.708L123.447 32.244C123.223 32.34 122.929 32.436 122.567 32.532C122.204 32.6387 121.777 32.692 121.286 32.692C120.689 32.692 120.188 32.612 119.783 32.452C119.388 32.292 119.073 32.0627 118.839 31.764C118.604 31.4547 118.439 31.0867 118.343 30.66C118.247 30.2227 118.199 29.7267 118.199 29.172V21.924ZM124.982 32.5V20.404L126.918 20.084V24.228C127.131 24.1533 127.377 24.0893 127.654 24.036C127.942 23.9827 128.225 23.956 128.502 23.956C129.174 23.956 129.729 24.052 130.166 24.244C130.614 24.4253 130.971 24.6867 131.238 25.028C131.505 25.3587 131.691 25.7587 131.798 26.228C131.915 26.6973 131.974 27.22 131.974 27.796V32.5H130.038V28.1C130.038 27.652 130.006 27.2733 129.942 26.964C129.889 26.644 129.793 26.388 129.654 26.196C129.526 25.9933 129.35 25.8493 129.126 25.764C128.902 25.668 128.625 25.62 128.294 25.62C128.038 25.62 127.777 25.6467 127.51 25.7C127.243 25.7533 127.046 25.8013 126.918 25.844V32.5H124.982ZM137.207 32.66C136.631 32.6493 136.151 32.5853 135.767 32.468C135.393 32.3507 135.095 32.1853 134.871 31.972C134.647 31.748 134.487 31.476 134.391 31.156C134.305 30.8253 134.263 30.452 134.263 30.036V20.404L136.199 20.084V29.668C136.199 29.9027 136.215 30.1 136.247 30.26C136.289 30.42 136.359 30.5587 136.455 30.676C136.551 30.7827 136.679 30.868 136.839 30.932C137.009 30.9853 137.223 31.028 137.479 31.06L137.207 32.66ZM145.877 24.132C145.013 27.3107 144.01 30.1907 142.869 32.772C142.655 33.252 142.437 33.6627 142.213 34.004C141.989 34.3453 141.738 34.628 141.461 34.852C141.183 35.076 140.874 35.236 140.533 35.332C140.191 35.4387 139.797 35.492 139.349 35.492C139.05 35.492 138.751 35.46 138.453 35.396C138.165 35.332 137.946 35.2627 137.796 35.188L138.149 33.636C138.533 33.7853 138.911 33.86 139.285 33.86C139.786 33.86 140.175 33.7373 140.453 33.492C140.741 33.2573 140.991 32.8893 141.205 32.388C140.597 31.2147 140.01 29.9347 139.445 28.548C138.89 27.1613 138.394 25.6893 137.957 24.132H140.021C140.127 24.58 140.255 25.0653 140.405 25.588C140.565 26.1107 140.735 26.644 140.917 27.188C141.098 27.7213 141.29 28.2547 141.493 28.788C141.695 29.3213 141.898 29.8173 142.101 30.276C142.442 29.3267 142.762 28.3187 143.061 27.252C143.359 26.1747 143.631 25.1347 143.877 24.132H145.877ZM153.86 30.996C154.585 30.996 155.113 30.8733 155.444 30.628C155.774 30.3827 155.94 30.036 155.94 29.588C155.94 29.3213 155.881 29.092 155.764 28.9C155.657 28.708 155.497 28.5373 155.284 28.388C155.081 28.228 154.83 28.084 154.532 27.956C154.233 27.8173 153.892 27.684 153.508 27.556C153.124 27.4173 152.75 27.268 152.388 27.108C152.036 26.9373 151.721 26.7293 151.444 26.484C151.177 26.2387 150.958 25.9453 150.788 25.604C150.628 25.2627 150.548 24.852 150.548 24.372C150.548 23.3693 150.894 22.5853 151.588 22.02C152.281 21.444 153.225 21.156 154.42 21.156C155.113 21.156 155.726 21.236 156.26 21.396C156.804 21.5453 157.23 21.7107 157.54 21.892L156.916 23.524C156.553 23.3213 156.153 23.1667 155.716 23.06C155.289 22.9533 154.846 22.9 154.388 22.9C153.844 22.9 153.417 23.012 153.108 23.236C152.809 23.46 152.66 23.7747 152.66 24.18C152.66 24.4253 152.708 24.6387 152.804 24.82C152.91 24.9907 153.054 25.1453 153.236 25.284C153.428 25.4227 153.646 25.5507 153.892 25.668C154.148 25.7853 154.425 25.8973 154.724 26.004C155.246 26.196 155.71 26.3933 156.116 26.596C156.532 26.788 156.878 27.0227 157.156 27.3C157.444 27.5667 157.662 27.8867 157.812 28.26C157.961 28.6227 158.036 29.0653 158.036 29.588C158.036 30.5907 157.678 31.3693 156.964 31.924C156.26 32.468 155.225 32.74 153.86 32.74C153.401 32.74 152.98 32.708 152.596 32.644C152.222 32.5907 151.886 32.5213 151.588 32.436C151.3 32.3507 151.049 32.2653 150.836 32.18C150.622 32.084 150.452 31.9987 150.324 31.924L150.916 30.276C151.204 30.436 151.593 30.596 152.084 30.756C152.574 30.916 153.166 30.996 153.86 30.996ZM162.66 31.14C163.258 31.14 163.711 31.108 164.02 31.044V28.9C163.914 28.868 163.759 28.836 163.556 28.804C163.354 28.772 163.13 28.756 162.884 28.756C162.671 28.756 162.452 28.772 162.228 28.804C162.015 28.836 161.818 28.8947 161.636 28.98C161.466 29.0653 161.327 29.188 161.22 29.348C161.114 29.4973 161.06 29.6893 161.06 29.924C161.06 30.3827 161.204 30.7027 161.492 30.884C161.78 31.0547 162.17 31.14 162.66 31.14ZM162.5 23.924C163.14 23.924 163.679 24.004 164.116 24.164C164.554 24.324 164.9 24.548 165.156 24.836C165.423 25.124 165.61 25.476 165.716 25.892C165.834 26.2973 165.892 26.7453 165.892 27.236V32.308C165.594 32.372 165.14 32.4467 164.532 32.532C163.935 32.628 163.258 32.676 162.5 32.676C161.999 32.676 161.54 32.628 161.124 32.532C160.708 32.436 160.351 32.2813 160.052 32.068C159.764 31.8547 159.535 31.5773 159.364 31.236C159.204 30.8947 159.124 30.4733 159.124 29.972C159.124 29.492 159.215 29.0867 159.396 28.756C159.588 28.4253 159.844 28.1587 160.164 27.956C160.484 27.7427 160.852 27.5933 161.268 27.508C161.695 27.412 162.138 27.364 162.596 27.364C162.81 27.364 163.034 27.38 163.268 27.412C163.503 27.4333 163.754 27.476 164.02 27.54V27.22C164.02 26.996 163.994 26.7827 163.94 26.58C163.887 26.3773 163.791 26.2013 163.652 26.052C163.524 25.892 163.348 25.7693 163.124 25.684C162.911 25.5987 162.639 25.556 162.308 25.556C161.86 25.556 161.45 25.588 161.076 25.652C160.703 25.716 160.399 25.7907 160.164 25.876L159.924 24.308C160.17 24.2227 160.527 24.1373 160.996 24.052C161.466 23.9667 161.967 23.924 162.5 23.924ZM171.175 32.66C170.599 32.6493 170.119 32.5853 169.735 32.468C169.362 32.3507 169.063 32.1853 168.839 31.972C168.615 31.748 168.455 31.476 168.359 31.156C168.274 30.8253 168.231 30.452 168.231 30.036V20.404L170.167 20.084V29.668C170.167 29.9027 170.183 30.1 170.215 30.26C170.258 30.42 170.327 30.5587 170.423 30.676C170.519 30.7827 170.647 30.868 170.807 30.932C170.978 30.9853 171.191 31.028 171.447 31.06L171.175 32.66ZM175.957 31.14C176.555 31.14 177.008 31.108 177.317 31.044V28.9C177.211 28.868 177.056 28.836 176.853 28.804C176.651 28.772 176.427 28.756 176.181 28.756C175.968 28.756 175.749 28.772 175.525 28.804C175.312 28.836 175.115 28.8947 174.933 28.98C174.763 29.0653 174.624 29.188 174.517 29.348C174.411 29.4973 174.357 29.6893 174.357 29.924C174.357 30.3827 174.501 30.7027 174.789 30.884C175.077 31.0547 175.467 31.14 175.957 31.14ZM175.797 23.924C176.437 23.924 176.976 24.004 177.413 24.164C177.851 24.324 178.197 24.548 178.453 24.836C178.72 25.124 178.907 25.476 179.013 25.892C179.131 26.2973 179.189 26.7453 179.189 27.236V32.308C178.891 32.372 178.437 32.4467 177.829 32.532C177.232 32.628 176.555 32.676 175.797 32.676C175.296 32.676 174.837 32.628 174.421 32.532C174.005 32.436 173.648 32.2813 173.349 32.068C173.061 31.8547 172.832 31.5773 172.661 31.236C172.501 30.8947 172.421 30.4733 172.421 29.972C172.421 29.492 172.512 29.0867 172.693 28.756C172.885 28.4253 173.141 28.1587 173.461 27.956C173.781 27.7427 174.149 27.5933 174.565 27.508C174.992 27.412 175.435 27.364 175.893 27.364C176.107 27.364 176.331 27.38 176.565 27.412C176.8 27.4333 177.051 27.476 177.317 27.54V27.22C177.317 26.996 177.291 26.7827 177.237 26.58C177.184 26.3773 177.088 26.2013 176.949 26.052C176.821 25.892 176.645 25.7693 176.421 25.684C176.208 25.5987 175.936 25.556 175.605 25.556C175.157 25.556 174.747 25.588 174.373 25.652C174 25.716 173.696 25.7907 173.461 25.876L173.221 24.308C173.467 24.2227 173.824 24.1373 174.293 24.052C174.763 23.9667 175.264 23.924 175.797 23.924ZM186.328 25.876C186.168 25.8227 185.944 25.7693 185.656 25.716C185.379 25.652 185.053 25.62 184.68 25.62C184.467 25.62 184.237 25.6413 183.992 25.684C183.757 25.7267 183.592 25.764 183.496 25.796V32.5H181.56V24.532C181.933 24.3933 182.397 24.2653 182.952 24.148C183.517 24.02 184.141 23.956 184.824 23.956C184.952 23.956 185.101 23.9667 185.272 23.988C185.443 23.9987 185.613 24.02 185.784 24.052C185.955 24.0733 186.12 24.1053 186.28 24.148C186.44 24.18 186.568 24.212 186.664 24.244L186.328 25.876ZM195.127 24.132C194.263 27.3107 193.26 30.1907 192.119 32.772C191.905 33.252 191.687 33.6627 191.463 34.004C191.239 34.3453 190.988 34.628 190.711 34.852C190.433 35.076 190.124 35.236 189.783 35.332C189.441 35.4387 189.047 35.492 188.599 35.492C188.3 35.492 188.001 35.46 187.703 35.396C187.415 35.332 187.196 35.2627 187.046 35.188L187.399 33.636C187.783 33.7853 188.161 33.86 188.535 33.86C189.036 33.86 189.425 33.7373 189.703 33.492C189.991 33.2573 190.241 32.8893 190.455 32.388C189.847 31.2147 189.26 29.9347 188.695 28.548C188.14 27.1613 187.644 25.6893 187.207 24.132H189.271C189.377 24.58 189.505 25.0653 189.655 25.588C189.815 26.1107 189.985 26.644 190.167 27.188C190.348 27.7213 190.54 28.2547 190.743 28.788C190.945 29.3213 191.148 29.8173 191.351 30.276C191.692 29.3267 192.012 28.3187 192.311 27.252C192.609 26.1747 192.881 25.1347 193.127 24.132H195.127Z" fill="#F7F7F7"/>
<path d="M90.538 47.276C90.538 47.612 90.468 47.9387 90.328 48.256C90.1973 48.564 90.02 48.872 89.796 49.18C89.572 49.4787 89.32 49.7773 89.04 50.076C88.76 50.3653 88.48 50.65 88.2 50.93C88.0413 51.0887 87.8547 51.2753 87.64 51.49C87.4347 51.7047 87.2387 51.9287 87.052 52.162C86.8653 52.3953 86.7067 52.6193 86.576 52.834C86.4547 53.0487 86.394 53.2353 86.394 53.394H90.86V54.5H84.98C84.9707 54.444 84.966 54.388 84.966 54.332C84.966 54.276 84.966 54.2247 84.966 54.178C84.966 53.7393 85.036 53.3333 85.176 52.96C85.3253 52.5773 85.5167 52.218 85.75 51.882C85.9833 51.546 86.2447 51.2287 86.534 50.93C86.8233 50.6313 87.108 50.342 87.388 50.062C87.6213 49.838 87.8407 49.6187 88.046 49.404C88.2607 49.18 88.4473 48.9607 88.606 48.746C88.774 48.522 88.9047 48.2933 88.998 48.06C89.1007 47.8267 89.152 47.5793 89.152 47.318C89.152 47.038 89.1053 46.8 89.012 46.604C88.928 46.408 88.8113 46.2447 88.662 46.114C88.5127 45.9833 88.3353 45.89 88.13 45.834C87.934 45.7687 87.724 45.736 87.5 45.736C87.2293 45.736 86.982 45.7733 86.758 45.848C86.534 45.9227 86.3333 46.0113 86.156 46.114C85.9787 46.2073 85.8293 46.31 85.708 46.422C85.5867 46.5247 85.4933 46.604 85.428 46.66L84.784 45.736C84.868 45.6427 84.994 45.5307 85.162 45.4C85.33 45.26 85.5307 45.1293 85.764 45.008C85.9973 44.8867 86.2587 44.784 86.548 44.7C86.8373 44.616 87.15 44.574 87.486 44.574C88.5033 44.574 89.264 44.812 89.768 45.288C90.2813 45.7547 90.538 46.4173 90.538 47.276ZM94.5623 53.744C94.5623 53.996 94.4783 54.2153 94.3103 54.402C94.1423 54.5887 93.9137 54.682 93.6243 54.682C93.335 54.682 93.1063 54.5887 92.9383 54.402C92.7703 54.2153 92.6863 53.996 92.6863 53.744C92.6863 53.492 92.7703 53.2727 92.9383 53.086C93.1063 52.8993 93.335 52.806 93.6243 52.806C93.9137 52.806 94.1423 52.8993 94.3103 53.086C94.4783 53.2727 94.5623 53.492 94.5623 53.744ZM94.5623 48.158C94.5623 48.41 94.4783 48.6293 94.3103 48.816C94.1423 49.0027 93.9137 49.096 93.6243 49.096C93.335 49.096 93.1063 49.0027 92.9383 48.816C92.7703 48.6293 92.6863 48.41 92.6863 48.158C92.6863 47.906 92.7703 47.6867 92.9383 47.5C93.1063 47.3133 93.335 47.22 93.6243 47.22C93.9137 47.22 94.1423 47.3133 94.3103 47.5C94.4783 47.6867 94.5623 47.906 94.5623 48.158ZM98.5117 53.548C99.3423 53.548 99.935 53.3847 100.29 53.058C100.654 52.7313 100.836 52.2927 100.836 51.742C100.836 51.3873 100.761 51.0887 100.612 50.846C100.462 50.6033 100.266 50.412 100.024 50.272C99.781 50.1227 99.4963 50.02 99.1697 49.964C98.8523 49.8987 98.5257 49.866 98.1897 49.866H97.8537V48.802H98.3157C98.549 48.802 98.787 48.7787 99.0297 48.732C99.2817 48.6853 99.5103 48.6013 99.7157 48.48C99.921 48.3587 100.089 48.1953 100.22 47.99C100.35 47.7753 100.416 47.5093 100.416 47.192C100.416 46.9307 100.369 46.7067 100.276 46.52C100.182 46.3333 100.056 46.1793 99.8977 46.058C99.7483 45.9367 99.571 45.8527 99.3657 45.806C99.1697 45.75 98.9597 45.722 98.7357 45.722C98.2877 45.722 97.905 45.7873 97.5877 45.918C97.2797 46.0487 97.0183 46.184 96.8037 46.324L96.2997 45.33C96.4117 45.2553 96.5517 45.176 96.7197 45.092C96.897 44.9987 97.093 44.9147 97.3077 44.84C97.5223 44.7653 97.751 44.7047 97.9937 44.658C98.2457 44.602 98.507 44.574 98.7777 44.574C99.291 44.574 99.7343 44.6393 100.108 44.77C100.481 44.8913 100.789 45.0687 101.032 45.302C101.274 45.526 101.456 45.7967 101.578 46.114C101.699 46.422 101.76 46.758 101.76 47.122C101.76 47.626 101.615 48.06 101.326 48.424C101.036 48.7787 100.686 49.0493 100.276 49.236C100.528 49.3107 100.77 49.418 101.004 49.558C101.237 49.698 101.438 49.8753 101.606 50.09C101.783 50.3047 101.923 50.552 102.026 50.832C102.138 51.112 102.194 51.4247 102.194 51.77C102.194 52.19 102.119 52.582 101.97 52.946C101.83 53.3007 101.606 53.6087 101.298 53.87C100.999 54.1313 100.621 54.3367 100.164 54.486C99.7063 54.6353 99.165 54.71 98.5397 54.71C98.297 54.71 98.045 54.6913 97.7837 54.654C97.5317 54.6167 97.2937 54.57 97.0697 54.514C96.8457 54.458 96.6497 54.402 96.4817 54.346C96.3137 54.29 96.1923 54.2433 96.1177 54.206L96.3697 53.072C96.5283 53.1467 96.7897 53.2447 97.1537 53.366C97.527 53.4873 97.9797 53.548 98.5117 53.548ZM103.95 49.642C103.95 48.018 104.235 46.7673 104.804 45.89C105.383 45.0127 106.181 44.574 107.198 44.574C108.215 44.574 109.009 45.0127 109.578 45.89C110.157 46.7673 110.446 48.018 110.446 49.642C110.446 51.266 110.157 52.5167 109.578 53.394C109.009 54.2713 108.215 54.71 107.198 54.71C106.181 54.71 105.383 54.2713 104.804 53.394C104.235 52.5167 103.95 51.266 103.95 49.642ZM109.074 49.642C109.074 49.11 109.041 48.606 108.976 48.13C108.92 47.654 108.817 47.2387 108.668 46.884C108.528 46.5293 108.337 46.2493 108.094 46.044C107.851 45.8293 107.553 45.722 107.198 45.722C106.843 45.722 106.545 45.8293 106.302 46.044C106.059 46.2493 105.863 46.5293 105.714 46.884C105.574 47.2387 105.471 47.654 105.406 48.13C105.35 48.606 105.322 49.11 105.322 49.642C105.322 50.174 105.35 50.678 105.406 51.154C105.471 51.63 105.574 52.0453 105.714 52.4C105.863 52.7547 106.059 53.0393 106.302 53.254C106.545 53.4593 106.843 53.562 107.198 53.562C107.553 53.562 107.851 53.4593 108.094 53.254C108.337 53.0393 108.528 52.7547 108.668 52.4C108.817 52.0453 108.92 51.63 108.976 51.154C109.041 50.678 109.074 50.174 109.074 49.642ZM117.326 50.874C117.326 50.0247 117.116 49.3713 116.696 48.914C116.276 48.4567 115.716 48.228 115.016 48.228C114.624 48.228 114.316 48.242 114.092 48.27C113.878 48.298 113.705 48.3307 113.574 48.368V52.96C113.733 53.0907 113.962 53.2167 114.26 53.338C114.559 53.4593 114.886 53.52 115.24 53.52C115.614 53.52 115.931 53.4547 116.192 53.324C116.463 53.184 116.682 52.9973 116.85 52.764C117.018 52.5213 117.14 52.2413 117.214 51.924C117.289 51.5973 117.326 51.2473 117.326 50.874ZM118.684 50.874C118.684 51.4247 118.61 51.9333 118.46 52.4C118.32 52.8667 118.11 53.268 117.83 53.604C117.55 53.94 117.205 54.2013 116.794 54.388C116.393 54.5747 115.931 54.668 115.408 54.668C114.988 54.668 114.615 54.612 114.288 54.5C113.971 54.388 113.733 54.2807 113.574 54.178V57.09H112.272V47.444C112.58 47.3693 112.963 47.29 113.42 47.206C113.887 47.1127 114.424 47.066 115.03 47.066C115.59 47.066 116.094 47.1547 116.542 47.332C116.99 47.5093 117.373 47.7613 117.69 48.088C118.008 48.4147 118.25 48.816 118.418 49.292C118.596 49.7587 118.684 50.286 118.684 50.874ZM120.516 47.43C120.815 47.3553 121.207 47.276 121.692 47.192C122.187 47.108 122.756 47.066 123.4 47.066C123.867 47.066 124.259 47.1313 124.576 47.262C124.894 47.3833 125.16 47.5653 125.374 47.808C125.44 47.7613 125.542 47.696 125.682 47.612C125.822 47.528 125.995 47.4487 126.2 47.374C126.406 47.29 126.634 47.22 126.886 47.164C127.138 47.0987 127.409 47.066 127.698 47.066C128.258 47.066 128.716 47.15 129.07 47.318C129.425 47.4767 129.7 47.7053 129.896 48.004C130.102 48.3027 130.237 48.6573 130.302 49.068C130.377 49.4787 130.414 49.9267 130.414 50.412V54.5H129.112V50.692C129.112 50.2627 129.089 49.894 129.042 49.586C129.005 49.278 128.926 49.0213 128.804 48.816C128.692 48.6107 128.534 48.4613 128.328 48.368C128.132 48.2653 127.876 48.214 127.558 48.214C127.12 48.214 126.756 48.2747 126.466 48.396C126.186 48.508 125.995 48.6107 125.892 48.704C125.967 48.9467 126.023 49.2127 126.06 49.502C126.098 49.7913 126.116 50.0947 126.116 50.412V54.5H124.814V50.692C124.814 50.2627 124.791 49.894 124.744 49.586C124.698 49.278 124.614 49.0213 124.492 48.816C124.38 48.6107 124.222 48.4613 124.016 48.368C123.82 48.2653 123.568 48.214 123.26 48.214C123.13 48.214 122.99 48.2187 122.84 48.228C122.691 48.2373 122.546 48.2513 122.406 48.27C122.276 48.2793 122.154 48.2933 122.042 48.312C121.93 48.3307 121.856 48.3447 121.818 48.354V54.5H120.516V47.43ZM138.153 53.534C139.572 53.534 140.281 53.0487 140.281 52.078C140.281 51.7793 140.216 51.5273 140.085 51.322C139.964 51.1073 139.796 50.9253 139.581 50.776C139.367 50.6173 139.119 50.482 138.839 50.37C138.569 50.258 138.279 50.146 137.971 50.034C137.617 49.9127 137.281 49.7773 136.963 49.628C136.646 49.4693 136.371 49.2873 136.137 49.082C135.904 48.8673 135.717 48.6153 135.577 48.326C135.447 48.0367 135.381 47.6867 135.381 47.276C135.381 46.4267 135.671 45.764 136.249 45.288C136.828 44.812 137.626 44.574 138.643 44.574C139.231 44.574 139.763 44.6393 140.239 44.77C140.725 44.8913 141.079 45.0267 141.303 45.176L140.869 46.282C140.673 46.1607 140.379 46.044 139.987 45.932C139.605 45.8107 139.157 45.75 138.643 45.75C138.382 45.75 138.139 45.778 137.915 45.834C137.691 45.89 137.495 45.974 137.327 46.086C137.159 46.198 137.024 46.3427 136.921 46.52C136.828 46.688 136.781 46.8887 136.781 47.122C136.781 47.3833 136.833 47.6027 136.935 47.78C137.038 47.9573 137.183 48.116 137.369 48.256C137.556 48.3867 137.771 48.508 138.013 48.62C138.265 48.732 138.541 48.844 138.839 48.956C139.259 49.124 139.642 49.292 139.987 49.46C140.342 49.628 140.645 49.8287 140.897 50.062C141.159 50.2953 141.359 50.5753 141.499 50.902C141.639 51.2193 141.709 51.6067 141.709 52.064C141.709 52.9133 141.397 53.5667 140.771 54.024C140.155 54.4813 139.283 54.71 138.153 54.71C137.771 54.71 137.416 54.682 137.089 54.626C136.772 54.5793 136.487 54.5233 136.235 54.458C135.983 54.3833 135.764 54.3087 135.577 54.234C135.4 54.15 135.26 54.08 135.157 54.024L135.563 52.904C135.778 53.0253 136.105 53.1607 136.543 53.31C136.982 53.4593 137.519 53.534 138.153 53.534ZM142.86 50.874C142.86 50.23 142.954 49.67 143.14 49.194C143.327 48.7087 143.574 48.3073 143.882 47.99C144.19 47.6727 144.545 47.4347 144.946 47.276C145.348 47.1173 145.758 47.038 146.178 47.038C147.158 47.038 147.91 47.346 148.432 47.962C148.955 48.5687 149.216 49.4973 149.216 50.748C149.216 50.804 149.216 50.8787 149.216 50.972C149.216 51.056 149.212 51.1353 149.202 51.21H144.218C144.274 51.966 144.494 52.54 144.876 52.932C145.259 53.324 145.856 53.52 146.668 53.52C147.126 53.52 147.508 53.4827 147.816 53.408C148.134 53.324 148.372 53.2447 148.53 53.17L148.712 54.262C148.554 54.346 148.274 54.4347 147.872 54.528C147.48 54.6213 147.032 54.668 146.528 54.668C145.894 54.668 145.343 54.5747 144.876 54.388C144.419 54.192 144.041 53.926 143.742 53.59C143.444 53.254 143.22 52.8573 143.07 52.4C142.93 51.9333 142.86 51.4247 142.86 50.874ZM147.858 50.16C147.868 49.572 147.718 49.0913 147.41 48.718C147.112 48.3353 146.696 48.144 146.164 48.144C145.866 48.144 145.6 48.2047 145.366 48.326C145.142 48.438 144.951 48.5873 144.792 48.774C144.634 48.9607 144.508 49.1753 144.414 49.418C144.33 49.6607 144.274 49.908 144.246 50.16H147.858ZM156.141 50.874C156.141 50.0247 155.931 49.3713 155.511 48.914C155.091 48.4567 154.531 48.228 153.831 48.228C153.439 48.228 153.131 48.242 152.907 48.27C152.692 48.298 152.519 48.3307 152.389 48.368V52.96C152.547 53.0907 152.776 53.2167 153.075 53.338C153.373 53.4593 153.7 53.52 154.055 53.52C154.428 53.52 154.745 53.4547 155.007 53.324C155.277 53.184 155.497 52.9973 155.665 52.764C155.833 52.5213 155.954 52.2413 156.029 51.924C156.103 51.5973 156.141 51.2473 156.141 50.874ZM157.499 50.874C157.499 51.4247 157.424 51.9333 157.275 52.4C157.135 52.8667 156.925 53.268 156.645 53.604C156.365 53.94 156.019 54.2013 155.609 54.388C155.207 54.5747 154.745 54.668 154.223 54.668C153.803 54.668 153.429 54.612 153.103 54.5C152.785 54.388 152.547 54.2807 152.389 54.178V57.09H151.087V47.444C151.395 47.3693 151.777 47.29 152.235 47.206C152.701 47.1127 153.238 47.066 153.845 47.066C154.405 47.066 154.909 47.1547 155.357 47.332C155.805 47.5093 156.187 47.7613 156.505 48.088C156.822 48.4147 157.065 48.816 157.233 49.292C157.41 49.7587 157.499 50.286 157.499 50.874ZM160.703 52.904C160.712 52.9787 160.717 53.0533 160.717 53.128C160.717 53.1933 160.717 53.2633 160.717 53.338C160.717 53.926 160.628 54.5047 160.451 55.074C160.283 55.6527 160.05 56.2033 159.751 56.726L158.743 56.404C158.976 55.928 159.13 55.4427 159.205 54.948C159.28 54.4627 159.317 54.0053 159.317 53.576C159.317 53.4547 159.312 53.338 159.303 53.226C159.303 53.114 159.298 53.0067 159.289 52.904H160.703ZM168.194 47.276C168.194 47.612 168.124 47.9387 167.984 48.256C167.854 48.564 167.676 48.872 167.452 49.18C167.228 49.4787 166.976 49.7773 166.696 50.076C166.416 50.3653 166.136 50.65 165.856 50.93C165.698 51.0887 165.511 51.2753 165.296 51.49C165.091 51.7047 164.895 51.9287 164.708 52.162C164.522 52.3953 164.363 52.6193 164.232 52.834C164.111 53.0487 164.05 53.2353 164.05 53.394H168.516V54.5H162.636C162.627 54.444 162.622 54.388 162.622 54.332C162.622 54.276 162.622 54.2247 162.622 54.178C162.622 53.7393 162.692 53.3333 162.832 52.96C162.982 52.5773 163.173 52.218 163.406 51.882C163.64 51.546 163.901 51.2287 164.19 50.93C164.48 50.6313 164.764 50.342 165.044 50.062C165.278 49.838 165.497 49.6187 165.702 49.404C165.917 49.18 166.104 48.9607 166.262 48.746C166.43 48.522 166.561 48.2933 166.654 48.06C166.757 47.8267 166.808 47.5793 166.808 47.318C166.808 47.038 166.762 46.8 166.668 46.604C166.584 46.408 166.468 46.2447 166.318 46.114C166.169 45.9833 165.992 45.89 165.786 45.834C165.59 45.7687 165.38 45.736 165.156 45.736C164.886 45.736 164.638 45.7733 164.414 45.848C164.19 45.9227 163.99 46.0113 163.812 46.114C163.635 46.2073 163.486 46.31 163.364 46.422C163.243 46.5247 163.15 46.604 163.084 46.66L162.44 45.736C162.524 45.6427 162.65 45.5307 162.818 45.4C162.986 45.26 163.187 45.1293 163.42 45.008C163.654 44.8867 163.915 44.784 164.204 44.7C164.494 44.616 164.806 44.574 165.142 44.574C166.16 44.574 166.92 44.812 167.424 45.288C167.938 45.7547 168.194 46.4173 168.194 47.276ZM172.345 48.536C173.754 48.592 174.785 48.9 175.439 49.46C176.101 50.02 176.433 50.7807 176.433 51.742C176.433 52.1713 176.358 52.568 176.209 52.932C176.069 53.296 175.849 53.6087 175.551 53.87C175.261 54.1313 174.893 54.3367 174.445 54.486C173.997 54.6353 173.465 54.71 172.849 54.71C172.606 54.71 172.359 54.6913 172.107 54.654C171.855 54.6167 171.621 54.57 171.407 54.514C171.192 54.458 171.001 54.402 170.833 54.346C170.665 54.29 170.543 54.2433 170.469 54.206L170.721 53.072C170.879 53.1467 171.136 53.2447 171.491 53.366C171.855 53.4873 172.298 53.548 172.821 53.548C173.241 53.548 173.591 53.5013 173.871 53.408C174.16 53.3147 174.393 53.1887 174.571 53.03C174.748 52.8713 174.874 52.6893 174.949 52.484C175.033 52.2693 175.075 52.0453 175.075 51.812C175.075 51.4573 175.014 51.1447 174.893 50.874C174.771 50.594 174.557 50.3607 174.249 50.174C173.941 49.9873 173.53 49.8473 173.017 49.754C172.503 49.6513 171.855 49.6 171.071 49.6C171.127 49.1427 171.169 48.7133 171.197 48.312C171.234 47.9107 171.267 47.5187 171.295 47.136C171.323 46.7533 171.346 46.3753 171.365 46.002C171.383 45.6193 171.402 45.218 171.421 44.798H176.097V45.904H172.555C172.545 46.044 172.531 46.2353 172.513 46.478C172.494 46.7113 172.475 46.9587 172.457 47.22C172.438 47.472 172.419 47.7193 172.401 47.962C172.382 48.2047 172.363 48.396 172.345 48.536Z" fill="#9198A1"/>
<path d="M428.118 32.4141V22.1019" stroke="url(#paint3_linear_606_2467)" stroke-width="1.5" stroke-linecap="round" stroke-linejoin="round"/>
<path d="M424 25.0596L428.06 20.9996L432.12 25.0596" stroke="url(#paint4_linear_606_2467)" stroke-width="1.5" stroke-linecap="round" stroke-linejoin="round"/>
<path d="M448.341 23.1591L447.943 24.5625H440.494L440.892 23.1591H448.341ZM444.716 32L440.648 27.0625L440.636 25.9545H442.653C443.157 25.9545 443.583 25.8769 443.932 25.7216C444.28 25.5663 444.545 25.3409 444.727 25.0455C444.909 24.7462 445 24.3826 445 23.9545C445 23.3182 444.811 22.8125 444.432 22.4375C444.053 22.0625 443.46 21.875 442.653 21.875H440.494L440.909 20.3636H442.653C443.593 20.3636 444.367 20.5133 444.977 20.8125C445.587 21.1117 446.042 21.5265 446.341 22.0568C446.64 22.5871 446.79 23.1989 446.79 23.892C446.79 24.5095 446.667 25.0682 446.42 25.5682C446.174 26.0682 445.782 26.4754 445.244 26.7898C444.706 27.1042 444 27.2879 443.125 27.3409L443.074 27.3523L446.79 31.9034V32H444.716ZM448.347 20.3636L447.943 21.7784L441.989 21.7443L442.392 20.3636H448.347ZM453.801 20.2045C454.32 20.2083 454.831 20.303 455.335 20.4886C455.839 20.6742 456.294 20.9773 456.699 21.3977C457.108 21.8182 457.434 22.3864 457.676 23.1023C457.922 23.8144 458.047 24.7008 458.051 25.7614C458.051 26.7803 457.949 27.6875 457.744 28.483C457.54 29.2746 457.246 29.9432 456.864 30.4886C456.485 31.0341 456.025 31.4489 455.483 31.733C454.941 32.017 454.331 32.1591 453.653 32.1591C452.96 32.1591 452.345 32.0227 451.807 31.75C451.269 31.4773 450.831 31.1004 450.494 30.6193C450.157 30.1345 449.947 29.5777 449.864 28.9489H451.597C451.71 29.4489 451.941 29.8542 452.29 30.1648C452.642 30.4716 453.097 30.625 453.653 30.625C454.506 30.625 455.17 30.2538 455.648 29.5114C456.125 28.7652 456.366 27.7235 456.369 26.3864H456.278C456.081 26.7121 455.835 26.9924 455.54 27.2273C455.248 27.4621 454.92 27.6439 454.557 27.7727C454.193 27.9015 453.805 27.9659 453.392 27.9659C452.722 27.9659 452.112 27.8011 451.562 27.4716C451.013 27.142 450.576 26.6894 450.25 26.1136C449.924 25.5379 449.761 24.8807 449.761 24.142C449.761 23.4072 449.928 22.7405 450.261 22.142C450.598 21.5436 451.068 21.0701 451.67 20.7216C452.277 20.3693 452.987 20.197 453.801 20.2045ZM453.807 21.6818C453.364 21.6818 452.964 21.7917 452.608 22.0114C452.256 22.2273 451.977 22.5208 451.773 22.892C451.568 23.2595 451.466 23.6686 451.466 24.1193C451.466 24.5701 451.564 24.9792 451.761 25.3466C451.962 25.7102 452.235 26 452.58 26.2159C452.928 26.428 453.326 26.5341 453.773 26.5341C454.106 26.5341 454.417 26.4697 454.705 26.3409C454.992 26.2121 455.244 26.0341 455.46 25.8068C455.676 25.5758 455.845 25.3144 455.966 25.0227C456.087 24.7311 456.148 24.4242 456.148 24.1023C456.148 23.6742 456.045 23.2765 455.841 22.9091C455.64 22.5417 455.364 22.2462 455.011 22.0227C454.659 21.7955 454.258 21.6818 453.807 21.6818ZM461.915 30.4091L461.83 31.0284C461.773 31.483 461.676 31.9564 461.54 32.4489C461.407 32.9451 461.269 33.4053 461.125 33.8295C460.985 34.2538 460.869 34.5909 460.778 34.8409H459.574C459.623 34.6061 459.691 34.2879 459.778 33.8864C459.866 33.4886 459.951 33.0436 460.034 32.5511C460.117 32.0587 460.18 31.5568 460.222 31.0455L460.278 30.4091H461.915ZM464.047 29.7273V28.3068L469.075 20.3636H470.195V22.4545H469.484L465.888 28.1477V28.2386H472.78V29.7273H464.047ZM469.564 32V29.2955L469.575 28.6477V20.3636H471.24V32H469.564ZM478.811 32.1932C477.913 32.1894 477.146 31.9527 476.51 31.483C475.874 31.0133 475.387 30.3295 475.05 29.4318C474.713 28.5341 474.544 27.4527 474.544 26.1875C474.544 24.9261 474.713 23.8485 475.05 22.9545C475.391 22.0606 475.879 21.3788 476.516 20.9091C477.156 20.4394 477.921 20.2045 478.811 20.2045C479.701 20.2045 480.464 20.4413 481.101 20.9148C481.737 21.3845 482.224 22.0663 482.561 22.9602C482.902 23.8504 483.072 24.9261 483.072 26.1875C483.072 27.4564 482.904 28.5398 482.567 29.4375C482.23 30.3314 481.743 31.0152 481.107 31.4886C480.47 31.9583 479.705 32.1932 478.811 32.1932ZM478.811 30.6761C479.599 30.6761 480.214 30.2917 480.658 29.5227C481.105 28.7538 481.328 27.642 481.328 26.1875C481.328 25.2216 481.226 24.4053 481.021 23.7386C480.821 23.0682 480.531 22.5606 480.152 22.2159C479.777 21.8674 479.33 21.6932 478.811 21.6932C478.027 21.6932 477.411 22.0795 476.964 22.8523C476.518 23.625 476.292 24.7367 476.288 26.1875C476.288 27.1572 476.389 27.9773 476.589 28.6477C476.794 29.3144 477.084 29.8201 477.459 30.1648C477.834 30.5057 478.285 30.6761 478.811 30.6761ZM489.139 32.1932C488.241 32.1894 487.474 31.9527 486.838 31.483C486.202 31.0133 485.715 30.3295 485.378 29.4318C485.041 28.5341 484.872 27.4527 484.872 26.1875C484.872 24.9261 485.041 23.8485 485.378 22.9545C485.719 22.0606 486.207 21.3788 486.844 20.9091C487.484 20.4394 488.249 20.2045 489.139 20.2045C490.029 20.2045 490.793 20.4413 491.429 20.9148C492.065 21.3845 492.552 22.0663 492.889 22.9602C493.23 23.8504 493.401 24.9261 493.401 26.1875C493.401 27.4564 493.232 28.5398 492.895 29.4375C492.558 30.3314 492.071 31.0152 491.435 31.4886C490.798 31.9583 490.033 32.1932 489.139 32.1932ZM489.139 30.6761C489.927 30.6761 490.543 30.2917 490.986 29.5227C491.433 28.7538 491.656 27.642 491.656 26.1875C491.656 25.2216 491.554 24.4053 491.349 23.7386C491.149 23.0682 490.859 22.5606 490.48 22.2159C490.105 21.8674 489.658 21.6932 489.139 21.6932C488.355 21.6932 487.74 22.0795 487.293 22.8523C486.846 23.625 486.62 24.7367 486.616 26.1875C486.616 27.1572 486.717 27.9773 486.918 28.6477C487.122 29.3144 487.412 29.8201 487.787 30.1648C488.162 30.5057 488.613 30.6761 489.139 30.6761Z" fill="#9198A1"/>
<g clip-path="url(#clip0_606_2467)">
<path fill-rule="evenodd" clip-rule="evenodd" d="M623.672 16.2277H611.328C610.767 16.2334 610.231 16.4607 609.838 16.8601C609.444 17.2595 609.224 17.7985 609.226 18.3595V30.6484C609.224 31.2094 609.444 31.7484 609.838 32.1478C610.231 32.5473 610.767 32.7746 611.328 32.7802H623.672C624.233 32.7764 624.771 32.5496 625.165 32.1499C625.56 31.7501 625.779 31.21 625.776 30.6484V18.3556C625.779 17.7939 625.56 17.2538 625.165 16.854C624.771 16.4542 624.233 16.2275 623.672 16.2236" fill="#9F1A45"/>
<path d="M623.672 32.992H611.328C610.709 32.9882 610.117 32.739 609.682 32.2991C609.247 31.8592 609.003 31.2646 609.006 30.6457V18.3556C609.003 17.7364 609.246 17.1414 609.681 16.7013C610.117 16.2611 610.709 16.0117 611.328 16.0078H623.672C624.291 16.0117 624.883 16.2611 625.319 16.7013C625.754 17.1414 625.997 17.7364 625.994 18.3556V30.6443C625.997 31.2632 625.753 31.8578 625.318 32.2977C624.883 32.7376 624.291 32.9868 623.672 32.9907M611.328 16.4462C610.825 16.4501 610.345 16.6533 609.991 17.0113C609.638 17.3692 609.441 17.8527 609.444 18.3556V30.6443C609.441 31.1472 609.638 31.6306 609.991 31.9886C610.345 32.3466 610.825 32.5498 611.328 32.5537H623.672C624.175 32.5498 624.655 32.3466 625.009 31.9886C625.362 31.6306 625.559 31.1472 625.556 30.6443V18.3556C625.558 17.8528 625.361 17.3695 625.008 17.0117C624.655 16.6538 624.174 16.4504 623.672 16.4462L611.328 16.4462Z" fill="#9F1A45"/>
<path fill-rule="evenodd" clip-rule="evenodd" d="M617.603 19.6508C618.106 19.6587 618.596 19.8152 619.011 20.1006C619.426 20.386 619.747 20.7876 619.934 21.255C620.121 21.7223 620.166 22.2346 620.063 22.7274C619.96 23.2202 619.714 23.6716 619.355 24.0248C618.996 24.378 618.541 24.6174 618.047 24.7127C617.552 24.8081 617.041 24.7552 616.576 24.5608C616.112 24.3664 615.715 24.039 615.437 23.6199C615.158 23.2008 615.009 22.7086 615.009 22.2051C615.011 21.867 615.08 21.5326 615.212 21.2211C615.343 20.9096 615.535 20.6272 615.776 20.3899C616.017 20.1526 616.302 19.9653 616.616 19.8385C616.929 19.7116 617.265 19.6479 617.603 19.6508ZM620.605 18.3891H623.619V30.6165H620.603V27.1523C617.949 28.1223 615.468 28.2076 613.186 25.9744C612.243 24.9925 611.711 23.6534 611.933 21.319C611.972 20.9619 611.8 19.3057 611.385 18.3877H614.056C615.31 20.3783 613.666 22.9179 615.587 24.5408C618.204 26.2356 620.488 24.209 620.598 22.3796L620.605 18.3891Z" fill="#FEBD30"/>
</g>
<path d="M632.278 32V20.3636H636.426C637.331 20.3636 638.081 20.5284 638.676 20.858C639.271 21.1875 639.716 21.6383 640.011 22.2102C640.307 22.7784 640.455 23.4186 640.455 24.1307C640.455 24.8466 640.305 25.4905 640.006 26.0625C639.71 26.6307 639.263 27.0814 638.665 27.4148C638.07 27.7443 637.322 27.9091 636.42 27.9091H633.568V26.4205H636.261C636.833 26.4205 637.297 26.322 637.653 26.125C638.009 25.9242 638.271 25.6515 638.438 25.3068C638.604 24.9621 638.688 24.5701 638.688 24.1307C638.688 23.6913 638.604 23.3011 638.438 22.9602C638.271 22.6193 638.008 22.3523 637.648 22.1591C637.292 21.9659 636.822 21.8693 636.239 21.8693H634.034V32H632.278ZM647.905 28.3807V23.2727H649.609V32H647.939V30.4886H647.848C647.647 30.9545 647.325 31.3428 646.882 31.6534C646.443 31.9602 645.895 32.1136 645.24 32.1136C644.679 32.1136 644.183 31.9905 643.751 31.7443C643.323 31.4943 642.986 31.125 642.74 30.6364C642.498 30.1477 642.376 29.5436 642.376 28.8239V23.2727H644.075V28.6193C644.075 29.214 644.24 29.6875 644.57 30.0398C644.899 30.392 645.327 30.5682 645.854 30.5682C646.172 30.5682 646.488 30.4886 646.803 30.3295C647.121 30.1705 647.384 29.9299 647.592 29.608C647.804 29.286 647.909 28.8769 647.905 28.3807ZM653.591 26.8182V32H651.892V23.2727H653.523V24.6932H653.631C653.831 24.2311 654.146 23.8598 654.574 23.5795C655.006 23.2992 655.549 23.1591 656.205 23.1591C656.799 23.1591 657.32 23.2841 657.767 23.5341C658.214 23.7803 658.561 24.1477 658.807 24.6364C659.053 25.125 659.176 25.7292 659.176 26.4489V32H657.477V26.6534C657.477 26.0208 657.313 25.5265 656.983 25.1705C656.653 24.8106 656.201 24.6307 655.625 24.6307C655.231 24.6307 654.881 24.7159 654.574 24.8864C654.271 25.0568 654.03 25.3068 653.852 25.6364C653.678 25.9621 653.591 26.3561 653.591 26.8182ZM661.455 23.2727H663.153V32.5682C663.153 33.1515 663.047 33.6439 662.835 34.0455C662.627 34.447 662.316 34.7519 661.903 34.9602C661.494 35.1686 660.989 35.2727 660.386 35.2727C660.326 35.2727 660.269 35.2727 660.216 35.2727C660.159 35.2727 660.1 35.2708 660.04 35.267V33.8068C660.093 33.8068 660.14 33.8068 660.182 33.8068C660.22 33.8068 660.263 33.8068 660.312 33.8068C660.714 33.8068 661.004 33.6989 661.182 33.483C661.364 33.2708 661.455 32.9621 661.455 32.5568V23.2727ZM662.295 21.9261C662 21.9261 661.746 21.8277 661.534 21.6307C661.326 21.4299 661.222 21.1913 661.222 20.9148C661.222 20.6345 661.326 20.3958 661.534 20.1989C661.746 19.9981 662 19.8977 662.295 19.8977C662.591 19.8977 662.843 19.9981 663.051 20.1989C663.263 20.3958 663.369 20.6345 663.369 20.9148C663.369 21.1913 663.263 21.4299 663.051 21.6307C662.843 21.8277 662.591 21.9261 662.295 21.9261ZM667.979 32.1932C667.426 32.1932 666.926 32.0909 666.479 31.8864C666.032 31.678 665.678 31.3769 665.416 30.983C665.159 30.589 665.03 30.1061 665.03 29.5341C665.03 29.0417 665.125 28.6364 665.314 28.3182C665.503 28 665.759 27.7481 666.081 27.5625C666.403 27.3769 666.763 27.2367 667.161 27.142C667.558 27.0473 667.964 26.9754 668.376 26.9261C668.899 26.8655 669.323 26.8163 669.649 26.7784C669.975 26.7367 670.212 26.6705 670.359 26.5795C670.507 26.4886 670.581 26.3409 670.581 26.1364V26.0966C670.581 25.6004 670.441 25.2159 670.161 24.9432C669.884 24.6705 669.471 24.5341 668.922 24.5341C668.35 24.5341 667.899 24.661 667.57 24.9148C667.244 25.1648 667.018 25.4432 666.893 25.75L665.297 25.3864C665.486 24.8561 665.763 24.428 666.126 24.1023C666.494 23.7727 666.916 23.5341 667.393 23.3864C667.871 23.2348 668.373 23.1591 668.899 23.1591C669.248 23.1591 669.617 23.2008 670.007 23.2841C670.401 23.3636 670.768 23.5114 671.109 23.7273C671.454 23.9432 671.736 24.2519 671.956 24.6534C672.176 25.0511 672.286 25.5682 672.286 26.2045V32H670.626V30.8068H670.558C670.448 31.0265 670.284 31.2424 670.064 31.4545C669.844 31.6667 669.562 31.8428 669.217 31.983C668.873 32.1231 668.46 32.1932 667.979 32.1932ZM668.348 30.8295C668.818 30.8295 669.219 30.7367 669.553 30.5511C669.89 30.3655 670.145 30.1231 670.32 29.8239C670.498 29.5208 670.587 29.197 670.587 28.8523V27.7273C670.526 27.7879 670.409 27.8447 670.234 27.8977C670.064 27.947 669.869 27.9905 669.649 28.0284C669.429 28.0625 669.215 28.0947 669.007 28.125C668.799 28.1515 668.625 28.1742 668.484 28.1932C668.155 28.2348 667.854 28.3049 667.581 28.4034C667.312 28.5019 667.096 28.6439 666.933 28.8295C666.774 29.0114 666.695 29.2538 666.695 29.5568C666.695 29.9773 666.85 30.2955 667.161 30.5114C667.471 30.7235 667.867 30.8295 668.348 30.8295ZM674.685 32V20.3636H676.384V24.6875H676.486C676.584 24.5057 676.726 24.2955 676.912 24.0568C677.098 23.8182 677.355 23.6098 677.685 23.4318C678.014 23.25 678.45 23.1591 678.991 23.1591C679.696 23.1591 680.325 23.3371 680.878 23.6932C681.431 24.0492 681.865 24.5625 682.179 25.233C682.497 25.9034 682.656 26.7102 682.656 27.6534C682.656 28.5966 682.499 29.4053 682.185 30.0795C681.87 30.75 681.438 31.267 680.889 31.6307C680.34 31.9905 679.713 32.1705 679.009 32.1705C678.478 32.1705 678.045 32.0814 677.707 31.9034C677.374 31.7254 677.113 31.517 676.923 31.2784C676.734 31.0398 676.588 30.8277 676.486 30.642H676.344V32H674.685ZM676.349 27.6364C676.349 28.25 676.438 28.7879 676.616 29.25C676.795 29.7121 677.052 30.0739 677.389 30.3352C677.726 30.5928 678.139 30.7216 678.628 30.7216C679.135 30.7216 679.56 30.5871 679.901 30.3182C680.241 30.0455 680.499 29.6761 680.673 29.2102C680.851 28.7443 680.94 28.2197 680.94 27.6364C680.94 27.0606 680.853 26.5436 680.679 26.0852C680.509 25.6269 680.251 25.2652 679.906 25C679.565 24.7348 679.139 24.6023 678.628 24.6023C678.135 24.6023 677.719 24.7292 677.378 24.983C677.041 25.2367 676.785 25.5909 676.611 26.0455C676.437 26.5 676.349 27.0303 676.349 27.6364ZM698.327 20.3636V32H696.713L690.798 23.4659H690.69V32H688.935V20.3636H690.56L696.48 28.9091H696.588V20.3636H698.327ZM703.291 32.1932C702.738 32.1932 702.238 32.0909 701.791 31.8864C701.344 31.678 700.99 31.3769 700.729 30.983C700.471 30.589 700.342 30.1061 700.342 29.5341C700.342 29.0417 700.437 28.6364 700.626 28.3182C700.816 28 701.071 27.7481 701.393 27.5625C701.715 27.3769 702.075 27.2367 702.473 27.142C702.871 27.0473 703.276 26.9754 703.689 26.9261C704.212 26.8655 704.636 26.8163 704.962 26.7784C705.287 26.7367 705.524 26.6705 705.672 26.5795C705.82 26.4886 705.893 26.3409 705.893 26.1364V26.0966C705.893 25.6004 705.753 25.2159 705.473 24.9432C705.196 24.6705 704.784 24.5341 704.234 24.5341C703.662 24.5341 703.212 24.661 702.882 24.9148C702.556 25.1648 702.331 25.4432 702.206 25.75L700.609 25.3864C700.799 24.8561 701.075 24.428 701.439 24.1023C701.806 23.7727 702.229 23.5341 702.706 23.3864C703.183 23.2348 703.685 23.1591 704.212 23.1591C704.56 23.1591 704.929 23.2008 705.32 23.2841C705.714 23.3636 706.081 23.5114 706.422 23.7273C706.767 23.9432 707.049 24.2519 707.268 24.6534C707.488 25.0511 707.598 25.5682 707.598 26.2045V32H705.939V30.8068H705.871C705.761 31.0265 705.596 31.2424 705.376 31.4545C705.157 31.6667 704.875 31.8428 704.53 31.983C704.185 32.1231 703.772 32.1932 703.291 32.1932ZM703.661 30.8295C704.13 30.8295 704.532 30.7367 704.865 30.5511C705.202 30.3655 705.458 30.1231 705.632 29.8239C705.81 29.5208 705.899 29.197 705.899 28.8523V27.7273C705.839 27.7879 705.721 27.8447 705.547 27.8977C705.376 27.947 705.181 27.9905 704.962 28.0284C704.742 28.0625 704.528 28.0947 704.32 28.125C704.111 28.1515 703.937 28.1742 703.797 28.1932C703.467 28.2348 703.166 28.3049 702.893 28.4034C702.625 28.5019 702.409 28.6439 702.246 28.8295C702.087 29.0114 702.007 29.2538 702.007 29.5568C702.007 29.9773 702.162 30.2955 702.473 30.5114C702.784 30.7235 703.179 30.8295 703.661 30.8295ZM713.935 23.2727V24.6364H709.168V23.2727H713.935ZM710.446 21.1818H712.145V29.4375C712.145 29.767 712.194 30.0152 712.293 30.1818C712.391 30.3447 712.518 30.4564 712.673 30.517C712.832 30.5739 713.005 30.6023 713.19 30.6023C713.327 30.6023 713.446 30.5928 713.548 30.5739C713.651 30.5549 713.73 30.5398 713.787 30.5284L714.094 31.9318C713.995 31.9697 713.855 32.0076 713.673 32.0455C713.491 32.0871 713.264 32.1098 712.991 32.1136C712.545 32.1212 712.128 32.0417 711.741 31.875C711.355 31.7083 711.043 31.4508 710.804 31.1023C710.565 30.7538 710.446 30.3163 710.446 29.7898V21.1818ZM715.814 32V23.2727H717.513V32H715.814ZM716.672 21.9261C716.376 21.9261 716.123 21.8277 715.911 21.6307C715.702 21.4299 715.598 21.1913 715.598 20.9148C715.598 20.6345 715.702 20.3958 715.911 20.1989C716.123 19.9981 716.376 19.8977 716.672 19.8977C716.967 19.8977 717.219 19.9981 717.428 20.1989C717.64 20.3958 717.746 20.6345 717.746 20.9148C717.746 21.1913 717.64 21.4299 717.428 21.6307C717.219 21.8277 716.967 21.9261 716.672 21.9261ZM723.474 32.1761C722.656 32.1761 721.942 31.9886 721.332 31.6136C720.723 31.2386 720.249 30.714 719.912 30.0398C719.575 29.3655 719.406 28.5777 719.406 27.6761C719.406 26.7708 719.575 25.9792 719.912 25.3011C720.249 24.6231 720.723 24.0966 721.332 23.7216C721.942 23.3466 722.656 23.1591 723.474 23.1591C724.293 23.1591 725.007 23.3466 725.616 23.7216C726.226 24.0966 726.7 24.6231 727.037 25.3011C727.374 25.9792 727.543 26.7708 727.543 27.6761C727.543 28.5777 727.374 29.3655 727.037 30.0398C726.7 30.714 726.226 31.2386 725.616 31.6136C725.007 31.9886 724.293 32.1761 723.474 32.1761ZM723.48 30.75C724.01 30.75 724.45 30.6098 724.798 30.3295C725.147 30.0492 725.404 29.6761 725.571 29.2102C725.741 28.7443 725.827 28.2311 725.827 27.6705C725.827 27.1136 725.741 26.6023 725.571 26.1364C725.404 25.6667 725.147 25.2898 724.798 25.0057C724.45 24.7216 724.01 24.5795 723.48 24.5795C722.946 24.5795 722.503 24.7216 722.151 25.0057C721.802 25.2898 721.543 25.6667 721.372 26.1364C721.205 26.6023 721.122 27.1136 721.122 27.6705C721.122 28.2311 721.205 28.7443 721.372 29.2102C721.543 29.6761 721.802 30.0492 722.151 30.3295C722.503 30.6098 722.946 30.75 723.48 30.75ZM731.138 26.8182V32H729.439V23.2727H731.07V24.6932H731.178C731.378 24.2311 731.693 23.8598 732.121 23.5795C732.553 23.2992 733.096 23.1591 733.751 23.1591C734.346 23.1591 734.867 23.2841 735.314 23.5341C735.761 23.7803 736.107 24.1477 736.354 24.6364C736.6 25.125 736.723 25.7292 736.723 26.4489V32H735.024V26.6534C735.024 26.0208 734.859 25.5265 734.53 25.1705C734.2 24.8106 733.748 24.6307 733.172 24.6307C732.778 24.6307 732.428 24.7159 732.121 24.8864C731.818 25.0568 731.577 25.3068 731.399 25.6364C731.225 25.9621 731.138 26.3561 731.138 26.8182ZM741.541 32.1932C740.988 32.1932 740.488 32.0909 740.041 31.8864C739.594 31.678 739.24 31.3769 738.979 30.983C738.721 30.589 738.592 30.1061 738.592 29.5341C738.592 29.0417 738.687 28.6364 738.876 28.3182C739.066 28 739.321 27.7481 739.643 27.5625C739.965 27.3769 740.325 27.2367 740.723 27.142C741.121 27.0473 741.526 26.9754 741.939 26.9261C742.462 26.8655 742.886 26.8163 743.212 26.7784C743.537 26.7367 743.774 26.6705 743.922 26.5795C744.07 26.4886 744.143 26.3409 744.143 26.1364V26.0966C744.143 25.6004 744.003 25.2159 743.723 24.9432C743.446 24.6705 743.034 24.5341 742.484 24.5341C741.912 24.5341 741.462 24.661 741.132 24.9148C740.806 25.1648 740.581 25.4432 740.456 25.75L738.859 25.3864C739.049 24.8561 739.325 24.428 739.689 24.1023C740.056 23.7727 740.479 23.5341 740.956 23.3864C741.433 23.2348 741.935 23.1591 742.462 23.1591C742.81 23.1591 743.179 23.2008 743.57 23.2841C743.964 23.3636 744.331 23.5114 744.672 23.7273C745.017 23.9432 745.299 24.2519 745.518 24.6534C745.738 25.0511 745.848 25.5682 745.848 26.2045V32H744.189V30.8068H744.121C744.011 31.0265 743.846 31.2424 743.626 31.4545C743.407 31.6667 743.125 31.8428 742.78 31.983C742.435 32.1231 742.022 32.1932 741.541 32.1932ZM741.911 30.8295C742.38 30.8295 742.782 30.7367 743.115 30.5511C743.452 30.3655 743.708 30.1231 743.882 29.8239C744.06 29.5208 744.149 29.197 744.149 28.8523V27.7273C744.089 27.7879 743.971 27.8447 743.797 27.8977C743.626 27.947 743.431 27.9905 743.212 28.0284C742.992 28.0625 742.778 28.0947 742.57 28.125C742.361 28.1515 742.187 28.1742 742.047 28.1932C741.717 28.2348 741.416 28.3049 741.143 28.4034C740.875 28.5019 740.659 28.6439 740.496 28.8295C740.337 29.0114 740.257 29.2538 740.257 29.5568C740.257 29.9773 740.412 30.2955 740.723 30.5114C741.034 30.7235 741.429 30.8295 741.911 30.8295ZM749.81 20.3636V32H748.111V20.3636H749.81ZM756.466 32V20.3636H760.727C761.553 20.3636 762.237 20.5 762.778 20.7727C763.32 21.0417 763.725 21.4072 763.994 21.8693C764.263 22.3277 764.398 22.8447 764.398 23.4205C764.398 23.9053 764.309 24.3144 764.131 24.6477C763.953 24.9773 763.714 25.2424 763.415 25.4432C763.119 25.6402 762.794 25.7841 762.438 25.875V25.9886C762.824 26.0076 763.201 26.1326 763.568 26.3636C763.939 26.5909 764.246 26.9148 764.489 27.3352C764.731 27.7557 764.852 28.267 764.852 28.8693C764.852 29.464 764.712 29.9981 764.432 30.4716C764.155 30.9413 763.727 31.3144 763.148 31.5909C762.568 31.8636 761.828 32 760.926 32H756.466ZM758.222 30.4943H760.756C761.597 30.4943 762.199 30.3314 762.562 30.0057C762.926 29.6799 763.108 29.2727 763.108 28.7841C763.108 28.4167 763.015 28.0795 762.83 27.7727C762.644 27.4659 762.379 27.2216 762.034 27.0398C761.693 26.858 761.288 26.767 760.818 26.767H758.222V30.4943ZM758.222 25.3977H760.574C760.968 25.3977 761.322 25.322 761.636 25.1705C761.955 25.0189 762.206 24.8068 762.392 24.5341C762.581 24.2576 762.676 23.9318 762.676 23.5568C762.676 23.0758 762.508 22.6723 762.17 22.3466C761.833 22.0208 761.316 21.858 760.619 21.858H758.222V25.3977ZM769.338 32.1932C768.785 32.1932 768.285 32.0909 767.838 31.8864C767.391 31.678 767.037 31.3769 766.776 30.983C766.518 30.589 766.389 30.1061 766.389 29.5341C766.389 29.0417 766.484 28.6364 766.673 28.3182C766.863 28 767.118 27.7481 767.44 27.5625C767.762 27.3769 768.122 27.2367 768.52 27.142C768.918 27.0473 769.323 26.9754 769.736 26.9261C770.259 26.8655 770.683 26.8163 771.009 26.7784C771.334 26.7367 771.571 26.6705 771.719 26.5795C771.866 26.4886 771.94 26.3409 771.94 26.1364V26.0966C771.94 25.6004 771.8 25.2159 771.52 24.9432C771.243 24.6705 770.83 24.5341 770.281 24.5341C769.709 24.5341 769.259 24.661 768.929 24.9148C768.603 25.1648 768.378 25.4432 768.253 25.75L766.656 25.3864C766.846 24.8561 767.122 24.428 767.486 24.1023C767.853 23.7727 768.276 23.5341 768.753 23.3864C769.23 23.2348 769.732 23.1591 770.259 23.1591C770.607 23.1591 770.976 23.2008 771.366 23.2841C771.76 23.3636 772.128 23.5114 772.469 23.7273C772.813 23.9432 773.096 24.2519 773.315 24.6534C773.535 25.0511 773.645 25.5682 773.645 26.2045V32H771.986V30.8068H771.918C771.808 31.0265 771.643 31.2424 771.423 31.4545C771.204 31.6667 770.921 31.8428 770.577 31.983C770.232 32.1231 769.819 32.1932 769.338 32.1932ZM769.707 30.8295C770.177 30.8295 770.579 30.7367 770.912 30.5511C771.249 30.3655 771.505 30.1231 771.679 29.8239C771.857 29.5208 771.946 29.197 771.946 28.8523V27.7273C771.885 27.7879 771.768 27.8447 771.594 27.8977C771.423 27.947 771.228 27.9905 771.009 28.0284C770.789 28.0625 770.575 28.0947 770.366 28.125C770.158 28.1515 769.984 28.1742 769.844 28.1932C769.514 28.2348 769.213 28.3049 768.94 28.4034C768.671 28.5019 768.455 28.6439 768.293 28.8295C768.134 29.0114 768.054 29.2538 768.054 29.5568C768.054 29.9773 768.209 30.2955 768.52 30.5114C768.83 30.7235 769.226 30.8295 769.707 30.8295ZM777.607 26.8182V32H775.908V23.2727H777.538V24.6932H777.646C777.847 24.2311 778.161 23.8598 778.589 23.5795C779.021 23.2992 779.565 23.1591 780.22 23.1591C780.815 23.1591 781.336 23.2841 781.783 23.5341C782.23 23.7803 782.576 24.1477 782.822 24.6364C783.069 25.125 783.192 25.7292 783.192 26.4489V32H781.493V26.6534C781.493 26.0208 781.328 25.5265 780.999 25.1705C780.669 24.8106 780.216 24.6307 779.641 24.6307C779.247 24.6307 778.896 24.7159 778.589 24.8864C778.286 25.0568 778.046 25.3068 777.868 25.6364C777.694 25.9621 777.607 26.3561 777.607 26.8182ZM787.033 29.0398L787.021 26.9659H787.317L790.794 23.2727H792.828L788.862 27.4773H788.595L787.033 29.0398ZM785.47 32V20.3636H787.169V32H785.47ZM790.982 32L787.857 27.8523L789.027 26.6648L793.067 32H790.982Z" fill="#9198A1"/>
<circle cx="1176" cy="26" r="8" fill="#13EE42"/>
<path d="M1194.05 32H1190.28V20.3636H1194.16C1195.3 20.3636 1196.28 20.5966 1197.1 21.0625C1197.92 21.5246 1198.55 22.1894 1198.98 23.0568C1199.42 23.9205 1199.64 24.9564 1199.64 26.1648C1199.64 27.3769 1199.42 28.4186 1198.98 29.2898C1198.54 30.161 1197.9 30.8314 1197.07 31.3011C1196.23 31.767 1195.23 32 1194.05 32ZM1192.03 30.4659H1193.95C1194.84 30.4659 1195.57 30.2992 1196.16 29.9659C1196.75 29.6288 1197.19 29.142 1197.48 28.5057C1197.77 27.8655 1197.91 27.0852 1197.91 26.1648C1197.91 25.2519 1197.77 24.4773 1197.48 23.8409C1197.19 23.2045 1196.76 22.7216 1196.19 22.392C1195.62 22.0625 1194.91 21.8977 1194.06 21.8977H1192.03V30.4659ZM1205.37 32.1761C1204.55 32.1761 1203.83 31.9886 1203.22 31.6136C1202.61 31.2386 1202.14 30.714 1201.8 30.0398C1201.47 29.3655 1201.3 28.5777 1201.3 27.6761C1201.3 26.7708 1201.47 25.9792 1201.8 25.3011C1202.14 24.6231 1202.61 24.0966 1203.22 23.7216C1203.83 23.3466 1204.55 23.1591 1205.37 23.1591C1206.18 23.1591 1206.9 23.3466 1207.51 23.7216C1208.12 24.0966 1208.59 24.6231 1208.93 25.3011C1209.26 25.9792 1209.43 26.7708 1209.43 27.6761C1209.43 28.5777 1209.26 29.3655 1208.93 30.0398C1208.59 30.714 1208.12 31.2386 1207.51 31.6136C1206.9 31.9886 1206.18 32.1761 1205.37 32.1761ZM1205.37 30.75C1205.9 30.75 1206.34 30.6098 1206.69 30.3295C1207.04 30.0492 1207.29 29.6761 1207.46 29.2102C1207.63 28.7443 1207.72 28.2311 1207.72 27.6705C1207.72 27.1136 1207.63 26.6023 1207.46 26.1364C1207.29 25.6667 1207.04 25.2898 1206.69 25.0057C1206.34 24.7216 1205.9 24.5795 1205.37 24.5795C1204.84 24.5795 1204.39 24.7216 1204.04 25.0057C1203.69 25.2898 1203.43 25.6667 1203.26 26.1364C1203.1 26.6023 1203.01 27.1136 1203.01 27.6705C1203.01 28.2311 1203.1 28.7443 1203.26 29.2102C1203.43 29.6761 1203.69 30.0492 1204.04 30.3295C1204.39 30.6098 1204.84 30.75 1205.37 30.75ZM1213.03 26.8182V32H1211.33V23.2727H1212.96V24.6932H1213.07C1213.27 24.2311 1213.58 23.8598 1214.01 23.5795C1214.44 23.2992 1214.99 23.1591 1215.64 23.1591C1216.24 23.1591 1216.76 23.2841 1217.2 23.5341C1217.65 23.7803 1218 24.1477 1218.24 24.6364C1218.49 25.125 1218.61 25.7292 1218.61 26.4489V32H1216.91V26.6534C1216.91 26.0208 1216.75 25.5265 1216.42 25.1705C1216.09 24.8106 1215.64 24.6307 1215.06 24.6307C1214.67 24.6307 1214.32 24.7159 1214.01 24.8864C1213.71 25.0568 1213.47 25.3068 1213.29 25.6364C1213.12 25.9621 1213.03 26.3561 1213.03 26.8182ZM1224.65 32.1761C1223.79 32.1761 1223.05 31.9924 1222.43 31.625C1221.81 31.2538 1221.34 30.733 1221 30.0625C1220.67 29.3883 1220.5 28.5985 1220.5 27.6932C1220.5 26.7992 1220.67 26.0114 1221 25.3295C1221.34 24.6477 1221.81 24.1155 1222.41 23.733C1223.02 23.3504 1223.72 23.1591 1224.53 23.1591C1225.03 23.1591 1225.5 23.2405 1225.97 23.4034C1226.43 23.5663 1226.84 23.822 1227.21 24.1705C1227.58 24.5189 1227.87 24.9716 1228.08 25.5284C1228.29 26.0814 1228.4 26.7538 1228.4 27.5455V28.1477H1221.46V26.875H1226.73C1226.73 26.428 1226.64 26.0322 1226.46 25.6875C1226.28 25.339 1226.02 25.0644 1225.69 24.8636C1225.37 24.6629 1224.98 24.5625 1224.55 24.5625C1224.07 24.5625 1223.65 24.6799 1223.3 24.9148C1222.94 25.1458 1222.67 25.4489 1222.48 25.8239C1222.29 26.1951 1222.19 26.5985 1222.19 27.0341V28.0284C1222.19 28.6117 1222.3 29.108 1222.5 29.517C1222.71 29.9261 1223 30.2386 1223.37 30.4545C1223.74 30.6667 1224.17 30.7727 1224.67 30.7727C1224.99 30.7727 1225.29 30.7273 1225.55 30.6364C1225.82 30.5417 1226.05 30.4015 1226.24 30.2159C1226.43 30.0303 1226.58 29.8011 1226.68 29.5284L1228.29 29.8182C1228.16 30.2917 1227.93 30.7064 1227.6 31.0625C1227.27 31.4148 1226.85 31.6894 1226.35 31.8864C1225.86 32.0795 1225.29 32.1761 1224.65 32.1761Z" fill="#9198A1"/>
<path d="M1010.6 33.9809C1010.57 33.995 1010.54 34.0016 1010.51 33.9997C1010.48 33.9978 1010.45 33.9875 1010.43 33.9702C1009.95 33.6989 1007.54 32.2562 1005.91 30.4448C1004.91 29.3268 1008.71 27.6628 1008.71 27.8821C1008.72 29.0701 1009.09 32.1935 1010.65 33.7135C1010.68 33.7473 1010.69 33.7901 1010.69 33.8339C1010.69 33.8776 1010.67 33.9192 1010.64 33.9509L1010.6 33.9742M1009.6 26.7214L1013.06 25.3088C1013.49 25.1552 1013.89 24.9187 1014.21 24.6154C1014.54 24.3121 1014.79 23.9491 1014.94 23.5514L1015.38 22.4621C1015.38 22.4475 1015.38 22.4322 1015.38 22.4168C1015.38 22.4015 1015.38 22.3865 1015.37 22.3727C1015.36 22.359 1015.35 22.3467 1015.34 22.3366C1015.33 22.3265 1015.31 22.3189 1015.29 22.3141C1015.26 22.3035 1015.23 22.3035 1015.2 22.3141L1008.6 24.8281L1008.62 24.7334C1008.64 24.6467 1008.68 24.5643 1008.73 24.4922C1008.79 24.4201 1008.86 24.36 1008.95 24.3161C1010.06 23.6981 1014.07 21.8587 1014.07 21.8587C1014.7 21.5946 1015.26 21.2137 1015.71 20.7411C1016.16 20.2684 1016.5 19.715 1016.69 19.1173L1017 18.1867C1017.01 18.1495 1017 18.1103 1016.98 18.0771C1016.96 18.0439 1016.92 18.0192 1016.88 18.008C1016.85 17.9973 1016.81 17.9973 1016.77 18.008C1016.77 18.008 1010.74 20.112 1008.81 20.958C1006.87 21.8047 1004.88 22.8934 1004.19 26.0948C1003.91 27.3915 1004.43 28.4895 1005.39 29.7348C1005.38 28.5108 1008.83 27.0548 1009.6 26.7214ZM1001.09 21.24C1000.55 20.866 1000.08 20.8334 1000 20.866C999.965 20.75 1000.63 20.468 1000.71 20.3947C1000.98 20.164 1001.13 19.8587 1001.44 19.6627C1002.09 19.2553 1002.88 19.38 1003.54 19.7054C1003.88 19.872 1004.81 20.4194 1004.82 20.4467C1005.33 20.7875 1005.8 21.1691 1006.23 21.5867C1006.26 21.6158 1006.27 21.653 1006.27 21.6914C1006.27 21.7298 1006.26 21.7669 1006.23 21.796C1006.07 21.9314 1005.92 22.0281 1005.73 22.1727C1004.47 23.1261 1003.7 25.6661 1003.69 25.9801V26.0001C1003.69 26.0001 1002.95 22.4134 1001.09 21.24Z" fill="url(#paint5_linear_606_2467)"/>
<path d="M1024.28 32V20.3636H1031.49V21.875H1026.03V25.4205H1030.98V26.9261H1026.03V32H1024.28ZM1036.03 32.1932C1035.47 32.1932 1034.97 32.0909 1034.53 31.8864C1034.08 31.678 1033.72 31.3769 1033.46 30.983C1033.21 30.589 1033.08 30.1061 1033.08 29.5341C1033.08 29.0417 1033.17 28.6364 1033.36 28.3182C1033.55 28 1033.81 27.7481 1034.13 27.5625C1034.45 27.3769 1034.81 27.2367 1035.21 27.142C1035.61 27.0473 1036.01 26.9754 1036.42 26.9261C1036.95 26.8655 1037.37 26.8163 1037.7 26.7784C1038.02 26.7367 1038.26 26.6705 1038.41 26.5795C1038.55 26.4886 1038.63 26.3409 1038.63 26.1364V26.0966C1038.63 25.6004 1038.49 25.2159 1038.21 24.9432C1037.93 24.6705 1037.52 24.5341 1036.97 24.5341C1036.4 24.5341 1035.95 24.661 1035.62 24.9148C1035.29 25.1648 1035.07 25.4432 1034.94 25.75L1033.34 25.3864C1033.53 24.8561 1033.81 24.428 1034.17 24.1023C1034.54 23.7727 1034.96 23.5341 1035.44 23.3864C1035.92 23.2348 1036.42 23.1591 1036.95 23.1591C1037.29 23.1591 1037.66 23.2008 1038.05 23.2841C1038.45 23.3636 1038.82 23.5114 1039.16 23.7273C1039.5 23.9432 1039.78 24.2519 1040 24.6534C1040.22 25.0511 1040.33 25.5682 1040.33 26.2045V32H1038.67V30.8068H1038.61C1038.5 31.0265 1038.33 31.2424 1038.11 31.4545C1037.89 31.6667 1037.61 31.8428 1037.26 31.983C1036.92 32.1231 1036.51 32.1932 1036.03 32.1932ZM1036.39 30.8295C1036.86 30.8295 1037.27 30.7367 1037.6 30.5511C1037.94 30.3655 1038.19 30.1231 1038.37 29.8239C1038.54 29.5208 1038.63 29.197 1038.63 28.8523V27.7273C1038.57 27.7879 1038.46 27.8447 1038.28 27.8977C1038.11 27.947 1037.92 27.9905 1037.7 28.0284C1037.48 28.0625 1037.26 28.0947 1037.05 28.125C1036.85 28.1515 1036.67 28.1742 1036.53 28.1932C1036.2 28.2348 1035.9 28.3049 1035.63 28.4034C1035.36 28.5019 1035.14 28.6439 1034.98 28.8295C1034.82 29.0114 1034.74 29.2538 1034.74 29.5568C1034.74 29.9773 1034.9 30.2955 1035.21 30.5114C1035.52 30.7235 1035.91 30.8295 1036.39 30.8295ZM1042.6 32V23.2727H1044.23V24.6932H1044.33C1044.52 24.2121 1044.81 23.8371 1045.23 23.5682C1045.64 23.2955 1046.13 23.1591 1046.71 23.1591C1047.29 23.1591 1047.78 23.2955 1048.17 23.5682C1048.57 23.8409 1048.87 24.2159 1049.06 24.6932H1049.15C1049.35 24.2273 1049.69 23.8561 1050.14 23.5795C1050.6 23.2992 1051.14 23.1591 1051.77 23.1591C1052.56 23.1591 1053.2 23.4072 1053.7 23.9034C1054.21 24.3996 1054.46 25.1477 1054.46 26.1477V32H1052.76V26.3068C1052.76 25.7159 1052.6 25.2879 1052.28 25.0227C1051.96 24.7576 1051.57 24.625 1051.12 24.625C1050.57 24.625 1050.14 24.7955 1049.83 25.1364C1049.53 25.4735 1049.37 25.9072 1049.37 26.4375V32H1047.68V26.1989C1047.68 25.7254 1047.53 25.3447 1047.24 25.0568C1046.94 24.7689 1046.56 24.625 1046.08 24.625C1045.76 24.625 1045.46 24.7102 1045.19 24.8807C1044.92 25.0473 1044.71 25.2803 1044.54 25.5795C1044.38 25.8788 1044.29 26.2254 1044.29 26.6193V32H1042.6ZM1056.74 35.2727V23.2727H1058.39V24.6875H1058.54C1058.64 24.5057 1058.78 24.2955 1058.96 24.0568C1059.15 23.8182 1059.41 23.6098 1059.74 23.4318C1060.07 23.25 1060.5 23.1591 1061.04 23.1591C1061.75 23.1591 1062.38 23.3371 1062.93 23.6932C1063.48 24.0492 1063.92 24.5625 1064.23 25.233C1064.55 25.9034 1064.71 26.7102 1064.71 27.6534C1064.71 28.5966 1064.55 29.4053 1064.24 30.0795C1063.92 30.75 1063.49 31.267 1062.94 31.6307C1062.39 31.9905 1061.76 32.1705 1061.06 32.1705C1060.53 32.1705 1060.1 32.0814 1059.76 31.9034C1059.43 31.7254 1059.16 31.517 1058.97 31.2784C1058.79 31.0398 1058.64 30.8277 1058.54 30.642H1058.43V35.2727H1056.74ZM1058.4 27.6364C1058.4 28.25 1058.49 28.7879 1058.67 29.25C1058.85 29.7121 1059.1 30.0739 1059.44 30.3352C1059.78 30.5928 1060.19 30.7216 1060.68 30.7216C1061.19 30.7216 1061.61 30.5871 1061.95 30.3182C1062.29 30.0455 1062.55 29.6761 1062.72 29.2102C1062.9 28.7443 1062.99 28.2197 1062.99 27.6364C1062.99 27.0606 1062.9 26.5436 1062.73 26.0852C1062.56 25.6269 1062.3 25.2652 1061.96 25C1061.62 24.7348 1061.19 24.6023 1060.68 24.6023C1060.19 24.6023 1059.77 24.7292 1059.43 24.983C1059.09 25.2367 1058.84 25.5909 1058.66 26.0455C1058.49 26.5 1058.4 27.0303 1058.4 27.6364ZM1069.15 32.1932C1068.6 32.1932 1068.1 32.0909 1067.65 31.8864C1067.2 31.678 1066.85 31.3769 1066.59 30.983C1066.33 30.589 1066.2 30.1061 1066.2 29.5341C1066.2 29.0417 1066.3 28.6364 1066.49 28.3182C1066.68 28 1066.93 27.7481 1067.25 27.5625C1067.57 27.3769 1067.93 27.2367 1068.33 27.142C1068.73 27.0473 1069.14 26.9754 1069.55 26.9261C1070.07 26.8655 1070.5 26.8163 1070.82 26.7784C1071.15 26.7367 1071.38 26.6705 1071.53 26.5795C1071.68 26.4886 1071.75 26.3409 1071.75 26.1364V26.0966C1071.75 25.6004 1071.61 25.2159 1071.33 24.9432C1071.06 24.6705 1070.64 24.5341 1070.09 24.5341C1069.52 24.5341 1069.07 24.661 1068.74 24.9148C1068.42 25.1648 1068.19 25.4432 1068.07 25.75L1066.47 25.3864C1066.66 24.8561 1066.93 24.428 1067.3 24.1023C1067.67 23.7727 1068.09 23.5341 1068.57 23.3864C1069.04 23.2348 1069.54 23.1591 1070.07 23.1591C1070.42 23.1591 1070.79 23.2008 1071.18 23.2841C1071.57 23.3636 1071.94 23.5114 1072.28 23.7273C1072.63 23.9432 1072.91 24.2519 1073.13 24.6534C1073.35 25.0511 1073.46 25.5682 1073.46 26.2045V32H1071.8V30.8068H1071.73C1071.62 31.0265 1071.46 31.2424 1071.24 31.4545C1071.02 31.6667 1070.73 31.8428 1070.39 31.983C1070.04 32.1231 1069.63 32.1932 1069.15 32.1932ZM1069.52 30.8295C1069.99 30.8295 1070.39 30.7367 1070.72 30.5511C1071.06 30.3655 1071.32 30.1231 1071.49 29.8239C1071.67 29.5208 1071.76 29.197 1071.76 28.8523V27.7273C1071.7 27.7879 1071.58 27.8447 1071.41 27.8977C1071.24 27.947 1071.04 27.9905 1070.82 28.0284C1070.6 28.0625 1070.39 28.0947 1070.18 28.125C1069.97 28.1515 1069.8 28.1742 1069.66 28.1932C1069.33 28.2348 1069.03 28.3049 1068.75 28.4034C1068.48 28.5019 1068.27 28.6439 1068.11 28.8295C1067.95 29.0114 1067.87 29.2538 1067.87 29.5568C1067.87 29.9773 1068.02 30.2955 1068.33 30.5114C1068.64 30.7235 1069.04 30.8295 1069.52 30.8295ZM1076.48 35.2727C1076.23 35.2727 1076 35.2519 1075.79 35.2102C1075.58 35.1723 1075.42 35.1307 1075.32 35.0852L1075.73 33.6932C1076.04 33.7765 1076.32 33.8125 1076.56 33.8011C1076.8 33.7898 1077.02 33.6989 1077.2 33.5284C1077.39 33.358 1077.56 33.0795 1077.7 32.6932L1077.91 32.1136L1074.72 23.2727H1076.54L1078.75 30.0455H1078.84L1081.05 23.2727H1082.87L1079.28 33.1648C1079.11 33.6193 1078.9 34.0038 1078.64 34.3182C1078.38 34.6364 1078.08 34.875 1077.72 35.0341C1077.36 35.1932 1076.95 35.2727 1076.48 35.2727Z" fill="#9198A1"/>
<path d="M859.465 20.0503C858.824 19.4106 857.955 19.0512 857.049 19.0512C856.144 19.0512 855.275 19.4106 854.634 20.0503L853.954 20.73C853.569 21.1156 853.27 21.5794 853.078 22.0901C852.887 22.6007 852.807 23.1465 852.844 23.6906L852.867 24.0305C852.878 24.1972 852.85 24.3642 852.784 24.5178C852.718 24.6714 852.617 24.8072 852.488 24.9141L851.392 25.8447L850.725 25.2783C850.556 25.1371 850.423 24.9579 850.336 24.7553C850.249 24.5527 850.212 24.3324 850.227 24.1126L850.25 23.7728C850.284 23.277 850.211 22.7798 850.036 22.3145C849.862 21.8493 849.59 21.4268 849.238 21.0755L846.903 18.7402L845.955 19.6884L847.499 21.2319L846.777 21.954L845.234 20.4106L844.251 21.3916L845.79 22.9311L845.069 23.6521L843.53 22.1126L842.551 23.0919L844.886 25.4272C845.237 25.7787 845.66 26.0508 846.125 26.2253C846.59 26.3998 847.088 26.4726 847.583 26.4388L847.923 26.4156C848.143 26.4008 848.363 26.4383 848.566 26.5249C848.768 26.6115 848.948 26.7449 849.089 26.914L849.524 27.4272L846.069 30.3606C845.724 30.6494 845.475 31.0375 845.358 31.4724C845.241 31.9073 845.26 32.3677 845.414 32.7911C845.567 33.2145 845.848 33.5804 846.216 33.8389C846.585 34.0974 847.025 34.236 847.475 34.236C847.508 34.236 847.541 34.236 847.574 34.236C847.877 34.2218 848.175 34.1447 848.447 34.0094C848.72 33.8742 848.961 33.6838 849.156 33.4504L851.895 30.219L854.538 33.3343C854.703 33.5315 854.908 33.6923 855.138 33.8065C855.369 33.9207 855.62 33.9857 855.877 33.9975C855.905 33.9975 855.934 33.9975 855.96 33.9975C856.341 33.998 856.712 33.881 857.024 33.6627C857.336 33.4444 857.573 33.1352 857.703 32.7773C857.833 32.4194 857.85 32.0301 857.751 31.6624C857.652 31.2948 857.442 30.9666 857.149 30.7226L853.842 27.9234L854.603 27.0256C854.71 26.8978 854.845 26.7971 854.998 26.7317C855.151 26.6662 855.318 26.6379 855.484 26.649L855.824 26.6716C856.368 26.7088 856.914 26.6289 857.425 26.4372C857.936 26.2455 858.4 25.9465 858.785 25.5603L859.465 24.8806C860.104 24.2396 860.464 23.371 860.464 22.4655C860.464 21.5599 860.104 20.6914 859.465 20.0503ZM858.744 24.1602L858.065 24.8399C857.782 25.1227 857.442 25.3416 857.068 25.482C856.693 25.6224 856.293 25.681 855.894 25.6538L855.554 25.6306C855.228 25.6082 854.901 25.6632 854.6 25.7912C854.299 25.9191 854.033 26.1164 853.823 26.3669L848.376 32.7945C848.271 32.9201 848.142 33.0225 847.996 33.0953C847.85 33.168 847.69 33.2094 847.527 33.2168C847.364 33.2242 847.201 33.1975 847.048 33.1383C846.896 33.0792 846.758 32.9889 846.643 32.8733C846.527 32.7577 846.438 32.6192 846.379 32.4669C846.32 32.3145 846.294 32.1516 846.302 31.9885C846.31 31.8254 846.351 31.6657 846.425 31.5197C846.498 31.3737 846.6 31.2446 846.726 31.1406L853.143 25.6934C853.394 25.483 853.592 25.2161 853.721 24.9146C853.849 24.6131 853.905 24.2855 853.883 23.9585L853.86 23.6187C853.832 23.2198 853.891 22.8197 854.031 22.4453C854.172 22.0709 854.391 21.7309 854.674 21.4482L855.353 20.7685C855.576 20.546 855.84 20.3694 856.131 20.249C856.422 20.1286 856.733 20.0666 857.048 20.0666C857.363 20.0666 857.674 20.1286 857.965 20.249C858.256 20.3694 858.52 20.546 858.743 20.7685C858.965 20.9911 859.142 21.2553 859.262 21.5461C859.383 21.8368 859.445 22.1485 859.445 22.4632C859.445 22.778 859.383 23.0896 859.262 23.3804C859.142 23.6712 858.965 23.9354 858.743 24.1579L858.744 24.1602Z" fill="#9198A1"/>
<path d="M869.278 32V20.3636H876.494V21.875H871.034V25.4205H875.977V26.9261H871.034V32H869.278ZM881.553 32.1761C880.734 32.1761 880.02 31.9886 879.411 31.6136C878.801 31.2386 878.327 30.714 877.99 30.0398C877.653 29.3655 877.484 28.5777 877.484 27.6761C877.484 26.7708 877.653 25.9792 877.99 25.3011C878.327 24.6231 878.801 24.0966 879.411 23.7216C880.02 23.3466 880.734 23.1591 881.553 23.1591C882.371 23.1591 883.085 23.3466 883.695 23.7216C884.304 24.0966 884.778 24.6231 885.115 25.3011C885.452 25.9792 885.621 26.7708 885.621 27.6761C885.621 28.5777 885.452 29.3655 885.115 30.0398C884.778 30.714 884.304 31.2386 883.695 31.6136C883.085 31.9886 882.371 32.1761 881.553 32.1761ZM881.558 30.75C882.089 30.75 882.528 30.6098 882.876 30.3295C883.225 30.0492 883.482 29.6761 883.649 29.2102C883.82 28.7443 883.905 28.2311 883.905 27.6705C883.905 27.1136 883.82 26.6023 883.649 26.1364C883.482 25.6667 883.225 25.2898 882.876 25.0057C882.528 24.7216 882.089 24.5795 881.558 24.5795C881.024 24.5795 880.581 24.7216 880.229 25.0057C879.88 25.2898 879.621 25.6667 879.45 26.1364C879.284 26.6023 879.2 27.1136 879.2 27.6705C879.2 28.2311 879.284 28.7443 879.45 29.2102C879.621 29.6761 879.88 30.0492 880.229 30.3295C880.581 30.6098 881.024 30.75 881.558 30.75ZM891.193 32.1761C890.375 32.1761 889.661 31.9886 889.051 31.6136C888.441 31.2386 887.968 30.714 887.631 30.0398C887.294 29.3655 887.125 28.5777 887.125 27.6761C887.125 26.7708 887.294 25.9792 887.631 25.3011C887.968 24.6231 888.441 24.0966 889.051 23.7216C889.661 23.3466 890.375 23.1591 891.193 23.1591C892.011 23.1591 892.725 23.3466 893.335 23.7216C893.945 24.0966 894.419 24.6231 894.756 25.3011C895.093 25.9792 895.261 26.7708 895.261 27.6761C895.261 28.5777 895.093 29.3655 894.756 30.0398C894.419 30.714 893.945 31.2386 893.335 31.6136C892.725 31.9886 892.011 32.1761 891.193 32.1761ZM891.199 30.75C891.729 30.75 892.169 30.6098 892.517 30.3295C892.866 30.0492 893.123 29.6761 893.29 29.2102C893.46 28.7443 893.545 28.2311 893.545 27.6705C893.545 27.1136 893.46 26.6023 893.29 26.1364C893.123 25.6667 892.866 25.2898 892.517 25.0057C892.169 24.7216 891.729 24.5795 891.199 24.5795C890.665 24.5795 890.222 24.7216 889.869 25.0057C889.521 25.2898 889.261 25.6667 889.091 26.1364C888.924 26.6023 888.841 27.1136 888.841 27.6705C888.841 28.2311 888.924 28.7443 889.091 29.2102C889.261 29.6761 889.521 30.0492 889.869 30.3295C890.222 30.6098 890.665 30.75 891.199 30.75ZM900.425 32.1705C899.72 32.1705 899.091 31.9905 898.538 31.6307C897.989 31.267 897.557 30.75 897.243 30.0795C896.932 29.4053 896.777 28.5966 896.777 27.6534C896.777 26.7102 896.934 25.9034 897.249 25.233C897.567 24.5625 898.002 24.0492 898.555 23.6932C899.108 23.3371 899.735 23.1591 900.436 23.1591C900.978 23.1591 901.413 23.25 901.743 23.4318C902.076 23.6098 902.334 23.8182 902.516 24.0568C902.701 24.2955 902.845 24.5057 902.947 24.6875H903.05V20.3636H904.749V32H903.089V30.642H902.947C902.845 30.8277 902.697 31.0398 902.504 31.2784C902.315 31.517 902.054 31.7254 901.72 31.9034C901.387 32.0814 900.955 32.1705 900.425 32.1705ZM900.8 30.7216C901.288 30.7216 901.701 30.5928 902.038 30.3352C902.379 30.0739 902.637 29.7121 902.811 29.25C902.989 28.7879 903.078 28.25 903.078 27.6364C903.078 27.0303 902.991 26.5 902.817 26.0455C902.643 25.5909 902.387 25.2367 902.05 24.983C901.713 24.7292 901.296 24.6023 900.8 24.6023C900.288 24.6023 899.862 24.7348 899.521 25C899.18 25.2652 898.923 25.6269 898.749 26.0852C898.578 26.5436 898.493 27.0606 898.493 27.6364C898.493 28.2197 898.58 28.7443 898.754 29.2102C898.929 29.6761 899.186 30.0455 899.527 30.3182C899.872 30.5871 900.296 30.7216 900.8 30.7216Z" fill="#9198A1"/>
<defs>
<linearGradient id="paint0_linear_606_2467" x1="0" y1="0" x2="1244.31" y2="239.586" gradientUnits="userSpaceOnUse">
<stop stop-color="white" stop-opacity="0.7"/>
<stop offset="1" stop-color="#999999" stop-opacity="0.35"/>
</linearGradient>
<linearGradient id="paint1_linear_606_2467" x1="37.821" y1="11" x2="63.9609" y2="38.9741" gradientUnits="userSpaceOnUse">
<stop stop-color="#FAB823"/>
<stop offset="0.2" stop-color="#F9A315"/>
<stop offset="0.4" stop-color="#F68D03"/>
<stop offset="0.6" stop-color="#F3770D"/>
<stop offset="0.8" stop-color="#F16B10"/>
<stop offset="1" stop-color="#EE5F13"/>
</linearGradient>
<linearGradient id="paint2_linear_606_2467" x1="11" y1="11" x2="64" y2="64" gradientUnits="userSpaceOnUse">
<stop stop-color="white"/>
<stop offset="1" stop-color="#585858"/>
</linearGradient>
<linearGradient id="paint3_linear_606_2467" x1="428.692" y1="32.4141" x2="426.423" y2="32.1614" gradientUnits="userSpaceOnUse">
<stop stop-color="#13EE42"/>
<stop offset="1" stop-color="#23FA8F"/>
</linearGradient>
<linearGradient id="paint4_linear_606_2467" x1="432.12" y1="25.0596" x2="424" y2="25.0596" gradientUnits="userSpaceOnUse">
<stop stop-color="#13EE42"/>
<stop offset="1" stop-color="#23FA8F"/>
</linearGradient>
<linearGradient id="paint5_linear_606_2467" x1="1008.5" y1="18" x2="1008.5" y2="34" gradientUnits="userSpaceOnUse">
<stop stop-color="#F9A315"/>
<stop offset="1" stop-color="#FAB823"/>
</linearGradient>
<clipPath id="clip0_606_2467">
<rect width="17" height="17" fill="white" transform="translate(609 16)"/>
</clipPath>
</defs>
</svg>
