<svg width="17" height="15" viewBox="0 0 17 15" fill="none" xmlns="http://www.w3.org/2000/svg">
<g clip-path="url(#clip0_881_3004)">
<path d="M11.5441 0H12.3112C12.3754 0.0197174 12.4435 0.0110537 12.5091 0.0225555C13.3816 0.1074 14.2467 0.369403 14.9856 0.848148C15.2833 1.04054 15.5547 1.27222 15.8004 1.5272C15.9888 1.74036 16.169 1.96263 16.3154 2.20731C16.4101 2.3522 16.4833 2.50934 16.561 2.66379C16.7857 3.14553 16.92 3.66714 16.973 4.19533C16.9876 4.28062 16.9809 4.36786 16.9961 4.45315C17.0042 4.55682 16.9972 4.66108 16.9994 4.76519C16.9966 4.88529 17.0081 5.00643 16.9879 5.12548C16.9758 5.43334 16.9286 5.73867 16.8713 6.04115C16.8396 6.22144 16.7839 6.39621 16.748 6.57561C16.3849 8.02947 16.0212 9.48333 15.6577 10.9372C15.5981 11.2065 15.5255 11.4728 15.4607 11.741C15.4159 11.9131 15.3724 12.0901 15.2727 12.24C15.1995 12.3576 15.1034 12.459 14.9978 12.5479C14.7455 12.7496 14.4203 12.844 14.1004 12.8469C13.9643 12.8348 13.8272 12.8172 13.6976 12.7718C13.5623 12.7186 13.4261 12.6544 13.3276 12.544C13.1848 12.4184 13.1075 12.2291 13.0958 12.0415C13.0801 11.9238 13.1128 11.8063 13.142 11.693C13.3144 11.0038 13.4864 10.3148 13.659 9.62569C13.7341 9.33471 13.7989 9.04133 13.8738 8.75035C14.1246 7.74656 14.376 6.74291 14.6265 5.73911C14.6873 5.49324 14.725 5.24215 14.7428 4.9897C14.7383 4.79522 14.7539 4.59984 14.7286 4.40654C14.7028 4.16486 14.6483 3.92481 14.5536 3.70015C14.4707 3.48207 14.3429 3.2831 14.1892 3.10818C14.1458 3.04231 14.0751 3.00377 14.0224 2.94671C13.9976 2.92161 13.9719 2.89727 13.9435 2.8765C13.7814 2.75312 13.6085 2.64049 13.4191 2.56386C13.2543 2.48275 13.0785 2.42584 12.901 2.37998C12.6552 2.30963 12.4017 2.26407 12.1461 2.25227C12.032 2.23165 11.9159 2.2445 11.8009 2.24017C11.7104 2.23584 11.6219 2.25989 11.5316 2.2572C11.1091 2.29753 10.691 2.39163 10.2939 2.54131C10.0308 2.63287 9.7818 2.7582 9.53683 2.88935C9.24525 3.06277 8.96218 3.25382 8.71228 3.48416C8.62594 3.57199 8.53766 3.65803 8.45117 3.74586C8.28283 3.94244 8.12434 4.15291 8.02441 4.39355C7.91656 4.74488 7.82544 5.10129 7.72641 5.45515C7.60616 5.91314 7.48263 6.37007 7.36761 6.8294C7.22884 7.34892 7.10277 7.87188 6.95579 8.38931C6.88946 8.60636 6.82254 8.8234 6.75533 9.04014C6.72455 9.15889 6.69976 9.28108 6.64285 9.39087C6.46419 9.78238 6.07627 10.0623 5.65533 10.1357C5.36868 10.1914 5.05739 10.1528 4.80778 9.99569C4.73519 9.93967 4.65632 9.88784 4.60359 9.81121C4.49305 9.682 4.43061 9.51739 4.40806 9.35009C4.40492 9.27122 4.37385 9.18966 4.40791 9.11318C4.75072 7.98974 5.02303 6.84658 5.32268 5.71118C5.48938 5.07096 5.65548 4.43044 5.84205 3.7956C5.88313 3.6401 5.95094 3.49327 6.02488 3.35092C6.22624 2.92878 6.50393 2.54668 6.81537 2.19924C6.93741 2.0775 7.059 1.95516 7.18134 1.83357C7.37553 1.66836 7.56732 1.49912 7.77824 1.35498C7.88385 1.26804 8.00499 1.20396 8.11702 1.12598C8.5647 0.842173 9.04494 0.611539 9.54325 0.431244C9.66633 0.390315 9.78613 0.338781 9.9122 0.306666C10.177 0.228393 10.4446 0.157889 10.7167 0.110089C10.9272 0.0660235 11.1416 0.0466048 11.3546 0.0174768C11.4176 0.0103068 11.4827 0.0203149 11.5441 0Z" fill="#00579C"/>
<path d="M2.63078 2.1842C2.70532 2.18166 2.77866 2.16404 2.85335 2.16508C3.04813 2.18286 3.24605 2.21154 3.42441 2.29683C3.5463 2.36241 3.66819 2.44023 3.74332 2.56018C3.85102 2.69671 3.85849 2.88357 3.82443 3.04744C3.72824 3.42028 3.641 3.79565 3.54002 4.1673C3.42799 4.61751 3.31507 5.06743 3.20274 5.51749C3.11909 5.86001 3.02498 6.19969 2.94268 6.54235C2.84543 6.93282 2.74685 7.32298 2.65005 7.7136C2.56625 8.0219 2.49201 8.33275 2.41404 8.6427C2.32576 8.97581 2.25645 9.31668 2.25152 9.66233C2.23509 9.75226 2.23897 9.84353 2.25242 9.9336C2.25794 10.2951 2.3392 10.6551 2.48962 10.9838C2.56267 11.1166 2.63452 11.2514 2.73176 11.3688C2.80674 11.4529 2.87486 11.5443 2.96404 11.6145C3.06277 11.6905 3.15494 11.7764 3.26488 11.8369C3.37989 11.9101 3.50238 11.9702 3.62562 12.0283C3.9033 12.1375 4.19085 12.2228 4.48497 12.2738C4.75907 12.3131 5.0369 12.34 5.3137 12.3179C6.00739 12.2761 6.68899 12.077 7.30441 11.7555C7.66933 11.5706 8.00393 11.3291 8.30925 11.0576C8.48208 10.8905 8.64773 10.7142 8.78053 10.5129C8.86149 10.3898 8.94842 10.2658 8.98592 10.1212C9.35039 8.86199 9.65915 7.58767 9.99673 6.32128C10.0662 6.07137 10.1498 5.8258 10.223 5.57694C10.2926 5.34721 10.4011 5.12554 10.5618 4.94554C10.6473 4.83097 10.7648 4.74612 10.8834 4.66905C11.1383 4.50563 11.4501 4.44349 11.7496 4.47217C11.8932 4.4895 12.0369 4.5246 12.1643 4.59496C12.3232 4.6692 12.462 4.79213 12.5433 4.94853C12.6233 5.09596 12.625 5.27371 12.5897 5.43399C12.3622 6.19147 12.1601 6.95627 11.965 7.72256C11.6959 8.75369 11.437 9.78766 11.1402 10.8115C11.1146 10.9041 11.0761 10.9925 11.0352 11.0793C10.9644 11.2499 10.8718 11.4102 10.7765 11.5681C10.6072 11.8444 10.4141 12.1067 10.1927 12.3436C10.1025 12.4568 9.99135 12.5508 9.89232 12.6559C9.6941 12.8371 9.48931 13.0122 9.27182 13.1704C8.9299 13.4231 8.56094 13.6373 8.18094 13.8269C8.00467 13.9056 7.8308 13.99 7.65006 14.0581C7.49277 14.1262 7.32741 14.1724 7.16668 14.2311C6.91813 14.3118 6.66434 14.3735 6.40966 14.4305C6.31271 14.4495 6.21472 14.4617 6.11823 14.4825C5.96975 14.5091 5.81918 14.5201 5.67025 14.5431C5.59392 14.5567 5.5146 14.5397 5.44007 14.5638H4.67288C4.64435 14.5558 4.61537 14.5503 4.58594 14.5497C4.47615 14.5478 4.3686 14.5218 4.25911 14.5157C3.9278 14.4708 3.59888 14.4039 3.28056 14.3007C2.92206 14.197 2.58044 14.0418 2.25257 13.8648C2.01626 13.7295 1.79339 13.5719 1.58202 13.4003C1.51675 13.341 1.44505 13.2887 1.3853 13.2233C1.29074 13.1238 1.18544 13.0342 1.09999 12.9262C0.528785 12.2776 0.170137 11.4529 0.0513848 10.5988C0.0277836 10.4634 0.0237505 10.3254 0 10.1904V9.40735C0.0140412 9.35522 0.0126968 9.30115 0.0182237 9.24812C0.058256 8.86408 0.115616 8.47989 0.220775 8.10765C0.383444 7.46773 0.537001 6.82527 0.705346 6.18684C0.83336 5.67284 0.961971 5.15899 1.09073 4.64515C1.21172 4.19389 1.31853 3.73874 1.43414 3.28599C1.46462 3.17411 1.48194 3.0573 1.53333 2.95229C1.59173 2.83234 1.65417 2.71045 1.75156 2.61709C1.79966 2.57078 1.84448 2.52119 1.89496 2.47757C2.10274 2.30759 2.36564 2.21273 2.63078 2.1842Z" fill="#DA251C"/>
</g>
<defs>
<clipPath id="clip0_881_3004">
<rect width="17" height="14.564" fill="white"/>
</clipPath>
</defs>
</svg>
