<svg width="53" height="21" viewBox="0 0 53 21" fill="none" xmlns="http://www.w3.org/2000/svg">
<g clip-path="url(#clip0_685_4117)">
<path d="M21.1893 1.65079L18.6354 18.7014L22.8077 18.6879L25.3637 1.63736L21.1893 1.65079Z" fill="#FCFCFC"/>
<path d="M15.0822 1.6892L11.0332 13.3246L10.5918 11.5712C9.77912 9.4593 7.48147 6.42998 4.7893 4.52487L8.5716 18.725L12.9864 18.7025L19.5024 1.6714L15.0822 1.6892Z" fill="#FCFCFC"/>
<path d="M8.98021 2.92803C8.73435 1.8907 8.03046 1.58356 7.1579 1.54933L0.689154 1.57014L0.636589 1.90958C5.67495 3.25285 9.01644 6.51773 10.4113 10.4519L8.98021 2.92803Z" fill="#FCFCFC"/>
<path d="M33.8304 4.87744C35.1953 4.84916 36.1858 5.17807 36.9553 5.51965L37.3326 5.71555L37.8851 2.02002C37.0577 1.67744 35.7613 1.31128 34.1452 1.31648C30.0223 1.32974 27.1237 3.65064 27.1118 6.96334C27.0929 9.41116 29.1941 10.771 30.7807 11.5819C32.4091 12.4129 32.956 12.9427 32.9509 13.6894C32.9417 14.8302 31.6599 15.3576 30.4612 15.3615C28.7904 15.3668 27.9021 15.1128 26.5297 14.4817L25.9912 14.2111L25.4165 18.0273C26.3945 18.5008 28.1976 18.9048 30.0681 18.9203C34.4539 18.9062 37.2968 16.6129 37.3155 13.0732C37.3275 11.1367 36.2099 9.66258 33.7947 8.45781C32.3327 7.67168 31.4382 7.14893 31.4442 6.35091C31.4419 5.64251 32.1971 4.88269 33.8304 4.87744Z" fill="#FCFCFC"/>
<path d="M48.5915 1.58182L45.3679 1.59218C44.3666 1.5954 43.6229 1.90123 43.1865 3.01362L37.0416 18.6518L41.4231 18.6377C41.4231 18.6377 42.1311 16.5353 42.2916 16.0748C42.7713 16.0733 47.0284 16.0668 47.6347 16.0648C47.7611 16.6593 48.1516 18.616 48.1516 18.616L52.0223 18.6036L48.5915 1.58182ZM43.4812 12.5827C43.8215 11.6032 45.1282 7.8145 45.1282 7.8145C45.1058 7.86117 45.4652 6.82786 45.6788 6.18567L45.9647 7.65412C45.9647 7.65412 46.7773 11.7204 46.9474 12.5716L43.4812 12.5827Z" fill="#FCFCFC"/>
</g>
<defs>
<clipPath id="clip0_685_4117">
<rect width="51.4286" height="20" fill="white" transform="translate(0.631104 0.219727) rotate(-0.184286)"/>
</clipPath>
</defs>
</svg>
