<svg width="23" height="19" viewBox="0 0 23 19" fill="none" xmlns="http://www.w3.org/2000/svg">
<path fill-rule="evenodd" clip-rule="evenodd" d="M17.99 5.73104H22.75C22.75 2.19228 20.46 0.125 16.58 0.125H6.42C2.54 0.125 0.25 2.19228 0.25 5.6859V13.3141C0.25 16.8077 2.54 18.875 6.42 18.875H16.58C20.46 18.875 22.75 16.8077 22.75 13.3141V12.9891H17.99C15.7809 12.9891 13.99 11.3724 13.99 9.37813C13.99 7.38384 15.7809 5.76715 17.99 5.76715V5.73104ZM17.9898 7.28377H21.9098C22.3737 7.28377 22.7498 7.62327 22.7498 8.04207V10.6781C22.7444 11.0949 22.3715 11.4315 21.9098 11.4364H18.0798C16.9614 11.45 15.9835 10.7587 15.7298 9.77534C15.6028 9.16489 15.7811 8.53497 16.217 8.0544C16.6529 7.57383 17.3018 7.29175 17.9898 7.28377ZM18.1598 10.0552H18.5298C19.0048 10.0552 19.3898 9.70761 19.3898 9.27884C19.3898 8.85007 19.0048 8.50248 18.5298 8.50248H18.1598C17.9327 8.50007 17.7139 8.57985 17.5523 8.72401C17.3907 8.86818 17.2998 9.06473 17.2998 9.26982C17.2998 9.70007 17.6833 10.0503 18.1598 10.0552ZM5.58015 5.73105H11.9302C12.4051 5.73105 12.7902 5.38346 12.7902 4.95469C12.7902 4.52592 12.4051 4.17833 11.9302 4.17833H5.58015C5.10907 4.1783 4.72563 4.52042 4.72015 4.94567C4.72012 5.37592 5.10357 5.72611 5.58015 5.73105Z" fill="#9198A1"/>
</svg>
