<svg width="439" height="264" viewBox="0 0 439 264" fill="none" xmlns="http://www.w3.org/2000/svg">
<rect x="13.01" width="426" height="242.022" rx="16" transform="rotate(3 13.01 0)" fill="url(#paint0_linear_685_4085)"/>
<rect x="13.01" width="426" height="242.022" rx="16" transform="rotate(3 13.01 0)" stroke="#737B8B"/>
<path d="M31.833 176.059L33.287 176.135L32.8666 184.156C32.8488 184.497 32.8029 184.863 32.729 185.254C32.655 185.646 32.5026 186.006 32.2717 186.336C32.052 186.656 31.7233 186.916 31.2855 187.117C30.8482 187.308 30.2621 187.384 29.5271 187.346C28.5045 187.292 27.7493 187.028 27.2614 186.554C26.7736 186.08 26.5405 185.432 26.5622 184.611L27.9523 184.684C27.9434 184.854 27.9597 185.053 28.0012 185.279C28.0539 185.495 28.1392 185.703 28.257 185.901C28.3854 186.1 28.5581 186.27 28.7751 186.409C29.0028 186.549 29.2923 186.628 29.6439 186.647C30.0486 186.668 30.362 186.599 30.584 186.44C30.8172 186.27 30.9937 186.061 31.1136 185.811C31.2341 185.55 31.3075 185.271 31.3338 184.973C31.3713 184.665 31.3967 184.384 31.4101 184.128L31.833 176.059ZM39.2717 179.477C40.0493 179.518 40.6452 179.661 41.0596 179.907C41.4745 180.142 41.7686 180.441 41.942 180.802C42.1259 181.165 42.2219 181.576 42.2298 182.035C42.2378 182.495 42.2292 182.964 42.2041 183.444L41.9755 187.806L40.6812 187.738L40.7223 186.955C40.3977 187.237 39.9911 187.456 39.5022 187.612C39.0139 187.757 38.5301 187.818 38.0508 187.792C37.5928 187.768 37.1922 187.667 36.849 187.489C36.5059 187.311 36.2238 187.088 36.0029 186.82C35.7819 186.552 35.6213 186.255 35.5208 185.929C35.4204 185.604 35.3788 185.276 35.3961 184.946C35.414 184.605 35.4958 184.267 35.6415 183.933C35.7872 183.599 35.9948 183.305 36.2644 183.052C36.5346 182.789 36.8605 182.582 37.2423 182.431C37.624 182.28 38.0546 182.217 38.5339 182.242C39.0133 182.267 39.461 182.387 39.877 182.601C40.3042 182.805 40.6474 183.085 40.9065 183.44L40.9425 182.753C40.9883 181.879 40.8892 181.223 40.6452 180.783C40.4119 180.343 39.949 180.105 39.2567 180.069C38.9584 180.053 38.6955 180.077 38.4679 180.14C38.2403 180.203 38.0323 180.299 37.844 180.428C37.6668 180.546 37.4984 180.703 37.3387 180.898C37.1795 181.082 37.0189 181.292 36.8569 181.529L36.0696 180.655C36.2271 180.503 36.39 180.351 36.5581 180.2C36.7369 180.049 36.9468 179.916 37.1879 179.8C37.4396 179.685 37.7325 179.599 38.0666 179.542C38.4013 179.474 38.803 179.452 39.2717 179.477ZM40.847 184.574C40.8005 184.444 40.7284 184.29 40.6308 184.114C40.5439 183.939 40.4247 183.767 40.2733 183.599C40.1219 183.431 39.9371 183.288 39.719 183.169C39.5015 183.041 39.2382 182.968 38.9293 182.952C38.6204 182.936 38.3348 182.985 38.0725 183.099C37.8107 183.203 37.5839 183.351 37.3922 183.544C37.2118 183.727 37.0666 183.949 36.9568 184.21C36.8469 184.472 36.7845 184.746 36.7694 185.034C36.7516 185.374 36.7945 185.676 36.8983 185.938C37.0133 186.189 37.1619 186.411 37.3441 186.602C37.5269 186.782 37.7333 186.921 37.9632 187.019C38.193 187.116 38.4145 187.171 38.6275 187.182C38.8299 187.192 39.0343 187.166 39.2406 187.102C39.4575 187.038 39.6599 186.947 39.8477 186.829C40.0467 186.701 40.2255 186.55 40.3841 186.377C40.5427 186.203 40.6755 186.013 40.7826 185.805L40.847 184.574ZM51.2114 188.29L49.8533 188.219L50.1288 182.962C50.1344 182.855 50.1326 182.684 50.1236 182.449C50.1146 182.213 50.0576 181.976 49.9528 181.735C49.8585 181.495 49.6934 181.283 49.4573 181.1C49.2218 180.906 48.8803 180.798 48.433 180.774C48.156 180.76 47.8819 180.793 47.6105 180.875C47.3499 180.958 47.113 181.095 46.9 181.287C46.687 181.478 46.5141 181.72 46.3813 182.012C46.2485 182.305 46.1712 182.658 46.1495 183.074L45.8907 188.011L44.5326 187.94L44.9513 179.951L46.3094 180.022L46.2558 181.045L46.3197 181.048L46.5888 180.806C46.9811 180.452 47.3724 180.222 47.7626 180.114C48.1533 179.996 48.5029 179.95 48.8112 179.977C49.5142 180.014 50.0511 180.165 50.4217 180.43C50.7929 180.684 51.0551 180.981 51.2082 181.32C51.3725 181.649 51.4617 181.985 51.4758 182.328C51.4905 182.659 51.4928 182.921 51.4827 183.113L51.2114 188.29ZM61.1019 185.155L55.0302 184.837C54.9962 185.487 55.0641 186.024 55.2341 186.45C55.4041 186.875 55.6267 187.213 55.902 187.462C56.1774 187.712 56.4776 187.893 56.8028 188.006C57.1392 188.109 57.4565 188.169 57.7548 188.184C58.0211 188.198 58.2622 188.184 58.478 188.142C58.705 188.09 58.9225 188.016 59.1305 187.92C59.3385 187.824 59.5425 187.701 59.7426 187.551C59.9534 187.402 60.1757 187.238 60.4094 187.058L60.8939 187.596C60.4444 188.021 59.9256 188.341 59.3375 188.556C58.75 188.76 58.1154 188.844 57.4337 188.808C56.7307 188.771 56.1243 188.622 55.6146 188.36C55.1162 188.089 54.7068 187.747 54.3866 187.335C54.0776 186.913 53.851 186.447 53.7068 185.937C53.5739 185.418 53.5213 184.891 53.5492 184.359C53.5827 183.72 53.7085 183.155 53.9264 182.664C54.145 182.163 54.4339 181.746 54.7932 181.412C55.153 181.068 55.5667 180.817 56.0342 180.66C56.5023 180.492 57.008 180.422 57.5512 180.451C58.0625 180.478 58.5427 180.588 58.9919 180.783C59.441 180.977 59.827 181.254 60.15 181.613C60.4837 181.972 60.738 182.418 60.913 182.95C61.0881 183.483 61.1569 184.106 61.1195 184.82L61.1019 185.155ZM55.0637 184.198L59.7453 184.443C59.7995 183.41 59.6288 182.589 59.2335 181.981C58.8493 181.363 58.2791 181.034 57.5228 180.994C57.1286 180.974 56.7828 181.052 56.4851 181.228C56.188 181.394 55.9355 181.627 55.7276 181.926C55.5303 182.225 55.3731 182.575 55.256 182.974C55.1502 183.364 55.0861 183.772 55.0637 184.198ZM69.3766 189.242L69.9628 178.057L73.6377 178.25C74.5219 178.296 75.3239 178.482 76.0438 178.809C76.7643 179.124 77.3724 179.546 77.8681 180.074C78.375 180.592 78.7544 181.199 79.0063 181.896C79.2688 182.593 79.3794 183.336 79.3381 184.124C79.2951 184.944 79.101 185.693 78.7558 186.369C78.4219 187.035 77.9754 187.604 77.4166 188.077C76.8684 188.55 76.2355 188.907 75.518 189.147C74.8004 189.387 74.0422 189.486 73.2433 189.445L69.3766 189.242ZM70.8675 188.615L72.6251 188.707C73.4985 188.753 74.2464 188.648 74.8686 188.392C75.5021 188.126 76.0281 187.769 76.4468 187.321C76.8655 186.873 77.1805 186.366 77.3917 185.801C77.6035 185.224 77.7245 184.648 77.7546 184.073C77.7881 183.434 77.7137 182.816 77.5313 182.219C77.3496 181.611 77.0627 181.073 76.6707 180.604C76.2899 180.125 75.8029 179.736 75.2097 179.438C74.6165 179.14 73.9258 178.97 73.1375 178.929L71.3799 178.836L70.8675 188.615ZM88.8011 186.27C88.7721 186.824 88.6483 187.352 88.4298 187.853C88.2118 188.344 87.9117 188.771 87.5294 189.136C87.1578 189.501 86.7105 189.782 86.1875 189.979C85.6751 190.176 85.1047 190.258 84.4762 190.225C83.8371 190.192 83.2624 190.05 82.7522 189.799C82.2532 189.538 81.8326 189.206 81.4905 188.803C81.1591 188.401 80.9053 187.945 80.7292 187.434C80.5643 186.912 80.496 186.38 80.5245 185.837C80.5535 185.283 80.677 184.76 80.895 184.27C81.1242 183.769 81.4246 183.336 81.7962 182.971C82.1785 182.607 82.6311 182.326 83.1541 182.129C83.6884 181.922 84.275 181.835 84.9142 181.869C85.5426 181.902 86.101 182.049 86.5894 182.309C87.089 182.56 87.5045 182.886 87.8359 183.288C88.178 183.69 88.4315 184.152 88.5964 184.674C88.7619 185.184 88.8302 185.717 88.8011 186.27ZM87.2832 186.191C87.3223 185.445 87.2739 184.839 87.1382 184.373C87.0029 183.896 86.8142 183.523 86.572 183.254C86.3297 182.985 86.0564 182.799 85.7519 182.698C85.448 182.586 85.1523 182.522 84.8647 182.507C84.5771 182.492 84.2763 182.524 83.9624 182.604C83.649 182.673 83.3525 182.829 83.0728 183.07C82.8037 183.312 82.5717 183.663 82.3767 184.123C82.1929 184.573 82.0815 185.171 82.0424 185.916C82.0039 186.651 82.0522 187.257 82.1875 187.734C82.3339 188.201 82.5282 188.569 82.7705 188.838C83.0234 189.108 83.3018 189.299 83.6057 189.411C83.9101 189.512 84.2061 189.57 84.4937 189.586C84.7813 189.601 85.0818 189.574 85.3952 189.505C85.7091 189.425 86.0006 189.264 86.2697 189.022C86.5387 188.779 86.7651 188.433 86.9489 187.984C87.1333 187.524 87.2447 186.926 87.2832 186.191ZM97.9576 187.087L91.8859 186.769C91.8519 187.418 91.9198 187.956 92.0898 188.381C92.2597 188.807 92.4824 189.144 92.7577 189.394C93.033 189.643 93.3333 189.824 93.6585 189.938C93.9949 190.041 94.3122 190.1 94.6105 190.116C94.8768 190.13 95.1178 190.116 95.3337 190.074C95.5607 190.021 95.7782 189.947 95.9862 189.851C96.1942 189.755 96.3982 189.633 96.5983 189.483C96.8091 189.334 97.0313 189.169 97.2651 188.989L97.7496 189.527C97.3 189.952 96.7813 190.272 96.1932 190.487C95.6057 190.691 94.9711 190.775 94.2894 190.74C93.5863 190.703 92.98 190.554 92.4703 190.292C91.9719 190.02 91.5625 189.678 91.2423 189.266C90.9333 188.844 90.7067 188.378 90.5625 187.869C90.4295 187.349 90.377 186.823 90.4049 186.29C90.4384 185.651 90.5641 185.086 90.7821 184.596C91.0006 184.095 91.2896 183.677 91.6488 183.343C92.0087 182.999 92.4224 182.748 92.8899 182.591C93.358 182.424 93.8637 182.354 94.4069 182.382C94.9182 182.409 95.3984 182.52 95.8475 182.714C96.2966 182.909 96.6827 183.185 97.0057 183.544C97.3393 183.903 97.5937 184.349 97.7687 184.882C97.9437 185.414 98.0126 186.038 97.9752 186.751L97.9576 187.087ZM91.9194 186.129L96.601 186.375C96.6551 185.342 96.4845 184.521 96.0891 183.913C95.705 183.294 95.1347 182.965 94.3784 182.926C93.9843 182.905 93.6384 182.983 93.3408 183.16C93.0437 183.326 92.7912 183.558 92.5832 183.857C92.386 184.156 92.2288 184.506 92.1117 184.906C92.0058 185.295 91.9417 185.703 91.9194 186.129Z" fill="#FCFCFC"/>
<path d="M26.4967 209.705L28.0663 207.881L25.71 207.902L25.7686 206.783L28.109 207.066L26.7395 205.072L27.8747 204.506L28.8347 206.672L30.0157 204.619L31.0856 205.3L29.5151 207.14L31.8722 207.103L31.8136 208.222L29.4724 207.955L30.8427 209.933L29.7067 210.515L28.7467 208.349L27.5657 210.402L26.4967 209.705ZM37.6533 210.29L39.2229 208.466L36.8666 208.487L36.9252 207.368L39.2656 207.651L37.8961 205.657L39.0312 205.091L39.9912 207.256L41.1723 205.203L42.2421 205.884L40.6717 207.725L43.0288 207.688L42.9702 208.806L40.629 208.539L41.9993 210.518L40.8633 211.099L39.9033 208.934L38.7222 210.987L37.6533 210.29ZM48.8098 210.875L50.3794 209.05L48.0231 209.071L48.0818 207.953L50.4222 208.236L49.0527 206.241L50.1878 205.676L51.1478 207.841L52.3289 205.788L53.3987 206.469L51.8282 208.309L54.1854 208.273L54.1268 209.391L51.7855 209.124L53.1559 211.103L52.0199 211.684L51.0599 209.519L49.8788 211.572L48.8098 210.875ZM59.9664 211.46L61.536 209.635L59.1797 209.656L59.2383 208.537L61.5787 208.82L60.2092 206.826L61.3444 206.261L62.3044 208.426L63.4854 206.373L64.5553 207.054L62.9848 208.894L65.3419 208.857L65.2833 209.976L62.9421 209.709L64.3124 211.687L63.1764 212.269L62.2164 210.103L61.0354 212.156L59.9664 211.46Z" fill="#FCFCFC"/>
<path d="M81.4213 212.584L82.9909 210.76L80.6346 210.781L80.6932 209.662L83.0336 209.945L81.6641 207.951L82.7992 207.385L83.7592 209.551L84.9403 207.498L86.0101 208.178L84.4397 210.019L86.7968 209.982L86.7382 211.101L84.397 210.834L85.7673 212.812L84.6313 213.393L83.6713 211.228L82.4902 213.281L81.4213 212.584ZM92.5778 213.169L94.1474 211.345L91.7911 211.365L91.8497 210.247L94.1902 210.53L92.8207 208.535L93.9558 207.97L94.9158 210.135L96.0969 208.082L97.1667 208.763L95.5962 210.604L97.9534 210.567L97.8948 211.685L95.5535 211.418L96.9239 213.397L95.7879 213.978L94.8279 211.813L93.6468 213.866L92.5778 213.169ZM103.734 213.754L105.304 211.929L102.948 211.95L103.006 210.832L105.347 211.115L103.977 209.12L105.112 208.555L106.072 210.72L107.253 208.667L108.323 209.348L106.753 211.188L109.11 211.152L109.051 212.27L106.71 212.003L108.08 213.982L106.944 214.563L105.984 212.398L104.803 214.451L103.734 213.754ZM114.891 214.338L116.461 212.514L114.104 212.535L114.163 211.416L116.503 211.699L115.134 209.705L116.269 209.139L117.229 211.305L118.41 209.252L119.48 209.933L117.909 211.773L120.267 211.736L120.208 212.855L117.867 212.588L119.237 214.566L118.101 215.148L117.141 212.982L115.96 215.035L114.891 214.338Z" fill="#FCFCFC"/>
<path d="M136.346 215.462L137.916 213.638L135.559 213.659L135.618 212.54L137.958 212.823L136.589 210.829L137.724 210.263L138.684 212.428L139.865 210.375L140.935 211.056L139.364 212.897L141.722 212.86L141.663 213.979L139.322 213.712L140.692 215.69L139.556 216.271L138.596 214.106L137.415 216.159L136.346 215.462ZM147.503 216.047L149.072 214.223L146.716 214.243L146.775 213.125L149.115 213.408L147.745 211.413L148.881 210.848L149.841 213.013L151.022 210.96L152.091 211.641L150.521 213.481L152.878 213.445L152.82 214.563L150.478 214.296L151.849 216.275L150.713 216.856L149.753 214.691L148.572 216.744L147.503 216.047ZM158.659 216.632L160.229 214.807L157.873 214.828L157.931 213.71L160.272 213.992L158.902 211.998L160.037 211.433L160.997 213.598L162.178 211.545L163.248 212.226L161.678 214.066L164.035 214.029L163.976 215.148L161.635 214.881L163.005 216.859L161.869 217.441L160.909 215.276L159.728 217.329L158.659 216.632ZM169.816 217.216L171.385 215.392L169.029 215.413L169.088 214.294L171.428 214.577L170.059 212.583L171.194 212.017L172.154 214.183L173.335 212.13L174.405 212.81L172.834 214.651L175.191 214.614L175.133 215.733L172.791 215.466L174.162 217.444L173.026 218.025L172.066 215.86L170.885 217.913L169.816 217.216Z" fill="#FCFCFC"/>
<path d="M191.097 215.383C191.115 215.036 191.16 214.636 191.232 214.183C191.316 213.719 191.431 213.25 191.576 212.777C191.734 212.293 191.927 211.822 192.155 211.365C192.395 210.909 192.68 210.51 193.011 210.166C193.342 209.811 193.729 209.531 194.172 209.326C194.616 209.121 195.125 209.034 195.7 209.064C196.275 209.094 196.773 209.234 197.192 209.484C197.624 209.735 197.985 210.055 198.277 210.443C198.582 210.819 198.83 211.247 199.021 211.725C199.213 212.204 199.355 212.692 199.449 213.19C199.556 213.676 199.621 214.154 199.644 214.624C199.681 215.082 199.689 215.485 199.671 215.833C199.632 216.588 199.508 217.344 199.3 218.103C199.093 218.849 198.793 219.524 198.401 220.128C198.02 220.733 197.544 221.219 196.972 221.585C196.413 221.941 195.762 222.099 195.019 222.06C194.276 222.021 193.645 221.796 193.126 221.384C192.619 220.961 192.208 220.429 191.894 219.787C191.579 219.146 191.357 218.443 191.229 217.68C191.101 216.904 191.057 216.138 191.097 215.383ZM192.895 215.478C192.862 216.089 192.853 216.731 192.866 217.405C192.878 218.078 192.954 218.695 193.093 219.255C193.244 219.816 193.472 220.284 193.776 220.661C194.081 221.037 194.509 221.24 195.06 221.269C195.624 221.298 196.082 221.142 196.437 220.8C196.791 220.458 197.067 220.016 197.263 219.474C197.472 218.932 197.618 218.327 197.701 217.658C197.784 216.99 197.842 216.35 197.874 215.739C197.906 215.115 197.917 214.461 197.904 213.776C197.892 213.09 197.811 212.467 197.66 211.906C197.522 211.334 197.294 210.86 196.978 210.483C196.661 210.093 196.222 209.884 195.659 209.855C195.107 209.826 194.66 209.989 194.317 210.343C193.975 210.686 193.699 211.134 193.49 211.688C193.293 212.23 193.153 212.842 193.069 213.522C192.985 214.203 192.927 214.855 192.895 215.478ZM205.689 215.625C205.272 215.556 204.912 215.417 204.611 215.209C204.321 215.001 204.076 214.76 203.874 214.485C203.684 214.199 203.544 213.897 203.453 213.58C203.373 213.263 203.341 212.949 203.358 212.637C203.375 212.302 203.46 211.952 203.611 211.587C203.762 211.223 203.996 210.892 204.312 210.597C204.628 210.301 205.031 210.063 205.521 209.885C206.011 209.706 206.609 209.635 207.316 209.673C208.011 209.709 208.593 209.842 209.062 210.07C209.543 210.3 209.925 210.578 210.208 210.906C210.491 211.233 210.689 211.586 210.801 211.964C210.926 212.343 210.979 212.7 210.961 213.036C210.945 213.347 210.875 213.656 210.751 213.962C210.638 214.269 210.467 214.554 210.237 214.818C210.019 215.071 209.75 215.286 209.428 215.461C209.119 215.637 208.759 215.738 208.349 215.765L208.344 215.855C208.786 215.902 209.176 216.037 209.513 216.258C209.862 216.469 210.149 216.736 210.372 217.061C210.608 217.373 210.782 217.719 210.894 218.097C211.007 218.476 211.053 218.851 211.034 219.222C211.01 219.666 210.897 220.104 210.694 220.538C210.504 220.961 210.226 221.337 209.86 221.666C209.494 221.995 209.042 222.254 208.504 222.442C207.965 222.63 207.342 222.706 206.635 222.669C205.928 222.632 205.317 222.491 204.801 222.248C204.297 222.005 203.88 221.701 203.551 221.335C203.233 220.97 203.002 220.568 202.857 220.127C202.713 219.675 202.652 219.227 202.675 218.784C202.695 218.413 202.78 218.045 202.931 217.68C203.083 217.315 203.286 216.99 203.541 216.703C203.797 216.404 204.104 216.167 204.462 215.994C204.832 215.809 205.239 215.716 205.684 215.715L205.689 215.625ZM207.012 215.479C207.312 215.494 207.602 215.461 207.882 215.38C208.176 215.287 208.435 215.145 208.662 214.952C208.901 214.748 209.094 214.5 209.242 214.207C209.39 213.903 209.475 213.541 209.497 213.121C209.523 212.618 209.461 212.2 209.31 211.868C209.172 211.524 208.988 211.256 208.757 211.064C208.528 210.86 208.277 210.714 208.005 210.628C207.746 210.53 207.503 210.475 207.275 210.463C207.047 210.451 206.799 210.481 206.531 210.551C206.264 210.609 206.005 210.727 205.756 210.907C205.519 211.074 205.313 211.322 205.14 211.649C204.967 211.965 204.868 212.374 204.841 212.877C204.819 213.297 204.866 213.666 204.981 213.984C205.098 214.291 205.258 214.557 205.462 214.784C205.667 215 205.905 215.168 206.175 215.29C206.445 215.401 206.724 215.463 207.012 215.479ZM206.979 216.108C206.62 216.089 206.286 216.143 205.979 216.272C205.673 216.388 205.405 216.566 205.176 216.806C204.96 217.035 204.783 217.314 204.646 217.644C204.521 217.962 204.448 218.312 204.428 218.696C204.379 219.63 204.556 220.385 204.958 220.959C205.373 221.533 205.946 221.839 206.677 221.878C207.432 221.917 208.045 221.673 208.518 221.145C208.99 220.617 209.25 219.886 209.299 218.951C209.32 218.568 209.278 218.211 209.175 217.881C209.085 217.54 208.938 217.244 208.735 216.993C208.533 216.73 208.279 216.524 207.974 216.376C207.682 216.217 207.351 216.127 206.979 216.108ZM217.202 216.229C216.785 216.159 216.426 216.02 216.124 215.812C215.835 215.604 215.589 215.363 215.387 215.088C215.198 214.802 215.058 214.5 214.966 214.183C214.887 213.866 214.855 213.552 214.871 213.241C214.889 212.905 214.973 212.555 215.125 212.191C215.276 211.826 215.509 211.496 215.825 211.2C216.141 210.904 216.544 210.667 217.034 210.488C217.524 210.31 218.123 210.239 218.83 210.276C219.525 210.312 220.107 210.445 220.575 210.674C221.056 210.903 221.438 211.182 221.721 211.509C222.005 211.836 222.202 212.189 222.315 212.567C222.439 212.946 222.492 213.304 222.475 213.639C222.458 213.951 222.388 214.26 222.264 214.566C222.152 214.872 221.981 215.158 221.751 215.422C221.533 215.675 221.263 215.889 220.942 216.064C220.632 216.24 220.272 216.342 219.862 216.368L219.858 216.458C220.3 216.505 220.689 216.64 221.026 216.862C221.376 217.072 221.662 217.34 221.885 217.664C222.121 217.977 222.295 218.322 222.408 218.701C222.52 219.079 222.567 219.454 222.547 219.826C222.524 220.269 222.411 220.708 222.208 221.142C222.017 221.564 221.739 221.94 221.374 222.269C221.008 222.599 220.556 222.857 220.017 223.046C219.479 223.234 218.856 223.309 218.149 223.272C217.442 223.235 216.83 223.095 216.314 222.851C215.81 222.609 215.394 222.305 215.064 221.939C214.747 221.574 214.516 221.171 214.371 220.731C214.226 220.279 214.165 219.831 214.189 219.387C214.208 219.016 214.293 218.648 214.445 218.283C214.596 217.919 214.799 217.593 215.055 217.306C215.311 217.007 215.618 216.771 215.975 216.597C216.345 216.412 216.753 216.319 217.197 216.319L217.202 216.229ZM218.526 216.082C218.825 216.098 219.115 216.065 219.396 215.983C219.689 215.891 219.949 215.748 220.175 215.556C220.414 215.352 220.608 215.104 220.755 214.811C220.903 214.506 220.988 214.144 221.01 213.725C221.037 213.221 220.974 212.804 220.824 212.471C220.685 212.128 220.501 211.86 220.271 211.667C220.041 211.463 219.791 211.318 219.519 211.231C219.26 211.134 219.016 211.079 218.788 211.067C218.561 211.055 218.313 211.084 218.045 211.154C217.777 211.212 217.519 211.331 217.269 211.51C217.032 211.678 216.827 211.925 216.653 212.253C216.481 212.568 216.381 212.977 216.355 213.481C216.333 213.9 216.379 214.269 216.495 214.588C216.611 214.894 216.771 215.161 216.976 215.388C217.181 215.603 217.418 215.772 217.688 215.894C217.959 216.004 218.238 216.067 218.526 216.082ZM218.493 216.711C218.133 216.692 217.8 216.747 217.493 216.875C217.186 216.991 216.918 217.169 216.69 217.41C216.473 217.639 216.296 217.918 216.159 218.247C216.034 218.565 215.962 218.916 215.942 219.299C215.893 220.234 216.069 220.988 216.472 221.562C216.886 222.136 217.459 222.443 218.19 222.481C218.945 222.521 219.559 222.277 220.031 221.748C220.503 221.22 220.764 220.489 220.813 219.554C220.833 219.171 220.792 218.814 220.689 218.484C220.599 218.143 220.452 217.847 220.249 217.596C220.046 217.333 219.793 217.128 219.488 216.98C219.196 216.82 218.864 216.731 218.493 216.711ZM233.809 213.188L232.299 213.109C232.249 212.686 232.069 212.352 231.757 212.107C231.446 211.85 231.063 211.71 230.607 211.686C230.008 211.655 229.51 211.767 229.112 212.022C228.714 212.278 228.394 212.652 228.152 213.144C227.91 213.624 227.729 214.209 227.609 214.9C227.501 215.591 227.425 216.356 227.381 217.195L227.453 217.199L227.69 216.797C227.915 216.4 228.257 216.063 228.716 215.787C229.187 215.511 229.794 215.393 230.537 215.432C230.981 215.455 231.42 215.562 231.854 215.753C232.302 215.933 232.696 216.2 233.038 216.554C233.38 216.908 233.651 217.349 233.852 217.877C234.053 218.404 234.134 219.027 234.096 219.746C234.065 220.345 233.934 220.903 233.702 221.42C233.471 221.936 233.165 222.383 232.785 222.759C232.405 223.136 231.957 223.425 231.442 223.626C230.926 223.828 230.363 223.912 229.752 223.88C228.865 223.834 228.151 223.598 227.608 223.173C227.078 222.749 226.673 222.217 226.394 221.577C226.127 220.938 225.96 220.233 225.892 219.46C225.825 218.676 225.812 217.9 225.852 217.133C225.895 216.318 226.014 215.525 226.211 214.754C226.419 213.984 226.719 213.309 227.11 212.729C227.514 212.137 228.012 211.676 228.606 211.347C229.201 211.006 229.912 210.857 230.739 210.9C231.134 210.921 231.51 210.982 231.865 211.085C232.22 211.188 232.537 211.331 232.816 211.514C233.094 211.696 233.322 211.931 233.5 212.216C233.678 212.49 233.781 212.814 233.809 213.188ZM227.439 219.523C227.407 220.134 227.458 220.66 227.591 221.099C227.724 221.539 227.903 221.909 228.127 222.209C228.353 222.497 228.612 222.715 228.904 222.862C229.21 222.999 229.506 223.074 229.794 223.089C230.021 223.101 230.275 223.072 230.555 223.003C230.847 222.934 231.126 222.781 231.39 222.542C231.655 222.304 231.883 221.967 232.074 221.532C232.266 221.086 232.38 220.503 232.418 219.784C232.453 219.125 232.404 218.57 232.271 218.118C232.151 217.667 231.977 217.304 231.751 217.027C231.526 216.751 231.272 216.552 230.99 216.429C230.708 216.306 230.435 216.237 230.171 216.224C229.872 216.208 229.569 216.258 229.262 216.374C228.956 216.478 228.67 216.662 228.404 216.924C228.151 217.175 227.935 217.518 227.756 217.954C227.577 218.377 227.472 218.9 227.439 219.523Z" fill="#FCFCFC"/>
<path d="M360.667 200.883C360.683 200.574 360.723 200.219 360.787 199.816C360.862 199.403 360.964 198.987 361.093 198.566C361.233 198.136 361.404 197.718 361.607 197.312C361.821 196.906 362.074 196.551 362.368 196.246C362.662 195.93 363.006 195.681 363.401 195.499C363.795 195.317 364.247 195.239 364.759 195.266C365.27 195.292 365.712 195.417 366.085 195.64C366.468 195.863 366.79 196.147 367.05 196.491C367.32 196.826 367.541 197.206 367.711 197.631C367.881 198.057 368.008 198.491 368.091 198.933C368.186 199.365 368.244 199.79 368.265 200.208C368.297 200.616 368.305 200.974 368.289 201.283C368.253 201.954 368.143 202.626 367.958 203.3C367.774 203.963 367.508 204.564 367.159 205.101C366.821 205.639 366.398 206.07 365.89 206.396C365.392 206.712 364.814 206.852 364.153 206.818C363.493 206.783 362.932 206.583 362.47 206.217C362.02 205.841 361.655 205.368 361.375 204.798C361.095 204.228 360.898 203.603 360.784 202.924C360.671 202.235 360.632 201.554 360.667 200.883ZM362.265 200.967C362.236 201.51 362.228 202.081 362.239 202.68C362.25 203.279 362.318 203.827 362.441 204.325C362.575 204.823 362.778 205.24 363.049 205.574C363.32 205.909 363.7 206.089 364.19 206.115C364.691 206.141 365.098 206.002 365.414 205.698C365.729 205.394 365.973 205.001 366.148 204.519C366.334 204.037 366.463 203.5 366.537 202.905C366.611 202.311 366.662 201.742 366.691 201.199C366.72 200.645 366.729 200.063 366.718 199.454C366.707 198.845 366.635 198.291 366.501 197.792C366.378 197.284 366.176 196.862 365.894 196.527C365.613 196.181 365.222 195.995 364.722 195.969C364.232 195.943 363.834 196.088 363.529 196.403C363.225 196.707 362.98 197.106 362.794 197.598C362.619 198.08 362.494 198.624 362.42 199.229C362.346 199.834 362.294 200.413 362.265 200.967ZM373.131 200.799C373.355 200.811 373.612 200.803 373.902 200.776C374.203 200.738 374.485 200.651 374.748 200.516C375.023 200.37 375.253 200.158 375.439 199.879C375.635 199.601 375.745 199.227 375.77 198.759C375.785 198.471 375.756 198.197 375.685 197.937C375.624 197.667 375.514 197.426 375.354 197.215C375.205 196.993 375.006 196.817 374.757 196.687C374.508 196.546 374.208 196.466 373.856 196.447C373.632 196.436 373.418 196.451 373.213 196.494C373.008 196.536 372.821 196.628 372.654 196.769C372.487 196.899 372.343 197.089 372.223 197.339C372.103 197.589 372.012 197.91 371.948 198.302L370.526 198.228C370.552 197.941 370.626 197.645 370.749 197.342C370.883 197.029 371.084 196.751 371.353 196.509C371.623 196.256 371.97 196.06 372.394 195.922C372.818 195.774 373.344 195.716 373.973 195.749C374.548 195.779 375.039 195.89 375.445 196.082C375.863 196.264 376.198 196.501 376.45 196.792C376.713 197.072 376.899 197.397 377.007 197.766C377.116 198.135 377.16 198.517 377.14 198.911C377.111 199.465 376.938 199.909 376.621 200.245C376.305 200.571 375.837 200.845 375.216 201.069L375.037 201.124L375.031 201.236L375.205 201.277C375.554 201.348 375.862 201.482 376.129 201.678C376.398 201.863 376.621 202.088 376.799 202.354C376.989 202.609 377.129 202.894 377.219 203.209C377.31 203.513 377.347 203.814 377.332 204.112C377.309 204.538 377.202 204.949 377.011 205.345C376.83 205.741 376.566 206.09 376.219 206.393C375.872 206.684 375.444 206.913 374.933 207.078C374.433 207.244 373.853 207.31 373.192 207.276C372.723 207.262 372.285 207.175 371.876 207.014C371.468 206.854 371.111 206.643 370.804 206.381C370.509 206.109 370.274 205.803 370.099 205.463C369.935 205.123 369.863 204.773 369.882 204.41L371.48 204.494C371.477 204.75 371.517 205.003 371.6 205.253C371.694 205.504 371.821 205.724 371.982 205.914C372.154 206.105 372.359 206.265 372.598 206.395C372.837 206.515 373.111 206.582 373.42 206.599C374.059 206.632 374.587 206.446 375.004 206.041C375.431 205.636 375.668 204.986 375.715 204.091C375.725 203.899 375.716 203.664 375.688 203.385C375.659 203.106 375.562 202.833 375.394 202.568C375.237 202.293 374.977 202.055 374.614 201.855C374.251 201.654 373.744 201.537 373.094 201.503L373.131 200.799ZM386.487 196.404L379.697 207.649L378.595 207.591L385.353 196.345L386.487 196.404ZM390.545 201.712C390.769 201.724 391.025 201.716 391.315 201.688C391.616 201.651 391.899 201.564 392.162 201.428C392.437 201.283 392.667 201.07 392.852 200.792C393.048 200.513 393.159 200.14 393.183 199.671C393.198 199.384 393.17 199.11 393.098 198.85C393.038 198.58 392.927 198.339 392.768 198.127C392.619 197.906 392.42 197.73 392.17 197.6C391.921 197.458 391.621 197.378 391.27 197.36C391.046 197.348 390.832 197.364 390.626 197.406C390.421 197.449 390.235 197.541 390.067 197.682C389.9 197.812 389.757 198.002 389.637 198.252C389.517 198.502 389.425 198.823 389.362 199.215L387.94 199.14C387.966 198.853 388.04 198.558 388.163 198.255C388.297 197.941 388.498 197.663 388.767 197.421C389.037 197.168 389.383 196.973 389.807 196.835C390.232 196.686 390.758 196.628 391.386 196.661C391.962 196.691 392.452 196.803 392.859 196.995C393.277 197.177 393.611 197.413 393.863 197.704C394.126 197.985 394.312 198.31 394.421 198.679C394.53 199.048 394.574 199.429 394.553 199.823C394.524 200.377 394.351 200.822 394.035 201.158C393.719 201.483 393.25 201.758 392.63 201.982L392.451 202.036L392.445 202.148L392.619 202.189C392.968 202.261 393.276 202.395 393.543 202.59C393.811 202.775 394.034 203 394.213 203.266C394.402 203.522 394.542 203.807 394.632 204.121C394.723 204.425 394.761 204.726 394.745 205.024C394.723 205.451 394.616 205.862 394.424 206.257C394.243 206.654 393.979 207.003 393.632 207.305C393.286 207.597 392.857 207.825 392.347 207.991C391.847 208.157 391.267 208.223 390.606 208.188C390.137 208.174 389.698 208.087 389.29 207.927C388.882 207.767 388.524 207.556 388.218 207.294C387.922 207.022 387.687 206.716 387.513 206.376C387.349 206.036 387.277 205.685 387.296 205.323L388.893 205.407C388.891 205.663 388.931 205.916 389.014 206.166C389.107 206.417 389.235 206.637 389.396 206.827C389.567 207.018 389.772 207.178 390.011 207.308C390.251 207.427 390.525 207.495 390.834 207.511C391.473 207.545 392.001 207.359 392.417 206.953C392.844 206.548 393.081 205.899 393.128 205.004C393.138 204.812 393.129 204.577 393.101 204.297C393.073 204.018 392.975 203.746 392.807 203.481C392.651 203.206 392.391 202.968 392.028 202.767C391.664 202.567 391.158 202.449 390.508 202.415L390.545 201.712ZM396.789 202.776C396.805 202.467 396.845 202.112 396.909 201.709C396.984 201.297 397.086 200.88 397.215 200.459C397.355 200.029 397.527 199.611 397.73 199.205C397.943 198.799 398.197 198.444 398.49 198.139C398.785 197.823 399.129 197.574 399.523 197.392C399.917 197.21 400.37 197.132 400.881 197.159C401.392 197.186 401.834 197.31 402.207 197.533C402.591 197.756 402.912 198.04 403.172 198.384C403.443 198.719 403.663 199.099 403.833 199.525C404.003 199.95 404.13 200.384 404.214 200.826C404.308 201.258 404.366 201.683 404.387 202.101C404.419 202.509 404.427 202.867 404.411 203.176C404.376 203.847 404.266 204.519 404.081 205.193C403.896 205.857 403.63 206.457 403.281 206.994C402.944 207.532 402.52 207.963 402.012 208.289C401.515 208.605 400.936 208.746 400.275 208.711C399.615 208.676 399.054 208.476 398.593 208.11C398.142 207.734 397.777 207.261 397.497 206.691C397.218 206.121 397.021 205.496 396.907 204.817C396.793 204.128 396.754 203.447 396.789 202.776ZM398.387 202.86C398.359 203.403 398.35 203.974 398.361 204.573C398.373 205.172 398.44 205.72 398.564 206.218C398.698 206.716 398.9 207.133 399.171 207.467C399.442 207.802 399.822 207.982 400.312 208.008C400.813 208.034 401.221 207.895 401.536 207.591C401.851 207.287 402.096 206.894 402.271 206.412C402.456 205.931 402.586 205.393 402.66 204.798C402.733 204.204 402.785 203.635 402.813 203.092C402.842 202.538 402.851 201.956 402.84 201.347C402.83 200.738 402.757 200.184 402.623 199.685C402.5 199.177 402.298 198.755 402.016 198.42C401.736 198.074 401.345 197.888 400.844 197.862C400.354 197.836 399.957 197.981 399.652 198.296C399.347 198.601 399.102 198.999 398.916 199.491C398.741 199.973 398.617 200.517 398.542 201.122C398.468 201.727 398.416 202.306 398.387 202.86Z" fill="#FCFCFC"/>
<g clip-path="url(#clip0_685_4085)">
<path d="M383.332 43.9178L379.834 60.8002L384.001 61.0185L387.5 44.1363L383.332 43.9178Z" fill="#FCFCFC"/>
<path d="M377.232 43.6179L372.543 55.0105L372.199 53.2352C371.505 51.0815 369.379 47.9292 366.797 45.8775L369.785 60.2658L374.194 60.4885L381.646 43.8457L377.232 43.6179Z" fill="#FCFCFC"/>
<path d="M371.07 44.5164C370.882 43.467 370.197 43.1213 369.327 43.0386L362.867 42.7001L362.796 43.0361C367.752 44.6571 370.907 48.1026 372.081 52.1081L371.07 44.5164Z" fill="#FCFCFC"/>
<path d="M395.774 47.8423C397.138 47.8899 398.109 48.2733 398.858 48.6571L399.224 48.8737L399.981 45.2146C399.174 44.8266 397.9 44.3889 396.286 44.3044C392.169 44.0886 389.146 46.2449 388.95 49.5518C388.795 51.9948 390.817 53.4693 392.356 54.367C393.936 55.2872 394.453 55.8466 394.406 56.5918C394.334 57.7304 393.025 58.1858 391.828 58.123C390.159 58.0356 389.286 57.7326 387.951 57.0263L387.428 56.7261L386.643 60.5046C387.593 61.0317 389.371 61.5351 391.237 61.6545C395.617 61.884 398.583 59.7523 398.798 56.2191C398.918 54.2862 397.884 52.7523 395.539 51.4152C394.123 50.5491 393.259 49.9774 393.31 49.181C393.347 48.4736 394.143 47.7569 395.774 47.8423Z" fill="#FCFCFC"/>
<path d="M410.695 45.371L407.476 45.2023C406.476 45.1499 405.716 45.4139 405.219 46.5004L398.215 61.773L402.59 62.0024C402.59 62.0024 403.414 59.9425 403.6 59.4917C404.079 59.5168 408.33 59.7468 408.935 59.7785C409.028 60.3791 409.31 62.3545 409.31 62.3545L413.175 62.5571L410.695 45.371ZM404.982 56.0711C405.376 55.112 406.891 51.4017 406.891 51.4017C406.866 51.447 407.282 50.4353 407.531 49.806L407.735 51.288C407.735 51.288 408.32 55.3931 408.443 56.2525L404.982 56.0711Z" fill="#FCFCFC"/>
</g>
<path d="M40.4989 33.9333C39.3547 33.8733 38.3694 34.7604 38.3094 35.9047C38.2495 37.049 39.1366 38.0342 40.2809 38.0942C41.4251 38.1542 42.4104 37.267 42.4704 36.1228C42.5303 34.9785 41.6432 33.9932 40.4989 33.9333ZM52.9818 34.5875C51.8375 34.5275 50.8523 35.4146 50.7923 36.5589C50.7323 37.7032 51.6195 38.6884 52.7637 38.7484C53.908 38.8084 54.8933 37.9212 54.9533 36.777C55.0132 35.6327 54.1261 34.6474 52.9818 34.5875ZM46.7404 34.2604C45.5961 34.2004 44.6108 35.0875 44.5509 36.2318C44.4909 37.3761 45.378 38.3613 46.5223 38.4213C47.6666 38.4813 48.6518 37.5941 48.7118 36.4499C48.7718 35.3056 47.8846 34.3203 46.7404 34.2604Z" fill="#FCFCFC"/>
<rect x="29.3291" y="120.723" width="33" height="22" rx="5" transform="rotate(3.18429 29.3291 120.723)" fill="url(#paint1_radial_685_4085)"/>
<path fill-rule="evenodd" clip-rule="evenodd" d="M45.7914 121.858L41.811 127.395C41.811 127.395 42.996 132.499 41.292 136.723L44.5938 143.385L48.6141 137.13C48.6141 137.13 47.3493 133.461 49.133 127.802C49.133 127.802 45.7914 121.858 45.7914 121.858Z" stroke="#C7C7B6" stroke-width="1.3" stroke-linejoin="bevel"/>
<path d="M28.9828 126.945L41.7963 127.658" stroke="#C7C7B6" stroke-width="1.3" stroke-linejoin="bevel"/>
<path d="M48.7518 128.046L61.9315 128.779" stroke="#C7C7B6" stroke-width="1.3" stroke-linejoin="bevel"/>
<path d="M28.494 135.731L41.3076 136.444" stroke="#C7C7B6" stroke-width="1.3" stroke-linejoin="bevel"/>
<path d="M48.2631 136.832L61.4427 137.565" stroke="#C7C7B6" stroke-width="1.3" stroke-linejoin="bevel"/>
<g clip-path="url(#clip1_685_4085)">
<path d="M408.125 150.38C407.937 148.367 407.438 146.536 406.639 144.689C406.462 144.278 406.19 143.762 406.096 143.657C405.813 143.341 405.314 143.313 405.003 143.496C404.798 143.585 404.476 143.968 404.459 144.267C404.454 144.367 404.626 144.877 404.897 145.393C405.957 147.956 406.339 150.08 406.195 152.676C406.039 155.472 405.312 157.735 403.981 160.065C403.648 160.647 403.537 160.841 403.626 161.047C403.709 161.352 403.986 161.768 404.28 161.884C404.38 161.89 404.58 161.901 404.58 161.901C404.58 161.901 404.68 161.907 404.78 161.912C405.079 161.929 405.401 161.546 405.961 160.475C406.96 158.728 407.559 156.959 407.975 154.879C408.131 153.886 408.159 151.584 408.125 150.38Z" fill="white"/>
<path d="M403.627 148.427C403.383 147.412 402.679 145.67 402.39 145.454C402.007 145.132 401.309 145.093 400.987 145.476C400.665 145.859 400.654 146.058 401.092 147.184C401.802 148.826 402.04 149.941 402.146 151.65C402.229 153.758 401.713 155.832 400.603 157.774C400.376 158.262 400.154 158.65 400.048 158.744C399.926 159.138 400.192 159.754 400.686 159.881C401.374 160.12 401.901 159.649 402.589 158.084C404.159 155.067 404.547 151.683 403.627 148.427Z" fill="white"/>
<path d="M398.108 146.819C397.808 146.802 397.708 146.796 397.492 147.085C397.07 147.462 397.059 147.662 397.498 148.788C398.562 151.251 398.429 153.647 397.092 156.076C396.754 156.759 396.643 156.953 396.632 157.152C396.715 157.458 396.898 157.768 397.192 157.885C397.292 157.89 397.486 158.001 397.685 158.012C398.09 157.935 398.401 157.752 398.85 156.875C399.738 155.322 399.999 154.235 400.093 152.538C400.182 150.94 399.955 149.625 399.339 148.089C398.895 147.063 398.607 146.846 398.108 146.819Z" fill="white"/>
<path d="M394.419 148.316C393.914 148.388 393.481 148.965 393.559 149.37C393.554 149.47 393.737 149.78 393.82 150.085C394.18 150.807 394.258 151.212 394.208 152.11C394.158 153.009 394.036 153.403 393.598 154.079C393.265 154.662 393.154 154.856 393.237 155.161C393.32 155.466 393.503 155.777 393.797 155.893C394.285 156.121 394.796 155.949 395.234 155.272C396.532 153.541 396.671 151.045 395.573 149.181C395.207 148.56 394.918 148.344 394.419 148.316Z" fill="white"/>
</g>
<defs>
<linearGradient id="paint0_linear_685_4085" x1="13.01" y1="121.011" x2="439.01" y2="121.011" gradientUnits="userSpaceOnUse">
<stop stop-color="#EA742F"/>
<stop offset="0.12" stop-color="#EC7D33"/>
<stop offset="0.265" stop-color="#EE8537"/>
<stop offset="0.415" stop-color="#F2973F"/>
<stop offset="0.58" stop-color="#F5A244"/>
<stop offset="0.73" stop-color="#F7AE49"/>
<stop offset="0.87" stop-color="#FABA4F"/>
<stop offset="0.995" stop-color="#FFD159"/>
</linearGradient>
<radialGradient id="paint1_radial_685_4085" cx="0" cy="0" r="1" gradientUnits="userSpaceOnUse" gradientTransform="translate(48.2794 128.737) rotate(141.302) scale(22.37 22.2003)">
<stop stop-color="white"/>
<stop offset="1" stop-color="#DDDCDA"/>
</radialGradient>
<clipPath id="clip0_685_4085">
<rect width="51.4286" height="20" fill="white" transform="translate(362.885 41.3477) rotate(3)"/>
</clipPath>
<clipPath id="clip1_685_4085">
<rect width="14.7789" height="18.5394" fill="white" transform="translate(393.89 142.738) rotate(3.18429)"/>
</clipPath>
</defs>
</svg>
